<?xml version="1.0" encoding="utf-8"?>
<!-- Generator: Adobe Illustrator 17.0.0, SVG Export Plug-In . SVG Version: 6.00 Build 0)  -->
<!DOCTYPE svg PUBLIC "-//W3C//DTD SVG 1.1//EN" "http://www.w3.org/Graphics/SVG/1.1/DTD/svg11.dtd">
<svg version="1.1" xmlns="http://www.w3.org/2000/svg" xmlns:xlink="http://www.w3.org/1999/xlink" x="0px" y="0px" width="750px"
	 height="400px" viewBox="0 0 750 400" enable-background="new 0 0 750 400" xml:space="preserve">
<g id="BACKGROUND">
</g>
<g id="EDITABLE_TEXT">
	<path d="M55.636,343.604c-1.904,3.125-5.991,4.113-9.116,2.209c-3.124-1.904-4.114-5.991-2.21-9.116l18.962-31.01
		c11.396-19.737,29.198-50.501,50.12-81.971l58.942-96.399c4.645-7.597,6.972-13.471,7.365-17.852
		c0.255-2.869-0.435-4.901-1.877-6.194c-1.945-1.742-5.328-2.824-9.8-3.341c-10.93-1.259-26.796,1.131-44.578,5.727
		c-37.951,9.806-65.036,30.357-77.121,49.766c-3.923,6.3-6.17,12.34-6.563,17.652c-0.341,4.63,0.77,8.698,3.465,11.793
		c4.293,4.924,12.687,7.978,25.743,7.978c3.672,0,6.65,2.979,6.65,6.651s-2.978,6.651-6.65,6.651
		c-17.257,0-29.02-4.803-35.772-12.555c-5.142-5.904-7.287-13.29-6.684-21.452c0.555-7.476,3.478-15.601,8.537-23.729
		c13.614-21.86,43.564-44.865,85.069-55.587c19.291-4.984,36.81-7.54,49.412-6.089c7.134,0.826,12.985,2.967,17.121,6.666
		c4.634,4.147,6.903,9.81,6.246,17.211c-0.578,6.42-3.5,14.232-9.235,23.612l-2.892,4.732
		c24.709-23.699,49.683-37.849,71.814-31.929c24.488,6.545,25.141,35.179,14.715,71.177c33.114-49.25,69.258-88.995,100.66-86.318
		c32.236,2.745,42.143,23.45,39.613,53.186c-3.291,38.595-29.091,93.184-51.451,140.496c-9.717,20.559-18.778,39.726-24.948,55.414
		c-1.335,3.412-5.187,5.101-8.598,3.766c-3.413-1.335-5.101-5.188-3.767-8.6c6.28-15.974,15.469-35.406,25.318-56.243
		c21.873-46.279,47.106-99.676,50.198-135.926c1.854-21.792-4.994-36.932-27.458-38.844
		c-39.078-3.329-92.185,80.708-132.375,152.711c-16.716,33.781-34.772,65.152-45.272,83.185l-0.55,0.965l-0.007-0.004l-0.021,0.03
		c-1.836,3.167-5.895,4.249-9.061,2.413c-3.156-1.829-4.241-5.87-2.434-9.033l-0.007-0.004c5.145-8.98,11.484-20.8,18.824-34.482
		l0.196-0.343c7.741-14.444,16.565-30.889,26.169-48.07c6.929-13.98,13.628-28.374,19.444-42.381
		c18.476-44.507,28.448-84.629,7.381-90.262c-26.406-7.061-61.33,26.018-93.719,67.765c-10.719,13.818-21.121,28.586-30.854,43.229
		L55.636,343.604L55.636,343.604z"/>
	<g>
		<path d="M556.621,265.894l-0.335-0.322c-14.321-15.058-26.795-17.126-35.944-12.884c-5.457,2.529-9.868,7.273-12.843,12.8
			c-2.965,5.52-4.473,11.746-4.158,17.269c0.349,6.032,3.176,11.197,9.106,12.987C523.449,299.071,539.609,286.212,556.621,265.894
			L556.621,265.894z M516.009,240.785c12.032-5.578,27.509-4.078,44.31,11.643c0.503-3.071,1.103-6.215,1.793-9.414
			c3.837-17.749,10.44-37.426,18.156-56.177c18.96-46.057,46.144-86.729,57.818-83.197c6.431,1.944,8.841,8.301,7.957,17.869
			c-0.696,7.518-3.62,17.763-8.194,29.571c-4.432,11.442-10.479,24.549-17.582,38.191c-13.863,26.625-31.91,55.255-50.2,77.839
			c-0.439,7.192,0.007,13.433,1.567,18.312c2.16,6.757,7.05,10.699,15.573,10.318c15.547-0.703,32.136-20.527,32.182-20.582
			c2.159-2.588,5.773-2.712,8.065-0.274c2.295,2.438,2.404,6.515,0.243,9.103c-0.054,0.066-19.842,23.704-40.042,24.615
			c-14.391,0.648-22.809-6.545-26.742-18.846c-0.944-2.954-1.594-6.212-1.966-9.725c-18.409,19.999-36.248,32.163-49.454,28.173
			c-11.452-3.463-16.891-13.239-17.55-24.641c-0.464-8.067,1.648-16.98,5.813-24.729
			C501.922,251.092,508.178,244.416,516.009,240.785L516.009,240.785z M573.788,243.366c13.229-18.825,26.108-40.369,36.644-60.602
			c6.863-13.173,12.695-25.819,16.962-36.829c4.121-10.641,6.729-19.582,7.297-25.735c0.239-2.621,0.486-4.089,0.444-4.1
			c-6.522-1.969-27.633,35.153-44.501,76.133C583.567,209.399,577.495,227.242,573.788,243.366L573.788,243.366z"/>
		<path d="M632.321,268.403c1.575,1.903,4.213,3.096,7.361,3.679c4.105,0.758,8.925,0.487,13.672-0.578
			c4.804-1.08,9.448-2.961,13.117-5.388c3.477-2.302,5.945-4.967,6.431-7.606c0.326-1.772,0.151-3.151-0.41-4.143
			c-0.432-0.769-1.17-1.457-2.125-2.028c-1.228-0.736-2.769-1.274-4.514-1.596c-5.993-1.109-13.803,0.227-20.649,4.085
			C638.667,258.509,634.37,263.352,632.321,268.403L632.321,268.403z M637.362,284.739c-1.409-0.26-2.774-0.6-4.089-1.029
			c1.047,1.768,2.449,3.43,4.21,4.916c5.296,4.469,13.726,7.434,25.387,7.471c6.321,0.018,16.098-1.42,26.629-5.388
			c7.862-2.961,16.095-7.339,23.509-13.565c2.727-2.284,6.794-1.922,9.079,0.805c2.282,2.727,1.92,6.793-0.807,9.077
			c-8.609,7.229-18.142,12.306-27.244,15.732c-12.118,4.564-23.618,6.222-31.167,6.2c-14.998-0.047-26.262-4.213-33.711-10.501
			c-5.164-4.359-8.531-9.725-10.099-15.486c-1.565-5.779-1.31-11.94,0.758-17.877c2.87-8.224,9.249-15.973,19.085-21.511
			c9.454-5.326,20.544-7.116,29.271-5.498c3.253,0.604,6.248,1.676,8.795,3.206c2.821,1.691,5.129,3.957,6.718,6.772
			c2.019,3.58,2.78,7.858,1.873,12.767c-1.179,6.395-5.734,11.885-11.979,16.025c-4.957,3.276-11.106,5.79-17.402,7.203
			C649.822,285.485,643.201,285.815,637.362,284.739L637.362,284.739z"/>
		<path d="M443.92,263.032c0,0.41-0.039,0.805-0.113,1.197c0.063,0.362,0.098,0.732,0.098,1.105h0.016
			c0,9.693,2.522,18.265,7.109,24.103c1.92,2.438,4.196,4.388,6.778,5.699c2.56,1.296,5.514,2.013,8.817,2.013
			c7.3,0,16.245-3.448,26.582-11.581c2.796-2.196,6.855-1.709,9.051,1.087c2.197,2.796,1.71,6.856-1.087,9.052
			c-12.812,10.08-24.514,14.356-34.545,14.356c-5.356,0-10.263-1.219-14.615-3.426c-4.338-2.2-8.067-5.355-11.12-9.235
			c-2.952-3.755-5.288-8.217-6.946-13.173c-6.207,7.152-14.377,13.049-22.871,17.35c-6.737,3.411-13.773,5.863-20.225,7.156
			c-6.874,1.376-13.242,1.446-18.15,0c-4.313-1.267-7.676-3.664-9.675-7.269l-0.249-0.443c-0.454-0.897-0.864-1.889-1.22-2.943
			l-0.12-0.329c-3.506-10.779,1.051-24.059,8.958-35.728c7.481-11.043,18.16-20.973,27.571-25.739
			c1.575-0.794,3.164-1.475,4.74-2.006l0.337-0.121c4.514-1.468,9.048-2.266,13.335-2.266c5.633,0,10.944,1.343,15.442,4.286
			c4.579,2.998,8.166,7.544,10.223,13.861C443.247,253.764,443.92,258.091,443.92,263.032L443.92,263.032z M431.099,264.119
			c-0.06-0.355-0.091-0.717-0.091-1.087c0-3.602-0.44-6.592-1.223-9.012c-1.078-3.316-2.837-5.622-5.025-7.053
			c-2.27-1.482-5.168-2.163-8.386-2.163c-2.973,0-6.157,0.567-9.35,1.607l-0.268,0.08c-0.921,0.315-1.929,0.754-2.995,1.292
			c-7.61,3.854-16.409,12.126-22.726,21.449c-5.887,8.689-9.481,17.975-7.345,24.534l0.064,0.22
			c0.128,0.355,0.303,0.761,0.519,1.186l0.073,0.143c0.287,0.41,0.985,0.772,1.981,1.061c2.91,0.857,7.137,0.725,12.003-0.249
			c5.29-1.061,11.182-3.133,16.941-6.05C416.857,284.21,427.584,275.06,431.099,264.119L431.099,264.119z"/>
	</g>
</g>
<g id="TEXT">
	<g>
	</g>
	<g>
	</g>
	<g>
	</g>
	<g>
	</g>
	<g>
	</g>
	<g>
	</g>
	<g>
	</g>
	<g>
	</g>
	<g>
	</g>
	<g>
	</g>
	<g>
	</g>
	<g>
	</g>
	<g>
	</g>
	<g>
	</g>
	<g>
	</g>
	<g>
	</g>
</g>
</svg>
