<?xml version="1.0" encoding="utf-8"?>
<!-- Generator: Adobe Illustrator 17.0.0, SVG Export Plug-In . SVG Version: 6.00 Build 0)  -->
<!DOCTYPE svg PUBLIC "-//W3C//DTD SVG 1.1//EN" "http://www.w3.org/Graphics/SVG/1.1/DTD/svg11.dtd">
<svg version="1.1" id="Layer_1" xmlns="http://www.w3.org/2000/svg" xmlns:xlink="http://www.w3.org/1999/xlink" x="0px" y="0px"
	 width="1000px" height="100px" viewBox="0 0 1000 100" enable-background="new 0 0 1000 100" xml:space="preserve">
<path fill="#010101" d="M263.555,92.991c-0.68,0-1.294-0.375-1.599-0.98l-39.157-77.38l-1.894,0.45v76.118
	c0,0.989-0.802,1.791-1.791,1.791s-1.791-0.802-1.791-1.791V9.524c0-0.989,0.802-1.791,1.791-1.791h3.306
	c0.68,0,1.294,0.38,1.604,0.989l38.88,77.371l1.894-0.45V9.524c0-0.989,0.802-1.791,1.791-1.791c0.989,0,1.791,0.802,1.791,1.791
	v81.675c0,0.989-0.802,1.791-1.791,1.791L263.555,92.991L263.555,92.991z"/>
<path fill="#010101" d="M135.669,93.61c-3.77,0-7.386-0.647-10.743-1.927c-3.358-1.276-6.331-3.058-8.835-5.294
	c-2.495-2.223-4.478-4.905-5.904-7.967c-1.421-3.048-2.138-6.406-2.138-9.984V32.282c0-3.578,0.722-6.936,2.138-9.988
	c1.421-3.057,3.409-5.74,5.904-7.967c2.504-2.232,5.477-4.019,8.835-5.294c3.367-1.28,6.983-1.932,10.743-1.932
	c3.761,0,7.376,0.647,10.743,1.932c3.358,1.28,6.326,3.057,8.835,5.294c2.49,2.227,4.478,4.905,5.904,7.967
	c1.421,3.053,2.143,6.41,2.143,9.988v36.155c0,3.573-0.722,6.936-2.143,9.984c-1.426,3.062-3.409,5.74-5.904,7.967
	c-2.509,2.237-5.477,4.019-8.835,5.294C143.055,92.963,139.44,93.61,135.669,93.61z M135.669,10.087
	c-3.268,0-6.392,0.549-9.285,1.623c-2.898,1.079-5.472,2.612-7.648,4.553c-2.19,1.956-3.939,4.328-5.201,7.058
	c-1.266,2.734-1.909,5.749-1.909,8.957v36.155c0,3.208,0.642,6.223,1.909,8.961c1.262,2.729,3.011,5.102,5.201,7.058
	c2.181,1.946,4.755,3.48,7.648,4.553c2.884,1.074,6.012,1.623,9.285,1.623c3.273,0,6.401-0.549,9.285-1.623
	c2.893-1.074,5.468-2.607,7.648-4.553c2.185-1.951,3.934-4.324,5.201-7.058c1.266-2.743,1.909-5.754,1.909-8.961V32.277
	c0-3.203-0.642-6.218-1.909-8.957c-1.262-2.734-3.015-5.107-5.201-7.058c-2.176-1.946-4.75-3.475-7.648-4.553
	C142.066,10.635,138.943,10.087,135.669,10.087z"/>
<path fill="#010101" d="M972.366,93.61c-3.77,0-7.386-0.647-10.744-1.927c-3.362-1.28-6.331-3.062-8.835-5.294
	c-2.5-2.227-4.483-4.868-5.909-7.85c-1.018-2.129-1.679-4.38-1.965-6.682c-0.056-0.445,0.084-0.886,0.389-1.233
	c0.314-0.361,0.769-0.563,1.243-0.563h0.323c0.825,0,1.505,0.614,1.609,1.468c0.258,2.068,0.854,4.07,1.763,5.951
	c1.257,2.593,3.006,4.9,5.191,6.856c2.176,1.941,4.746,3.494,7.639,4.61c2.898,1.121,6.026,1.688,9.299,1.688
	s6.396-0.549,9.285-1.623c2.893-1.074,5.468-2.607,7.648-4.553c2.185-1.951,3.934-4.324,5.196-7.058
	c1.266-2.743,1.909-5.759,1.909-8.961c0-2.739-0.657-5.276-1.951-7.541c-1.271-2.227-3.025-4.216-5.215-5.904
	c-2.157-1.669-4.703-3.1-7.569-4.253c-2.832-1.14-5.904-2.016-9.125-2.612c-3.179-0.567-6.185-1.426-8.947-2.56
	c-2.739-1.121-5.191-2.537-7.297-4.22c-2.077-1.655-3.728-3.587-4.91-5.745c-1.168-2.124-1.759-4.502-1.759-7.062
	c0-3.081,0.605-5.96,1.796-8.558c1.196-2.612,2.832-4.896,4.868-6.79c2.035-1.899,4.464-3.404,7.222-4.474
	c2.757-1.069,5.735-1.613,8.854-1.613c4.572,0,8.863,0.952,12.76,2.832c2.86,1.383,5.379,3.114,7.484,5.154
	c0.342,0.333,0.506,0.802,0.45,1.285c-0.061,0.52-0.352,0.971-0.802,1.238c-0.253,0.15-0.544,0.23-0.839,0.23
	c-0.422,0-0.811-0.159-1.097-0.45c-1.955-1.974-4.277-3.625-6.903-4.9c-3.287-1.599-7.006-2.406-11.048-2.406
	c-2.622,0-5.116,0.441-7.409,1.313c-2.298,0.877-4.357,2.138-6.115,3.752c-1.777,1.632-3.175,3.616-4.155,5.89
	c-0.98,2.274-1.477,4.802-1.477,7.503c0,2.265,0.591,4.352,1.758,6.204c1.13,1.801,2.645,3.423,4.507,4.816
	c1.833,1.379,3.986,2.537,6.392,3.442c2.378,0.891,4.882,1.562,7.447,1.984c3.817,0.567,7.404,1.552,10.669,2.926
	c3.24,1.369,6.087,3.095,8.464,5.135c2.359,2.031,4.225,4.361,5.557,6.936c1.318,2.546,1.984,5.388,1.984,8.455
	c0,3.573-0.718,6.931-2.138,9.984c-1.426,3.058-3.409,5.74-5.904,7.967c-2.509,2.237-5.477,4.019-8.835,5.294
	C979.748,92.963,976.137,93.61,972.366,93.61z"/>
<path fill="#010101" d="M357.987,92.991c-0.821,0-1.491-0.666-1.491-1.491V14.209c0-1.927-1.566-3.494-3.494-3.494h-20.844
	c-0.821,0-1.491-0.666-1.491-1.491c0-0.821,0.666-1.491,1.491-1.491h52.264c0.821,0,1.491,0.671,1.491,1.491
	c0,0.821-0.666,1.491-1.491,1.491h-20.844c-1.927,0-3.494,1.571-3.494,3.494V91.5c0,0.821-0.666,1.491-1.491,1.491H357.987z"/>
<path fill="#010101" d="M689.851,92.991c-0.821,0-1.491-0.666-1.491-1.491V14.209c0-1.927-1.566-3.494-3.494-3.494h-20.844
	c-0.821,0-1.491-0.666-1.491-1.491c0-0.821,0.666-1.491,1.491-1.491h52.263c0.821,0,1.491,0.671,1.491,1.491
	c0,0.821-0.666,1.491-1.491,1.491h-20.844c-1.927,0-3.494,1.571-3.494,3.494V91.5c0,0.821-0.666,1.491-1.491,1.491H689.851z"/>
<path fill="#010101" d="M858.592,93.61c-3.77,0-7.386-0.647-10.744-1.927c-3.358-1.28-6.335-3.058-8.835-5.294
	c-2.495-2.227-4.483-4.905-5.904-7.967c-1.421-3.048-2.143-6.41-2.143-9.984V9.519c0-0.989,0.802-1.791,1.791-1.791
	c0.99,0,1.791,0.802,1.791,1.791v58.918c0,3.208,0.643,6.223,1.909,8.962c1.257,2.725,3.011,5.102,5.201,7.058
	c2.181,1.946,4.755,3.48,7.648,4.553c2.884,1.074,6.012,1.623,9.285,1.623s6.401-0.549,9.285-1.623
	c2.893-1.074,5.468-2.607,7.648-4.553c2.185-1.951,3.934-4.324,5.201-7.058c1.266-2.743,1.909-5.759,1.909-8.961V9.519
	c0-0.989,0.802-1.791,1.791-1.791c0.99,0,1.791,0.802,1.791,1.791v58.918c0,3.573-0.718,6.931-2.138,9.984
	c-1.426,3.058-3.409,5.74-5.904,7.967c-2.504,2.237-5.477,4.019-8.83,5.294C865.978,92.963,862.363,93.61,858.592,93.61z"/>
<path fill="#010101" d="M53.286,69.469c-0.905,0-1.665,0.699-1.768,1.618c-0.253,2.227-0.849,4.356-1.763,6.34
	c-1.261,2.729-3.011,5.102-5.201,7.058c-2.181,1.946-4.755,3.48-7.648,4.553c-2.884,1.074-6.012,1.623-9.285,1.623
	s-6.401-0.549-9.285-1.623c-2.893-1.074-5.468-2.607-7.648-4.553c-2.185-1.951-3.934-4.324-5.201-7.058
	c-1.266-2.743-1.909-5.754-1.909-8.961V52.399V32.324c0-3.203,0.642-6.218,1.909-8.961c1.261-2.734,3.015-5.107,5.201-7.058
	c2.181-1.946,4.75-3.48,7.648-4.553c2.884-1.074,6.012-1.623,9.285-1.623s6.401,0.549,9.285,1.623
	c2.893,1.079,5.468,2.607,7.648,4.553c2.19,1.956,3.939,4.328,5.201,7.058c0.914,1.979,1.505,4.113,1.763,6.34
	c0.103,0.924,0.863,1.618,1.768,1.618c0.516,0,1.013-0.22,1.36-0.61c0.338-0.38,0.492-0.858,0.436-1.351
	c-0.286-2.467-0.952-4.83-1.974-7.025c-1.421-3.062-3.409-5.74-5.904-7.967c-2.504-2.237-5.477-4.019-8.835-5.294
	c-3.358-1.28-6.973-1.927-10.743-1.927S20.24,7.794,16.882,9.074c-3.358,1.276-6.326,3.057-8.835,5.294
	c-2.49,2.223-4.478,4.905-5.904,7.967C0.736,25.355,0.019,28.69,0,32.324v19.508v1.28v15.353c0.014,3.634,0.736,6.964,2.143,9.988
	c1.426,3.062,3.409,5.74,5.904,7.967c2.509,2.237,5.477,4.019,8.835,5.294c3.358,1.28,6.973,1.927,10.743,1.927
	s7.386-0.647,10.743-1.927c3.358-1.28,6.331-3.058,8.835-5.294c2.495-2.223,4.478-4.905,5.904-7.967
	c1.022-2.19,1.683-4.553,1.974-7.025c0.056-0.492-0.098-0.971-0.436-1.351C54.299,69.689,53.802,69.469,53.286,69.469z"/>
<path fill="#010101" d="M603.478,69.469c-0.905,0-1.665,0.699-1.768,1.618c-0.253,2.227-0.849,4.356-1.763,6.34
	c-1.261,2.729-3.011,5.102-5.201,7.058c-2.181,1.946-4.755,3.48-7.648,4.553c-2.884,1.074-6.012,1.623-9.285,1.623
	s-6.401-0.549-9.285-1.623c-2.893-1.074-5.468-2.607-7.648-4.553c-2.185-1.951-3.934-4.324-5.201-7.058
	c-1.266-2.743-1.909-5.754-1.909-8.961V52.399V32.324c0-3.203,0.642-6.218,1.909-8.961c1.261-2.734,3.015-5.107,5.201-7.058
	c2.181-1.946,4.75-3.48,7.648-4.553c2.884-1.074,6.012-1.623,9.285-1.623s6.401,0.549,9.285,1.623
	c2.893,1.079,5.468,2.607,7.648,4.553c2.19,1.956,3.939,4.328,5.201,7.058c0.914,1.979,1.505,4.113,1.763,6.34
	c0.103,0.924,0.863,1.618,1.768,1.618c0.516,0,1.013-0.22,1.36-0.61c0.338-0.38,0.492-0.858,0.436-1.351
	c-0.286-2.467-0.952-4.83-1.974-7.025c-1.421-3.062-3.409-5.74-5.904-7.967c-2.504-2.237-5.477-4.019-8.835-5.294
	c-3.358-1.28-6.973-1.927-10.743-1.927c-3.77,0-7.386,0.647-10.743,1.927c-3.358,1.276-6.326,3.057-8.835,5.294
	c-2.49,2.223-4.478,4.905-5.904,7.967c-1.407,3.02-2.124,6.354-2.143,9.988v19.508v1.28v15.353c0.014,3.634,0.736,6.964,2.143,9.988
	c1.426,3.062,3.409,5.74,5.904,7.967c2.509,2.237,5.477,4.019,8.835,5.294c3.358,1.28,6.973,1.927,10.743,1.927
	c3.77,0,7.386-0.647,10.743-1.927c3.358-1.28,6.331-3.058,8.835-5.294c2.495-2.223,4.478-4.905,5.904-7.967
	c1.022-2.19,1.683-4.553,1.974-7.025c0.056-0.492-0.098-0.971-0.436-1.351C604.49,69.689,603.993,69.469,603.478,69.469z"/>
<path fill="#010101" d="M488.972,90.848l-21.839-79.818c-0.53-1.946-2.312-3.301-4.328-3.301s-3.798,1.355-4.328,3.301
	l-21.839,79.818c-0.141,0.516-0.038,1.05,0.286,1.472c0.324,0.422,0.816,0.666,1.346,0.666c0.76,0,1.43-0.511,1.632-1.243
	l21.046-76.672c0.23-0.849,0.975-1.416,1.852-1.416c0.877,0,1.623,0.567,1.852,1.416l11.606,42.519l0.849,2.982l8.591,31.17
	c0.202,0.732,0.872,1.243,1.632,1.243c0.535,0,1.022-0.239,1.346-0.666C489.01,91.898,489.113,91.364,488.972,90.848z"/>
<g>
</g>
<g>
</g>
<g>
</g>
<g>
</g>
<g>
</g>
<g>
</g>
</svg>
