<?xml version="1.0" encoding="utf-8"?>
<!-- Generator: Adobe Illustrator 17.0.0, SVG Export Plug-In . SVG Version: 6.00 Build 0)  -->
<!DOCTYPE svg PUBLIC "-//W3C//DTD SVG 1.1//EN" "http://www.w3.org/Graphics/SVG/1.1/DTD/svg11.dtd">
<svg version="1.1" id="Layer_1" xmlns="http://www.w3.org/2000/svg" xmlns:xlink="http://www.w3.org/1999/xlink" x="0px" y="0px"
	 width="1000px" height="100px" viewBox="0 0 1000 100" enable-background="new 0 0 1000 100" xml:space="preserve">
<g>
	<path fill="#010101" d="M302.94,90.848l-21.839-79.818c-0.53-1.946-2.312-3.301-4.328-3.301s-3.798,1.355-4.328,3.301
		l-21.839,79.818c-0.141,0.516-0.038,1.05,0.286,1.472c0.324,0.422,0.816,0.666,1.346,0.666c0.76,0,1.43-0.511,1.632-1.243
		l21.046-76.672c0.23-0.849,0.975-1.416,1.852-1.416c0.877,0,1.623,0.567,1.852,1.416l11.606,42.519l0.849,2.982l8.591,31.17
		c0.202,0.732,0.872,1.243,1.632,1.243c0.535,0,1.022-0.239,1.346-0.666C302.978,91.898,303.081,91.364,302.94,90.848z"/>
	<g>
		<path fill="#010101" d="M585.795,11.626c0,0.807,0.651,1.459,1.459,1.459h41.167c0.803,0,1.459-0.651,1.459-1.459
			c0-0.803-0.656-1.459-1.459-1.459h-41.167C586.451,10.167,585.795,10.818,585.795,11.626L585.795,11.626z"/>
		<path fill="#010101" d="M630.045,50.453c0-0.803-0.656-1.459-1.459-1.459h-41.332c-0.807,0-1.459,0.651-1.459,1.459l0,0
			c0,0.807,0.651,1.459,1.459,1.459h41.332C629.389,51.907,630.045,51.255,630.045,50.453z"/>
		<path fill="#010101" d="M628.425,90.66h-41.171c-0.807,0-1.459,0.651-1.459,1.459l0,0c0,0.807,0.651,1.459,1.459,1.459h41.167
			c0.803,0,1.459-0.651,1.459-1.459C629.88,91.312,629.228,90.66,628.425,90.66z"/>
	</g>
	<path fill="#010101" d="M371.429,92.047c-0.803,0-1.459-0.651-1.459-1.459V10.094c0-0.803,0.656-1.459,1.459-1.459h0.587
		c0.803,0,1.459,0.656,1.459,1.459v75.616c0,1.886,1.532,3.418,3.418,3.418h36.102c0.803,0,1.459,0.656,1.459,1.459
		s-0.656,1.459-1.459,1.459C412.994,92.047,371.429,92.047,371.429,92.047z"/>
	<path fill="#010101" d="M475.376,92.047c-0.803,0-1.459-0.651-1.459-1.459V10.094c0-0.803,0.656-1.459,1.459-1.459h0.587
		c0.803,0,1.459,0.656,1.459,1.459v75.616c0,1.886,1.532,3.418,3.418,3.418h36.102c0.803,0,1.459,0.656,1.459,1.459
		s-0.656,1.459-1.459,1.459C516.941,92.047,475.376,92.047,475.376,92.047z"/>
	<path fill="#010101" d="M836.481,92.047c-0.945,0-1.711-0.766-1.711-1.711v-38.62c0-0.573-0.138-1.147-0.395-1.656l-19.723-38.941
		c-0.275-0.541-0.248-1.152,0.069-1.67c0.321-0.518,0.849-0.817,1.459-0.817h0.248c0.652,0,1.234,0.358,1.528,0.941l15.291,30.344
		c0.629,1.243,1.881,2.019,3.276,2.019c1.395,0,2.652-0.771,3.276-2.019l15.296-30.344c0.294-0.578,0.881-0.941,1.528-0.941
		c0.606,0,1.138,0.294,1.454,0.812c0.321,0.518,0.344,1.124,0.078,1.665l-19.489,38.96c-0.252,0.509-0.39,1.078-0.39,1.642V90.34
		c0,0.945-0.766,1.711-1.711,1.711L836.481,92.047L836.481,92.047z"/>
	<path fill="#010101" d="M745.941,90.106L719.68,46.921h7.423c2.959,0,5.781-0.509,8.391-1.519c2.606-1.009,4.918-2.404,6.872-4.147
		c1.941-1.734,3.496-3.785,4.62-6.102c1.115-2.298,1.679-4.574,1.679-6.772c0-3-0.564-5.689-1.679-7.987
		c-1.124-2.317-2.679-4.368-4.62-6.102c-1.95-1.739-4.262-3.133-6.872-4.147c-2.61-1.009-5.432-1.519-8.391-1.519h-26.137
		c-0.817,0-1.482,0.665-1.482,1.482l0,0c0,0.821,0.661,1.486,1.486,1.482c5.115-0.028,26.137-0.05,26.137-0.05
		c2.477,0,4.826,0.436,6.987,1.289c2.143,0.849,4.051,2.019,5.689,3.473c1.633,1.464,2.95,3.184,3.913,5.111
		c0.973,1.959,1.468,4.299,1.468,6.96c0,1.853-0.495,3.785-1.468,5.744c-0.963,1.931-2.28,3.652-3.913,5.111
		c-1.629,1.454-3.542,2.624-5.684,3.473c-2.152,0.853-4.501,1.289-6.987,1.289h-8.864c-1.184,0-2.184,0.931-2.221,2.115
		c-0.028,0.895,0.271,1.775,0.835,2.473l25.361,42.079c1.34,1.34,2.597,1.381,2.734,1.381h0.06c0.473,0,0.876-0.252,1.078-0.679
		C746.294,90.946,746.239,90.473,745.941,90.106z"/>
	<path fill="#010101" d="M195.159,49.187h-24.458c-0.807,0-1.459,0.651-1.459,1.459l0,0c0,0.807,0.651,1.459,1.459,1.459h18.994
		c1.886,0,3.418,1.532,3.418,3.418v12.502c0,3.133-0.629,6.083-1.867,8.767c-1.234,2.675-2.95,4.996-5.088,6.905
		c-2.133,1.904-4.647,3.404-7.483,4.455c-2.826,1.051-5.882,1.587-9.084,1.587c-3.202,0-6.258-0.537-9.084-1.587
		c-2.831-1.051-5.349-2.551-7.483-4.455c-2.143-1.913-3.854-4.235-5.088-6.905c-1.239-2.679-1.867-5.629-1.867-8.767V32.694
		c0-3.133,0.629-6.083,1.867-8.767c1.234-2.675,2.95-4.996,5.088-6.905c2.133-1.904,4.647-3.404,7.483-4.455
		c2.826-1.051,5.882-1.587,9.084-1.587c3.202,0,6.258,0.537,9.084,1.587c2.831,1.051,5.349,2.551,7.483,4.455
		c2.143,1.913,3.854,4.235,5.088,6.905c0.895,1.936,1.473,4.024,1.725,6.203c0.101,0.904,0.844,1.583,1.73,1.583
		c0.505,0,0.991-0.216,1.33-0.596c0.33-0.372,0.482-0.84,0.427-1.321c-0.28-2.413-0.931-4.725-1.931-6.873
		c-1.39-2.996-3.335-5.615-5.776-7.795c-2.45-2.188-5.359-3.932-8.643-5.18c-3.285-1.252-6.822-1.886-10.511-1.886
		c-3.689,0-7.226,0.633-10.511,1.886c-3.285,1.248-6.189,2.991-8.643,5.18c-2.436,2.175-4.381,4.799-5.776,7.795
		c-1.376,2.955-2.078,6.217-2.097,9.767V68.02c0,3.501,0.707,6.79,2.092,9.767c1.39,2.996,3.335,5.615,5.776,7.795
		c2.45,2.188,5.359,3.932,8.643,5.18c3.285,1.252,6.822,1.886,10.511,1.886s7.226-0.633,10.511-1.886
		c3.285-1.248,6.189-2.991,8.643-5.18c2.436-2.175,4.381-4.799,5.776-7.795c1.39-2.987,2.097-6.272,2.097-9.767V50.641
		C196.618,49.839,195.967,49.187,195.159,49.187z"/>
</g>
<g>
</g>
<g>
</g>
<g>
</g>
<g>
</g>
<g>
</g>
<g>
</g>
</svg>
