<?xml version="1.0" encoding="utf-8"?>
<!-- Generator: Adobe Illustrator 17.0.0, SVG Export Plug-In . SVG Version: 6.00 Build 0)  -->
<!DOCTYPE svg PUBLIC "-//W3C//DTD SVG 1.1//EN" "http://www.w3.org/Graphics/SVG/1.1/DTD/svg11.dtd">
<svg version="1.1" id="Layer_1" xmlns="http://www.w3.org/2000/svg" xmlns:xlink="http://www.w3.org/1999/xlink" x="0px" y="0px"
	 width="1000px" height="100px" viewBox="0 0 1000 100" enable-background="new 0 0 1000 100" xml:space="preserve">
<path fill="#010101" d="M446.824,92.987c-3.689,0-7.226-0.633-10.511-1.886c-3.285-1.248-6.194-2.991-8.643-5.18
	c-2.441-2.175-4.381-4.799-5.776-7.795c-1.39-2.982-2.092-6.267-2.092-9.767V32.987c0-3.501,0.706-6.785,2.092-9.772
	c1.39-2.991,3.335-5.615,5.776-7.795c2.45-2.184,5.359-3.932,8.643-5.18c3.294-1.252,6.831-1.89,10.511-1.89
	c3.679,0,7.217,0.633,10.511,1.89c3.285,1.252,6.189,2.991,8.643,5.18c2.436,2.179,4.381,4.799,5.776,7.795
	c1.39,2.987,2.097,6.272,2.097,9.772V68.36c0,3.496-0.706,6.785-2.097,9.767c-1.395,2.996-3.335,5.615-5.776,7.795
	c-2.454,2.188-5.359,3.932-8.643,5.18C454.05,92.354,450.513,92.987,446.824,92.987z M446.824,11.273
	c-3.198,0-6.253,0.537-9.084,1.587c-2.835,1.055-5.354,2.555-7.483,4.455c-2.143,1.913-3.854,4.235-5.088,6.905
	c-1.239,2.675-1.867,5.625-1.867,8.763v35.372c0,3.138,0.628,6.088,1.867,8.767c1.234,2.67,2.945,4.992,5.088,6.905
	c2.133,1.904,4.652,3.404,7.483,4.455c2.826,1.051,5.882,1.587,9.084,1.587c3.202,0,6.262-0.537,9.084-1.587
	c2.831-1.051,5.349-2.551,7.483-4.455c2.138-1.909,3.849-4.23,5.088-6.905c1.239-2.684,1.867-5.629,1.867-8.767V32.983
	c0-3.133-0.629-6.083-1.867-8.763c-1.234-2.675-2.95-4.996-5.088-6.905c-2.129-1.904-4.647-3.4-7.483-4.455
	C453.077,11.81,450.022,11.273,446.824,11.273z"/>
<path fill="#010101" d="M358.999,92.377c-0.968,0-1.753-0.785-1.753-1.753V52.431h-47.039v38.194c0,0.968-0.784,1.753-1.753,1.753
	c-0.968,0-1.753-0.785-1.753-1.753V10.718c0-0.968,0.785-1.753,1.753-1.753s1.753,0.785,1.753,1.753v38.799h47.039V10.718
	c0-0.968,0.785-1.753,1.753-1.753c0.968,0,1.753,0.785,1.753,1.753v79.906C360.752,91.592,359.967,92.377,358.999,92.377z"/>
<path fill="#010101" d="M592.479,92.377c-0.968,0-1.753-0.785-1.753-1.753V20.747c0-1.574-1.285-2.51-2.523-2.51
	c-0.844,0-1.601,0.408-2.074,1.129l-22.279,33.707c-0.619,0.941-1.661,1.496-2.785,1.496c-1.124,0-2.165-0.56-2.785-1.496
	l-22.278-33.707c-0.473-0.716-1.23-1.129-2.074-1.129c-1.243,0-2.523,0.941-2.523,2.51v69.877c0,0.968-0.785,1.753-1.753,1.753
	s-1.753-0.785-1.753-1.753V10.718c0-0.968,0.785-1.753,1.753-1.753h2.491c0.592,0,1.138,0.294,1.464,0.789l27.467,41.598
	l27.467-41.598c0.326-0.495,0.872-0.789,1.464-0.789h2.491c0.968,0,1.753,0.785,1.753,1.753v79.906
	C594.232,91.592,593.447,92.377,592.479,92.377z"/>
<g>
	<path fill="#010101" d="M649.54,10.425c0,0.807,0.651,1.459,1.459,1.459h41.167c0.803,0,1.459-0.651,1.459-1.459
		c0-0.803-0.656-1.459-1.459-1.459h-41.167C650.197,8.966,649.54,9.617,649.54,10.425L649.54,10.425z"/>
	<path fill="#010101" d="M693.79,49.251c0-0.803-0.656-1.459-1.459-1.459h-41.332c-0.807,0-1.459,0.651-1.459,1.459l0,0
		c0,0.807,0.651,1.459,1.459,1.459h41.332C693.134,50.706,693.79,50.054,693.79,49.251z"/>
	<path fill="#010101" d="M692.17,89.459h-41.171c-0.807,0-1.459,0.651-1.459,1.459l0,0c0,0.807,0.651,1.459,1.459,1.459h41.167
		c0.803,0,1.459-0.651,1.459-1.459C693.625,90.11,692.973,89.459,692.17,89.459z"/>
</g>
<g>
</g>
<g>
</g>
<g>
</g>
<g>
</g>
<g>
</g>
<g>
</g>
</svg>
