<?xml version="1.0" encoding="utf-8"?>
<!-- Generator: Adobe Illustrator 17.0.0, SVG Export Plug-In . SVG Version: 6.00 Build 0)  -->
<!DOCTYPE svg PUBLIC "-//W3C//DTD SVG 1.1//EN" "http://www.w3.org/Graphics/SVG/1.1/DTD/svg11.dtd">
<svg version="1.1" id="Blueprint" xmlns="http://www.w3.org/2000/svg" xmlns:xlink="http://www.w3.org/1999/xlink" x="0px" y="0px"
	 width="1200px" height="1200px" viewBox="0 0 1200 1200" enable-background="new 0 0 1200 1200" xml:space="preserve">
<g>
	<g>
		<polyline fill="none" stroke="#000000" stroke-width="3" stroke-miterlimit="10" points="1085.823,240.955 1085.823,146.021 
			993.856,146.021 		"/>
		
			<line fill="none" stroke="#000000" stroke-width="3" stroke-miterlimit="10" x1="1085.823" y1="562.014" x2="1085.823" y2="361.161"/>
		<polyline fill="none" stroke="#000000" stroke-width="3" stroke-miterlimit="10" points="1006.872,784.165 1085.823,784.165 
			1085.823,682.221 		"/>
		
			<line fill="none" stroke="#000000" stroke-width="3" stroke-miterlimit="10" x1="880.581" y1="784.165" x2="921.67" y2="784.165"/>
		<line fill="none" stroke="#000000" stroke-width="3" stroke-miterlimit="10" x1="260.13" y1="784.165" x2="301.21" y2="784.165"/>
		<polyline fill="none" stroke="#000000" stroke-width="3" stroke-miterlimit="10" points="95.977,663.958 95.977,784.165 
			174.919,784.165 		"/>
		<line fill="none" stroke="#000000" stroke-width="3" stroke-miterlimit="10" x1="95.977" y1="368.77" x2="95.977" y2="543.757"/>
		<polyline fill="none" stroke="#000000" stroke-width="3" stroke-miterlimit="10" points="187.944,146.021 95.977,146.021 
			95.977,292.689 		"/>
		
			<line fill="none" stroke="#000000" stroke-width="3" stroke-miterlimit="10" x1="808.395" y1="146.021" x2="373.399" y2="146.021"/>
		<polyline fill="none" stroke="#000000" stroke-width="3" stroke-miterlimit="10" points="664.651,825.915 716.43,825.915 
			716.43,784.165 795.373,784.165 		"/>
		<polyline fill="none" stroke="#000000" stroke-width="3" stroke-miterlimit="10" points="465.202,784.165 465.202,825.915 
			516.979,825.915 		"/>
		<path fill="none" stroke="#000000" stroke-miterlimit="10" d="M516.979,825.805v-77.4c0,0,64.624,1.56,73.837,61.247v16.152
			H516.979z"/>
		<path fill="none" stroke="#000000" stroke-miterlimit="10" d="M664.651,825.805v-77.4c0,0-64.619,1.56-73.835,61.247v16.152
			H664.651z"/>
		
			<line fill="none" stroke="#000000" stroke-width="3" stroke-miterlimit="10" x1="465.367" y1="784.165" x2="465.367" y2="603.09"/>
		<line fill="none" stroke="#000000" stroke-width="3" stroke-miterlimit="10" x1="716.43" y1="603.098" x2="716.43" y2="784.165"/>
		<polyline fill="none" stroke="#000000" stroke-width="3" stroke-miterlimit="10" points="550.602,240.955 465.367,240.955 
			465.367,547.549 		"/>
		<polyline fill="none" stroke="#000000" stroke-width="3" stroke-miterlimit="10" points="606.139,240.955 716.43,240.955 
			716.43,547.557 		"/>
		<g>
			<path fill="none" stroke="#000000" stroke-miterlimit="10" d="M716.43,548.096c0,0,50.286-0.548,53.572,54.993H716.43"/>
			<g>
				<g>
					
						<line fill="none" stroke="#000000" stroke-linecap="round" stroke-linejoin="round" x1="716.43" y1="605.513" x2="716.43" y2="605.013"/>
					
						<line fill="none" stroke="#000000" stroke-linecap="round" stroke-linejoin="round" stroke-dasharray="0.9954,1.9908" x1="716.43" y1="603.022" x2="716.43" y2="547.28"/>
					
						<line fill="none" stroke="#000000" stroke-linecap="round" stroke-linejoin="round" x1="716.43" y1="546.284" x2="716.43" y2="545.784"/>
				</g>
			</g>
		</g>
		<g>
			<path fill="none" stroke="#000000" stroke-miterlimit="10" d="M550.538,240.955c0,0-0.546,50.287,54.995,53.57v-53.57"/>
			<g>
				<g>
					
						<line fill="none" stroke="#000000" stroke-linecap="round" stroke-linejoin="round" x1="607.953" y1="240.955" x2="607.453" y2="240.955"/>
					
						<line fill="none" stroke="#000000" stroke-linecap="round" stroke-linejoin="round" stroke-dasharray="0.9953,1.9907" x1="605.462" y1="240.955" x2="549.724" y2="240.955"/>
					
						<line fill="none" stroke="#000000" stroke-linecap="round" stroke-linejoin="round" x1="548.729" y1="240.955" x2="548.229" y2="240.955"/>
				</g>
			</g>
		</g>
		<g>
			<path fill="none" stroke="#000000" stroke-miterlimit="10" d="M465.367,548.096c0,0-50.286-0.548-53.571,54.993h53.571"/>
			<g>
				<g>
					
						<line fill="none" stroke="#000000" stroke-linecap="round" stroke-linejoin="round" x1="465.367" y1="605.513" x2="465.367" y2="605.013"/>
					
						<line fill="none" stroke="#000000" stroke-linecap="round" stroke-linejoin="round" stroke-dasharray="0.9954,1.9908" x1="465.367" y1="603.022" x2="465.367" y2="547.28"/>
					
						<line fill="none" stroke="#000000" stroke-linecap="round" stroke-linejoin="round" x1="465.367" y1="546.284" x2="465.367" y2="545.784"/>
				</g>
			</g>
		</g>
		
			<line fill="none" stroke="#000000" stroke-width="3" stroke-miterlimit="10" x1="770.002" y1="461.586" x2="716.43" y2="461.586"/>
		
			<line fill="none" stroke="#000000" stroke-width="3" stroke-miterlimit="10" x1="1085.823" y1="461.586" x2="1032.252" y2="461.586"/>
		<rect x="921.67" y="779.856" fill="none" stroke="#000000" stroke-miterlimit="10" width="85.202" height="8.624"/>
		<rect x="1081.509" y="562.014" fill="none" stroke="#000000" stroke-miterlimit="10" width="8.624" height="120.207"/>
		<rect x="1081.509" y="240.955" fill="none" stroke="#000000" stroke-miterlimit="10" width="8.624" height="120.205"/>
		<rect x="808.395" y="141.708" fill="none" stroke="#000000" stroke-miterlimit="10" width="185.461" height="8.624"/>
		<rect x="187.944" y="141.708" fill="none" stroke="#000000" stroke-miterlimit="10" width="185.455" height="8.624"/>
		<rect x="795.373" y="779.856" fill="none" stroke="#000000" stroke-miterlimit="10" width="85.208" height="8.624"/>
		<rect x="301.21" y="779.856" fill="none" stroke="#000000" stroke-miterlimit="10" width="85.21" height="8.624"/>
		<rect x="91.662" y="543.757" fill="none" stroke="#000000" stroke-miterlimit="10" width="8.625" height="120.964"/>
		<rect x="91.662" y="292.692" fill="none" stroke="#000000" stroke-miterlimit="10" width="8.625" height="76.08"/>
		<rect x="174.919" y="779.856" fill="none" stroke="#000000" stroke-miterlimit="10" width="85.212" height="8.624"/>
		
			<line fill="none" stroke="#000000" stroke-width="3" stroke-miterlimit="10" x1="386.421" y1="784.165" x2="461.67" y2="784.165"/>
		<line fill="none" stroke="#000000" stroke-width="3" stroke-miterlimit="10" x1="465.367" y1="420.58" x2="716.43" y2="420.58"/>
		
			<line fill="none" stroke="#000000" stroke-width="3" stroke-miterlimit="10" x1="100.288" y1="467.777" x2="318.525" y2="467.777"/>
		<polyline fill="none" stroke="#000000" stroke-width="2" stroke-miterlimit="10" points="529.926,527.994 529.926,486.071 
			651.869,486.071 651.869,527.994 		"/>
		<line fill="none" stroke="#000000" stroke-miterlimit="10" x1="651.869" y1="511.991" x2="716.43" y2="511.991"/>
		<line fill="none" stroke="#000000" stroke-miterlimit="10" x1="651.869" y1="502.839" x2="716.43" y2="502.839"/>
		<line fill="none" stroke="#000000" stroke-miterlimit="10" x1="651.869" y1="493.692" x2="716.43" y2="493.692"/>
		<line fill="none" stroke="#000000" stroke-miterlimit="10" x1="465.202" y1="511.991" x2="529.761" y2="511.991"/>
		<line fill="none" stroke="#000000" stroke-miterlimit="10" x1="465.202" y1="502.839" x2="529.761" y2="502.839"/>
		<line fill="none" stroke="#000000" stroke-miterlimit="10" x1="465.202" y1="493.692" x2="529.761" y2="493.692"/>
		<g>
			<line fill="none" stroke="#000000" stroke-miterlimit="10" x1="536.07" y1="486.071" x2="536.07" y2="420.58"/>
			<line fill="none" stroke="#000000" stroke-miterlimit="10" x1="547.037" y1="486.071" x2="547.037" y2="420.58"/>
			<line fill="none" stroke="#000000" stroke-miterlimit="10" x1="558.002" y1="486.071" x2="558.002" y2="420.58"/>
			<line fill="none" stroke="#000000" stroke-miterlimit="10" x1="568.966" y1="486.071" x2="568.966" y2="420.58"/>
			<line fill="none" stroke="#000000" stroke-miterlimit="10" x1="579.932" y1="486.071" x2="579.932" y2="420.58"/>
			<line fill="none" stroke="#000000" stroke-miterlimit="10" x1="590.899" y1="486.071" x2="590.899" y2="420.58"/>
			<line fill="none" stroke="#000000" stroke-miterlimit="10" x1="601.863" y1="486.071" x2="601.863" y2="420.58"/>
			<line fill="none" stroke="#000000" stroke-miterlimit="10" x1="612.829" y1="486.071" x2="612.829" y2="420.58"/>
			<line fill="none" stroke="#000000" stroke-miterlimit="10" x1="623.796" y1="486.071" x2="623.796" y2="420.58"/>
			<line fill="none" stroke="#000000" stroke-miterlimit="10" x1="634.763" y1="486.071" x2="634.763" y2="420.58"/>
			<line fill="none" stroke="#000000" stroke-miterlimit="10" x1="645.729" y1="486.071" x2="645.729" y2="420.58"/>
		</g>
		<g>
			<g>
				<polyline fill="none" stroke="#000000" stroke-miterlimit="10" points="497.482,527.994 497.482,456.262 676.734,456.262 
					676.734,527.994 				"/>
				<g>
					<circle cx="497.482" cy="527.994" r="1.88"/>
				</g>
				<g>
					<polygon points="674.241,527.265 676.734,531.582 679.228,527.265 					"/>
				</g>
			</g>
		</g>
		<g>
			<rect x="469.373" y="648.364" fill="none" stroke="#000000" stroke-miterlimit="10" width="38.611" height="135.801"/>
			<line fill="none" stroke="#000000" stroke-miterlimit="10" x1="469.373" y1="648.364" x2="507.984" y2="784.165"/>
			<line fill="none" stroke="#000000" stroke-miterlimit="10" x1="507.984" y1="648.364" x2="469.373" y2="784.165"/>
		</g>
		<g>
			<rect x="674.417" y="648.364" fill="none" stroke="#000000" stroke-miterlimit="10" width="38.611" height="135.801"/>
			<line fill="none" stroke="#000000" stroke-miterlimit="10" x1="674.417" y1="648.364" x2="713.028" y2="784.165"/>
			<line fill="none" stroke="#000000" stroke-miterlimit="10" x1="713.028" y1="648.364" x2="674.417" y2="784.165"/>
		</g>
		<g>
			<rect x="870.134" y="541.472" fill="none" stroke="#000000" stroke-miterlimit="10" width="63.189" height="162.198"/>
			<g>
				<path fill="none" stroke="#000000" stroke-miterlimit="10" d="M973.875,579.727c0,8.826-7.158,15.984-15.992,15.984
					c-8.828,0-15.984-7.158-15.984-15.984c0-8.834,7.155-15.992,15.984-15.992C966.718,563.735,973.875,570.893,973.875,579.727z"/>
				<path fill="none" stroke="#000000" stroke-miterlimit="10" d="M973.875,622.57c0,8.834-7.158,15.987-15.992,15.987
					c-8.828,0-15.984-7.153-15.984-15.987c0-8.826,7.155-15.984,15.984-15.984C966.718,606.586,973.875,613.744,973.875,622.57z"/>
				<path fill="none" stroke="#000000" stroke-miterlimit="10" d="M973.875,665.421c0,8.829-7.158,15.989-15.992,15.989
					c-8.828,0-15.984-7.161-15.984-15.989c0-8.831,7.155-15.992,15.984-15.992C966.718,649.429,973.875,656.59,973.875,665.421z"/>
				<path fill="none" stroke="#000000" stroke-miterlimit="10" d="M860.351,579.727c0,8.826-7.155,15.984-15.984,15.984
					c-8.834,0-15.992-7.158-15.992-15.984c0-8.834,7.158-15.992,15.992-15.992C853.196,563.735,860.351,570.893,860.351,579.727z"/>
				<path fill="none" stroke="#000000" stroke-miterlimit="10" d="M860.351,622.57c0,8.834-7.155,15.987-15.984,15.987
					c-8.834,0-15.992-7.153-15.992-15.987c0-8.826,7.158-15.984,15.992-15.984C853.196,606.586,860.351,613.744,860.351,622.57z"/>
				<path fill="none" stroke="#000000" stroke-miterlimit="10" d="M860.351,665.421c0,8.829-7.155,15.989-15.984,15.989
					c-8.834,0-15.992-7.161-15.992-15.989c0-8.831,7.158-15.992,15.992-15.992C853.196,649.429,860.351,656.59,860.351,665.421z"/>
			</g>
		</g>
		<rect x="868.203" y="288.206" fill="none" stroke="#000000" stroke-miterlimit="10" width="65.847" height="65.849"/>
		<rect x="730.01" y="264.53" fill="none" stroke="#000000" stroke-miterlimit="10" width="13.204" height="113.202"/>
		<g>
			<g>
				<path fill="none" stroke="#000000" stroke-miterlimit="10" d="M1034.926,270.344c0,0.55-0.45,1-1,1h-44.942c-0.55,0-1-0.45-1-1
					v-9.382c0-0.55,0.45-1,1-1h44.942c0.55,0,1,0.45,1,1V270.344z"/>
			</g>
			<g>
				<path fill="none" stroke="#000000" stroke-miterlimit="10" d="M1034.926,381.301c0,0.55-0.45,1-1,1h-44.942c-0.55,0-1-0.45-1-1
					v-9.38c0-0.55,0.45-1,1-1h44.942c0.55,0,1,0.45,1,1V381.301z"/>
			</g>
			<g>
				<path fill="none" stroke="#000000" stroke-miterlimit="10" d="M1024.021,303.534c0,0.55-0.45,1-1,1h-30.244c-0.55,0-1-0.45-1-1
					v-31.19c0-0.55,0.45-1,1-1h30.244c0.55,0,1,0.45,1,1V303.534z"/>
			</g>
			<g>
				<path fill="none" stroke="#000000" stroke-miterlimit="10" d="M1034.926,303.534c0,0.55-0.45,1-1,1h-8.906c-0.55,0-1-0.45-1-1
					v-31.19c0-0.55,0.45-1,1-1h8.906c0.55,0,1,0.45,1,1V303.534z"/>
			</g>
			<g>
				<path fill="none" stroke="#000000" stroke-miterlimit="10" d="M1024.021,336.728c0,0.55-0.45,1-1,1h-30.244c-0.55,0-1-0.45-1-1
					v-31.194c0-0.55,0.45-1,1-1h30.244c0.55,0,1,0.45,1,1V336.728z"/>
			</g>
			<g>
				<path fill="none" stroke="#000000" stroke-miterlimit="10" d="M1034.926,336.728c0,0.55-0.45,1-1,1h-8.906c-0.55,0-1-0.45-1-1
					v-31.194c0-0.55,0.45-1,1-1h8.906c0.55,0,1,0.45,1,1V336.728z"/>
			</g>
			<g>
				<path fill="none" stroke="#000000" stroke-miterlimit="10" d="M1024.021,369.921c0,0.55-0.45,1-1,1h-30.244c-0.55,0-1-0.45-1-1
					v-31.193c0-0.55,0.45-1,1-1h30.244c0.55,0,1,0.45,1,1V369.921z"/>
			</g>
			<g>
				<path fill="none" stroke="#000000" stroke-miterlimit="10" d="M1034.926,369.921c0,0.55-0.45,1-1,1h-8.906c-0.55,0-1-0.45-1-1
					v-31.193c0-0.55,0.45-1,1-1h8.906c0.55,0,1,0.45,1,1V369.921z"/>
			</g>
		</g>
		<g>
			<g>
				<path fill="none" stroke="#000000" stroke-miterlimit="10" d="M296.521,742.542c-0.55,0-1-0.45-1-1v-44.945c0-0.55,0.45-1,1-1
					h9.379c0.55,0,1,0.45,1,1v44.945c0,0.55-0.45,1-1,1H296.521z"/>
			</g>
			<g>
				<path fill="none" stroke="#000000" stroke-miterlimit="10" d="M416.401,633.9c0,0.55-0.45,1-1,1h-44.943c-0.55,0-1-0.45-1-1
					v-9.379c0-0.55,0.45-1,1-1h44.943c0.55,0,1,0.45,1,1V633.9z"/>
			</g>
			<g>
				<path fill="none" stroke="#000000" stroke-miterlimit="10" d="M374.287,731.636c-0.55,0-1-0.45-1-1v-30.247c0-0.55,0.45-1,1-1
					h31.193c0.55,0,1,0.45,1,1v30.247c0,0.55-0.45,1-1,1H374.287z"/>
			</g>
			<g>
				<path fill="none" stroke="#000000" stroke-miterlimit="10" d="M374.287,699.389c-0.55,0-1-0.45-1-1v-30.244c0-0.55,0.45-1,1-1
					h31.193c0.55,0,1,0.45,1,1v30.244c0,0.55-0.45,1-1,1H374.287z"/>
			</g>
			<g>
				<path fill="none" stroke="#000000" stroke-miterlimit="10" d="M374.287,667.144c-0.55,0-1-0.45-1-1V635.9c0-0.55,0.45-1,1-1
					h31.193c0.55,0,1,0.45,1,1v30.244c0,0.55-0.45,1-1,1H374.287z"/>
			</g>
			<g>
				<path fill="none" stroke="#000000" stroke-miterlimit="10" d="M407.483,731.636c-0.55,0-1-0.45-1-1v-30.247c0-0.55,0.45-1,1-1
					h7.918c0.55,0,1,0.45,1,1v30.247c0,0.55-0.45,1-1,1H407.483z"/>
			</g>
			<g>
				<path fill="none" stroke="#000000" stroke-miterlimit="10" d="M407.483,742.542c-0.55,0-1-0.45-1-1v-8.906c0-0.55,0.45-1,1-1
					h7.918c0.55,0,1,0.45,1,1v8.906c0,0.55-0.45,1-1,1H407.483z"/>
			</g>
			<g>
				<path fill="none" stroke="#000000" stroke-miterlimit="10" d="M407.483,699.389c-0.55,0-1-0.45-1-1v-30.244c0-0.55,0.45-1,1-1
					h7.918c0.55,0,1,0.45,1,1v30.244c0,0.55-0.45,1-1,1H407.483z"/>
			</g>
			<g>
				<path fill="none" stroke="#000000" stroke-miterlimit="10" d="M407.483,667.144c-0.55,0-1-0.45-1-1V635.9c0-0.55,0.45-1,1-1
					h7.918c0.55,0,1,0.45,1,1v30.244c0,0.55-0.45,1-1,1H407.483z"/>
			</g>
			<g>
				<path fill="none" stroke="#000000" stroke-miterlimit="10" d="M374.287,742.542c-0.55,0-1-0.45-1-1v-8.906c0-0.55,0.45-1,1-1
					h31.193c0.55,0,1,0.45,1,1v8.906c0,0.55-0.45,1-1,1H374.287z"/>
			</g>
			<g>
				<path fill="none" stroke="#000000" stroke-miterlimit="10" d="M341.094,731.636c-0.55,0-1-0.45-1-1v-30.247c0-0.55,0.45-1,1-1
					h31.193c0.55,0,1,0.45,1,1v30.247c0,0.55-0.45,1-1,1H341.094z"/>
			</g>
			<g>
				<path fill="none" stroke="#000000" stroke-miterlimit="10" d="M341.094,742.542c-0.55,0-1-0.45-1-1v-8.906c0-0.55,0.45-1,1-1
					h31.193c0.55,0,1,0.45,1,1v8.906c0,0.55-0.45,1-1,1H341.094z"/>
			</g>
			<g>
				<path fill="none" stroke="#000000" stroke-miterlimit="10" d="M307.9,731.636c-0.55,0-1-0.45-1-1v-30.247c0-0.55,0.45-1,1-1
					h31.194c0.55,0,1,0.45,1,1v30.247c0,0.55-0.45,1-1,1H307.9z"/>
			</g>
			<g>
				<path fill="none" stroke="#000000" stroke-miterlimit="10" d="M307.9,742.542c-0.55,0-1-0.45-1-1v-8.906c0-0.55,0.45-1,1-1
					h31.194c0.55,0,1,0.45,1,1v8.906c0,0.55-0.45,1-1,1H307.9z"/>
			</g>
		</g>
		<g>
			<g>
				<path fill="none" stroke="#000000" stroke-miterlimit="10" d="M256.145,742.542c0.55,0,1-0.45,1-1v-44.945c0-0.55-0.45-1-1-1
					h-9.379c-0.55,0-1,0.45-1,1v44.945c0,0.55,0.45,1,1,1H256.145z"/>
			</g>
			<g>
				<path fill="none" stroke="#000000" stroke-miterlimit="10" d="M136.264,633.9c0,0.55,0.45,1,1,1h44.945c0.55,0,1-0.45,1-1
					v-9.379c0-0.55-0.45-1-1-1h-44.945c-0.55,0-1,0.45-1,1V633.9z"/>
			</g>
			<g>
				<path fill="none" stroke="#000000" stroke-miterlimit="10" d="M178.381,731.636c0.55,0,1-0.45,1-1v-30.247c0-0.55-0.45-1-1-1
					H147.19c-0.55,0-1,0.45-1,1v30.247c0,0.55,0.45,1,1,1H178.381z"/>
			</g>
			<g>
				<path fill="none" stroke="#000000" stroke-miterlimit="10" d="M178.381,699.389c0.55,0,1-0.45,1-1v-30.244c0-0.55-0.45-1-1-1
					H147.19c-0.55,0-1,0.45-1,1v30.244c0,0.55,0.45,1,1,1H178.381z"/>
			</g>
			<g>
				<path fill="none" stroke="#000000" stroke-miterlimit="10" d="M178.381,667.144c0.55,0,1-0.45,1-1V635.9c0-0.55-0.45-1-1-1
					H147.19c-0.55,0-1,0.45-1,1v30.244c0,0.55,0.45,1,1,1H178.381z"/>
			</g>
			<g>
				<path fill="none" stroke="#000000" stroke-miterlimit="10" d="M145.187,731.636c0.55,0,1-0.45,1-1v-30.247c0-0.55-0.45-1-1-1
					h-7.923c-0.55,0-1,0.45-1,1v30.247c0,0.55,0.45,1,1,1H145.187z"/>
			</g>
			<g>
				<path fill="none" stroke="#000000" stroke-miterlimit="10" d="M145.187,742.542c0.55,0,1-0.45,1-1v-8.906c0-0.55-0.45-1-1-1
					h-7.923c-0.55,0-1,0.45-1,1v8.906c0,0.55,0.45,1,1,1H145.187z"/>
			</g>
			<g>
				<path fill="none" stroke="#000000" stroke-miterlimit="10" d="M145.187,699.389c0.55,0,1-0.45,1-1v-30.244c0-0.55-0.45-1-1-1
					h-7.923c-0.55,0-1,0.45-1,1v30.244c0,0.55,0.45,1,1,1H145.187z"/>
			</g>
			<g>
				<path fill="none" stroke="#000000" stroke-miterlimit="10" d="M145.187,667.144c0.55,0,1-0.45,1-1V635.9c0-0.55-0.45-1-1-1
					h-7.923c-0.55,0-1,0.45-1,1v30.244c0,0.55,0.45,1,1,1H145.187z"/>
			</g>
			<g>
				<path fill="none" stroke="#000000" stroke-miterlimit="10" d="M178.381,742.542c0.55,0,1-0.45,1-1v-8.906c0-0.55-0.45-1-1-1
					H147.19c-0.55,0-1,0.45-1,1v8.906c0,0.55,0.45,1,1,1H178.381z"/>
			</g>
			<g>
				<path fill="none" stroke="#000000" stroke-miterlimit="10" d="M211.573,731.636c0.55,0,1-0.45,1-1v-30.247c0-0.55-0.45-1-1-1
					h-31.192c-0.55,0-1,0.45-1,1v30.247c0,0.55,0.45,1,1,1H211.573z"/>
			</g>
			<g>
				<path fill="none" stroke="#000000" stroke-miterlimit="10" d="M211.573,742.542c0.55,0,1-0.45,1-1v-8.906c0-0.55-0.45-1-1-1
					h-31.192c-0.55,0-1,0.45-1,1v8.906c0,0.55,0.45,1,1,1H211.573z"/>
			</g>
			<g>
				<path fill="none" stroke="#000000" stroke-miterlimit="10" d="M244.766,731.636c0.55,0,1-0.45,1-1v-30.247c0-0.55-0.45-1-1-1
					h-31.193c-0.55,0-1,0.45-1,1v30.247c0,0.55,0.45,1,1,1H244.766z"/>
			</g>
			<g>
				<path fill="none" stroke="#000000" stroke-miterlimit="10" d="M244.766,742.542c0.55,0,1-0.45,1-1v-8.906c0-0.55-0.45-1-1-1
					h-31.193c-0.55,0-1,0.45-1,1v8.906c0,0.55,0.45,1,1,1H244.766z"/>
			</g>
		</g>
		<g>
			<g>
				<path fill="none" stroke="#000000" stroke-miterlimit="10" d="M850.337,193.489c0.55,0,1,0.45,1,1v44.945c0,0.55-0.45,1-1,1
					h-9.379c-0.55,0-1-0.45-1-1v-44.945c0-0.55,0.45-1,1-1H850.337z"/>
			</g>
			<g>
				<path fill="none" stroke="#000000" stroke-miterlimit="10" d="M961.292,193.489c0.55,0,1,0.45,1,1v44.945c0,0.55-0.45,1-1,1
					h-9.379c-0.55,0-1-0.45-1-1v-44.945c0-0.55,0.45-1,1-1H961.292z"/>
			</g>
			<g>
				<path fill="none" stroke="#000000" stroke-miterlimit="10" d="M883.528,204.396c0.55,0,1,0.45,1,1v30.244c0,0.55-0.45,1-1,1
					h-31.19c-0.55,0-1-0.45-1-1v-30.244c0-0.55,0.45-1,1-1H883.528z"/>
			</g>
			<g>
				<path fill="none" stroke="#000000" stroke-miterlimit="10" d="M883.528,193.489c0.55,0,1,0.45,1,1v8.907c0,0.55-0.45,1-1,1
					h-31.19c-0.55,0-1-0.45-1-1v-8.907c0-0.55,0.45-1,1-1H883.528z"/>
			</g>
			<g>
				<path fill="none" stroke="#000000" stroke-miterlimit="10" d="M916.718,204.396c0.55,0,1,0.45,1,1v30.244c0,0.55-0.45,1-1,1
					h-31.19c-0.55,0-1-0.45-1-1v-30.244c0-0.55,0.45-1,1-1H916.718z"/>
			</g>
			<g>
				<path fill="none" stroke="#000000" stroke-miterlimit="10" d="M916.718,193.489c0.55,0,1,0.45,1,1v8.907c0,0.55-0.45,1-1,1
					h-31.19c-0.55,0-1-0.45-1-1v-8.907c0-0.55,0.45-1,1-1H916.718z"/>
			</g>
			<g>
				<path fill="none" stroke="#000000" stroke-miterlimit="10" d="M949.913,204.396c0.55,0,1,0.45,1,1v30.244c0,0.55-0.45,1-1,1
					h-31.196c-0.55,0-1-0.45-1-1v-30.244c0-0.55,0.45-1,1-1H949.913z"/>
			</g>
			<g>
				<path fill="none" stroke="#000000" stroke-miterlimit="10" d="M949.913,193.489c0.55,0,1,0.45,1,1v8.907c0,0.55-0.45,1-1,1
					h-31.196c-0.55,0-1-0.45-1-1v-8.907c0-0.55,0.45-1,1-1H949.913z"/>
			</g>
		</g>
		<path fill="none" stroke="#000000" stroke-miterlimit="10" d="M317.032,609.562c0,22.478-18.22,40.697-40.698,40.697
			c-22.479,0-40.698-18.219-40.698-40.697c0-22.481,18.219-40.7,40.698-40.7C298.812,568.862,317.032,587.081,317.032,609.562z"/>
		<rect x="213.959" y="472.237" fill="none" stroke="#000000" stroke-miterlimit="10" width="96.116" height="34.795"/>
		<rect x="113.028" y="472.237" fill="none" stroke="#000000" stroke-miterlimit="10" width="96.116" height="34.795"/>
		<rect x="220.684" y="480.226" fill="none" stroke="#000000" stroke-miterlimit="10" width="82.667" height="11.899"/>
		<g>
			<rect x="100.288" y="372.606" fill="none" stroke="#000000" stroke-miterlimit="10" width="44.046" height="91.965"/>
			<g>
				<path fill="none" stroke="#000000" stroke-miterlimit="10" d="M132.265,425.423c0,0.55-0.45,1-1,1h-16.906c-0.55,0-1-0.45-1-1
					v-16.906c0-0.55,0.45-1,1-1h16.906c0.55,0,1,0.45,1,1V425.423z"/>
			</g>
			<g>
				<path fill="none" stroke="#000000" stroke-miterlimit="10" d="M132.265,449.369c0,0.55-0.45,1-1,1h-16.906c-0.55,0-1-0.45-1-1
					v-16.907c0-0.55,0.45-1,1-1h16.906c0.55,0,1,0.45,1,1V449.369z"/>
			</g>
			<g>
				<line fill="none" stroke="#000000" stroke-miterlimit="10" x1="114.344" y1="382.627" x2="114.344" y2="402.007"/>
				<line fill="none" stroke="#000000" stroke-miterlimit="10" x1="118.578" y1="382.627" x2="118.578" y2="402.007"/>
				<line fill="none" stroke="#000000" stroke-miterlimit="10" x1="122.811" y1="382.627" x2="122.811" y2="402.007"/>
				<line fill="none" stroke="#000000" stroke-miterlimit="10" x1="127.046" y1="382.627" x2="127.046" y2="402.007"/>
				<line fill="none" stroke="#000000" stroke-miterlimit="10" x1="131.28" y1="382.627" x2="131.28" y2="402.007"/>
			</g>
			<rect x="104.673" y="376.479" fill="none" stroke="#000000" stroke-miterlimit="10" width="35.276" height="84.212"/>
		</g>
		<g>
			<rect x="98.855" y="174.945" fill="none" stroke="#000000" stroke-miterlimit="10" width="45.157" height="45.591"/>
			<g>
				<path fill="none" stroke="#000000" stroke-miterlimit="10" d="M120.002,187.825c0,4.172-3.384,7.556-7.558,7.556
					c-4.175,0-7.558-3.384-7.558-7.556c0-4.176,3.383-7.558,7.558-7.558C116.619,180.267,120.002,183.648,120.002,187.825z"/>
				<circle fill="none" stroke="#000000" stroke-miterlimit="10" cx="112.444" cy="187.825" r="3.68"/>
				<circle fill="none" stroke="#000000" stroke-miterlimit="10" cx="112.445" cy="207.658" r="7.558"/>
				<circle fill="none" stroke="#000000" stroke-miterlimit="10" cx="112.444" cy="207.658" r="3.68"/>
				<path fill="none" stroke="#000000" stroke-miterlimit="10" d="M139.559,187.825c0,4.172-3.384,7.556-7.558,7.556
					c-4.174,0-7.558-3.384-7.558-7.556c0-4.176,3.384-7.558,7.558-7.558C136.175,180.267,139.559,183.648,139.559,187.825z"/>
				<circle fill="none" stroke="#000000" stroke-miterlimit="10" cx="132.002" cy="187.825" r="3.68"/>
				<circle fill="none" stroke="#000000" stroke-miterlimit="10" cx="132.001" cy="207.658" r="7.558"/>
				<circle fill="none" stroke="#000000" stroke-miterlimit="10" cx="132.002" cy="207.658" r="3.68"/>
			</g>
		</g>
		<g>
			<rect x="98.855" y="220.536" fill="none" stroke="#000000" stroke-miterlimit="10" width="45.157" height="45.588"/>
		</g>
		
			<line fill="none" stroke="#000000" stroke-width="3" stroke-miterlimit="10" x1="416.401" y1="467.777" x2="465.202" y2="467.777"/>
		<rect x="229.264" y="321.131" fill="none" stroke="#000000" stroke-miterlimit="10" width="102.813" height="80.876"/>
		<g>
			<rect x="250.727" y="219.357" fill="none" stroke="#000000" stroke-miterlimit="10" width="59.888" height="101.774"/>
			<g>
				<circle fill="none" stroke="#000000" stroke-miterlimit="10" cx="327.973" cy="303.135" r="11.145"/>
				<circle fill="none" stroke="#000000" stroke-miterlimit="10" cx="327.973" cy="271.084" r="11.145"/>
				<circle fill="none" stroke="#000000" stroke-miterlimit="10" cx="327.973" cy="239.035" r="11.145"/>
			</g>
			<g>
				<path fill="none" stroke="#000000" stroke-miterlimit="10" d="M244.514,303.135c0,6.155-4.988,11.143-11.146,11.143
					c-6.157,0-11.144-4.988-11.144-11.143c0-6.157,4.987-11.147,11.144-11.147C239.526,291.988,244.514,296.978,244.514,303.135z"/>
				<path fill="none" stroke="#000000" stroke-miterlimit="10" d="M244.514,271.084c0,6.155-4.988,11.143-11.146,11.143
					c-6.157,0-11.144-4.988-11.144-11.143c0-6.157,4.987-11.146,11.144-11.146C239.526,259.937,244.514,264.927,244.514,271.084z"/>
				<path fill="none" stroke="#000000" stroke-miterlimit="10" d="M244.514,239.035c0,6.155-4.988,11.145-11.146,11.145
					c-6.157,0-11.144-4.99-11.144-11.145c0-6.157,4.987-11.147,11.144-11.147C239.526,227.888,244.514,232.878,244.514,239.035z"/>
			</g>
		</g>
		<g>
			<rect x="421.182" y="420.58" fill="none" stroke="#000000" stroke-miterlimit="10" width="40.43" height="43.991"/>
			<line fill="none" stroke="#000000" stroke-miterlimit="10" x1="421.182" y1="420.58" x2="461.612" y2="464.57"/>
			<line fill="none" stroke="#000000" stroke-miterlimit="10" x1="461.612" y1="420.58" x2="421.182" y2="464.57"/>
		</g>
		<g>
			<rect x="421.182" y="376.479" fill="none" stroke="#000000" stroke-miterlimit="10" width="40.43" height="43.989"/>
			<line fill="none" stroke="#000000" stroke-miterlimit="10" x1="421.182" y1="376.479" x2="461.612" y2="420.469"/>
			<line fill="none" stroke="#000000" stroke-miterlimit="10" x1="461.612" y1="376.479" x2="421.182" y2="420.469"/>
		</g>
		<g>
			<rect x="421.182" y="332.379" fill="none" stroke="#000000" stroke-miterlimit="10" width="40.43" height="43.991"/>
			<line fill="none" stroke="#000000" stroke-miterlimit="10" x1="421.182" y1="332.379" x2="461.612" y2="376.37"/>
			<line fill="none" stroke="#000000" stroke-miterlimit="10" x1="461.612" y1="332.379" x2="421.182" y2="376.37"/>
		</g>
		<g>
			<rect x="421.182" y="288.28" fill="none" stroke="#000000" stroke-miterlimit="10" width="40.43" height="43.991"/>
			<line fill="none" stroke="#000000" stroke-miterlimit="10" x1="421.182" y1="288.28" x2="461.612" y2="332.271"/>
			<line fill="none" stroke="#000000" stroke-miterlimit="10" x1="461.612" y1="288.28" x2="421.182" y2="332.271"/>
		</g>
		<g>
			<rect x="421.182" y="244.18" fill="none" stroke="#000000" stroke-miterlimit="10" width="40.43" height="43.99"/>
			<line fill="none" stroke="#000000" stroke-miterlimit="10" x1="421.182" y1="244.18" x2="461.612" y2="288.17"/>
			<line fill="none" stroke="#000000" stroke-miterlimit="10" x1="461.612" y1="244.18" x2="421.182" y2="288.17"/>
		</g>
		<rect x="471.315" y="244.18" fill="none" stroke="#000000" stroke-miterlimit="10" width="49.677" height="43.759"/>
		<path fill="none" stroke="#000000" stroke-miterlimit="10" d="M515.446,266.061c0,6.657-8.638,12.058-19.295,12.058
			c-10.651,0-19.29-5.401-19.29-12.058c0-6.66,8.639-12.059,19.29-12.059C506.809,254.002,515.446,259.401,515.446,266.061z"/>
		<g>
			<g>
				<path fill="none" stroke="#000000" stroke-miterlimit="10" d="M692.209,416.269c0,0.55-0.45,1-1,1h-26.461c-0.55,0-1-0.45-1-1
					v-14.722c0-0.55,0.45-1,1-1h26.461c0.55,0,1,0.45,1,1V416.269z"/>
			</g>
			<circle fill="none" stroke="#000000" stroke-miterlimit="10" cx="677.978" cy="409.773" r="3.246"/>
			<path fill="none" stroke="#000000" stroke-miterlimit="10" d="M667.336,400.546v-15.435c0,0,0-13.616,10.643-13.616
				c9.183,0,10.378,11.648,10.378,13.163c0,1.514,0,15.888,0,15.888"/>
			<path fill="none" stroke="#000000" stroke-miterlimit="10" d="M684.197,384.897c0,5.216-2.846,9.444-6.35,9.444
				s-6.35-4.228-6.35-9.444c0-5.216,2.846-9.447,6.35-9.447S684.197,379.681,684.197,384.897z"/>
		</g>
		<polyline fill="none" stroke="#000000" stroke-width="3" stroke-miterlimit="10" points="620.214,240.955 620.214,324.409 
			645.729,324.409 		"/>
		
			<line fill="none" stroke="#000000" stroke-width="3" stroke-miterlimit="10" x1="716.43" y1="324.409" x2="700.394" y2="324.409"/>
		<g>
			<path fill="none" stroke="#000000" stroke-miterlimit="10" d="M469.229,354.055v62.914h60.532
				C529.761,416.969,532.188,354.055,469.229,354.055z"/>
			<path fill="none" stroke="#000000" stroke-miterlimit="10" d="M472.949,360.316v52.786h50.792
				C523.741,413.102,525.777,360.316,472.949,360.316z"/>
			<g>
				<path fill="none" stroke="#000000" stroke-miterlimit="10" d="M478.048,370.309v36.498c0,0.55,0.45,1,1,1h34.078
					c0.55,0,1.017-0.45,1.039-0.999C514.164,406.808,515.574,370.309,478.048,370.309z"/>
			</g>
		</g>
		
			<rect x="538.345" y="527.994" fill="none" stroke="#000000" stroke-width="0.5" stroke-linecap="round" stroke-linejoin="round" stroke-miterlimit="10" stroke-dasharray="2,2" width="105.108" height="247.494"/>
		
			<polyline fill="none" stroke="#000000" stroke-width="0.5" stroke-linecap="round" stroke-linejoin="round" stroke-miterlimit="10" stroke-dasharray="2,2" points="
			736.612,543.024 736.612,480.486 1065.489,480.486 1065.489,761.341 736.612,761.341 736.612,618.429 		"/>
		
			<rect x="174.919" y="174.945" fill="none" stroke="#000000" stroke-width="0.5" stroke-linecap="round" stroke-linejoin="round" stroke-miterlimit="10" stroke-dasharray="2,2" width="211.502" height="275.424"/>
		
			<rect x="770.002" y="174.945" fill="none" stroke="#000000" stroke-width="0.5" stroke-linecap="round" stroke-linejoin="round" stroke-miterlimit="10" stroke-dasharray="2,2" width="289.035" height="267.628"/>
		
			<rect x="469.229" y="174.945" fill="none" stroke="#000000" stroke-width="0.5" stroke-linecap="round" stroke-linejoin="round" stroke-miterlimit="10" stroke-dasharray="2,2" width="247.201" height="45.591"/>
		
			<rect x="634.762" y="254.002" fill="none" stroke="#000000" stroke-width="0.5" stroke-linecap="round" stroke-linejoin="round" stroke-miterlimit="10" stroke-dasharray="2,2" width="65.631" height="56.273"/>
	</g>
	
		<line fill="none" stroke="#000000" stroke-width="0.5" stroke-linecap="round" stroke-linejoin="round" stroke-miterlimit="10" x1="91.199" y1="102.452" x2="91.199" y2="117.536"/>
	
		<line fill="none" stroke="#000000" stroke-width="0.5" stroke-linecap="round" stroke-linejoin="round" stroke-miterlimit="10" x1="91.199" y1="45.964" x2="91.199" y2="61.046"/>
	
		<line fill="none" stroke="#000000" stroke-width="0.5" stroke-linecap="round" stroke-linejoin="round" stroke-miterlimit="10" x1="187.481" y1="102.452" x2="187.481" y2="117.536"/>
	
		<line fill="none" stroke="#000000" stroke-width="0.5" stroke-linecap="round" stroke-linejoin="round" stroke-miterlimit="10" x1="372.824" y1="102.452" x2="372.824" y2="117.536"/>
	
		<line fill="none" stroke="#000000" stroke-width="0.5" stroke-linecap="round" stroke-linejoin="round" stroke-miterlimit="10" x1="807.933" y1="102.452" x2="807.933" y2="117.536"/>
	
		<line fill="none" stroke="#000000" stroke-width="0.5" stroke-linecap="round" stroke-linejoin="round" stroke-miterlimit="10" x1="993.392" y1="102.452" x2="993.392" y2="117.536"/>
	
		<line fill="none" stroke="#000000" stroke-width="0.5" stroke-linecap="round" stroke-linejoin="round" stroke-miterlimit="10" x1="1089.668" y1="102.452" x2="1089.668" y2="117.536"/>
	
		<line fill="none" stroke="#000000" stroke-width="0.5" stroke-linecap="round" stroke-linejoin="round" stroke-miterlimit="10" x1="1089.668" y1="45.963" x2="1089.668" y2="61.045"/>
	
		<line fill="none" stroke="#000000" stroke-width="0.5" stroke-linecap="round" stroke-linejoin="round" stroke-miterlimit="10" x1="1089.668" y1="822.945" x2="1089.668" y2="807.86"/>
	
		<line fill="none" stroke="#000000" stroke-width="0.5" stroke-linecap="round" stroke-linejoin="round" stroke-miterlimit="10" x1="1006.41" y1="822.945" x2="1006.41" y2="807.86"/>
	
		<line fill="none" stroke="#000000" stroke-width="0.5" stroke-linecap="round" stroke-linejoin="round" stroke-miterlimit="10" x1="921.205" y1="822.945" x2="921.205" y2="807.86"/>
	
		<line fill="none" stroke="#000000" stroke-width="0.5" stroke-linecap="round" stroke-linejoin="round" stroke-miterlimit="10" x1="880.119" y1="822.945" x2="880.119" y2="807.86"/>
	
		<line fill="none" stroke="#000000" stroke-width="0.5" stroke-linecap="round" stroke-linejoin="round" stroke-miterlimit="10" x1="794.911" y1="822.945" x2="794.911" y2="807.86"/>
	
		<line fill="none" stroke="#000000" stroke-width="0.5" stroke-linecap="round" stroke-linejoin="round" stroke-miterlimit="10" x1="91.199" y1="109.995" x2="1089.668" y2="109.995"/>
	
		<line fill="none" stroke="#000000" stroke-width="0.5" stroke-linecap="round" stroke-linejoin="round" stroke-miterlimit="10" x1="1126.888" y1="141.708" x2="1111.803" y2="141.708"/>
	
		<line fill="none" stroke="#000000" stroke-width="0.5" stroke-linecap="round" stroke-linejoin="round" stroke-miterlimit="10" x1="1111.803" y1="240.434" x2="1126.888" y2="240.434"/>
	
		<line fill="none" stroke="#000000" stroke-width="0.5" stroke-linecap="round" stroke-linejoin="round" stroke-miterlimit="10" x1="1111.803" y1="361.161" x2="1126.888" y2="361.161"/>
	
		<line fill="none" stroke="#000000" stroke-width="0.5" stroke-linecap="round" stroke-linejoin="round" stroke-miterlimit="10" x1="1111.803" y1="562.014" x2="1126.888" y2="562.014"/>
	
		<line fill="none" stroke="#000000" stroke-width="0.5" stroke-linecap="round" stroke-linejoin="round" stroke-miterlimit="10" x1="1111.803" y1="681.411" x2="1126.888" y2="681.411"/>
	
		<line fill="none" stroke="#000000" stroke-width="0.5" stroke-linecap="round" stroke-linejoin="round" stroke-miterlimit="10" x1="1111.803" y1="788.479" x2="1126.888" y2="788.479"/>
	
		<line fill="none" stroke="#000000" stroke-width="0.5" stroke-linecap="round" stroke-linejoin="round" stroke-miterlimit="10" x1="1171.717" y1="141.708" x2="1156.635" y2="141.708"/>
	
		<line fill="none" stroke="#000000" stroke-width="0.5" stroke-linecap="round" stroke-linejoin="round" stroke-miterlimit="10" x1="1156.635" y1="788.479" x2="1171.717" y2="788.479"/>
	
		<line fill="none" stroke="#000000" stroke-width="0.5" stroke-linecap="round" stroke-linejoin="round" stroke-miterlimit="10" x1="1119.343" y1="141.708" x2="1119.343" y2="788.479"/>
	
		<line fill="none" stroke="#000000" stroke-width="0.5" stroke-linecap="round" stroke-linejoin="round" stroke-miterlimit="10" x1="69.989" y1="141.708" x2="54.907" y2="141.708"/>
	
		<line fill="none" stroke="#000000" stroke-width="0.5" stroke-linecap="round" stroke-linejoin="round" stroke-miterlimit="10" x1="54.907" y1="292.689" x2="69.989" y2="292.689"/>
	
		<line fill="none" stroke="#000000" stroke-width="0.5" stroke-linecap="round" stroke-linejoin="round" stroke-miterlimit="10" x1="54.907" y1="368.77" x2="69.989" y2="368.77"/>
	
		<line fill="none" stroke="#000000" stroke-width="0.5" stroke-linecap="round" stroke-linejoin="round" stroke-miterlimit="10" x1="54.907" y1="543.757" x2="69.989" y2="543.757"/>
	
		<line fill="none" stroke="#000000" stroke-width="0.5" stroke-linecap="round" stroke-linejoin="round" stroke-miterlimit="10" x1="54.907" y1="663.958" x2="69.989" y2="663.958"/>
	
		<line fill="none" stroke="#000000" stroke-width="0.5" stroke-linecap="round" stroke-linejoin="round" stroke-miterlimit="10" x1="54.907" y1="788.479" x2="69.989" y2="788.479"/>
	
		<line fill="none" stroke="#000000" stroke-width="0.5" stroke-linecap="round" stroke-linejoin="round" stroke-miterlimit="10" x1="62.449" y1="141.708" x2="62.449" y2="788.479"/>
	
		<line fill="none" stroke="#000000" stroke-width="0.5" stroke-linecap="round" stroke-linejoin="round" stroke-miterlimit="10" x1="1089.668" y1="815.402" x2="715.968" y2="815.402"/>
	
		<line fill="none" stroke="#000000" stroke-width="0.5" stroke-linecap="round" stroke-linejoin="round" stroke-miterlimit="10" x1="93.356" y1="822.945" x2="93.356" y2="807.86"/>
	
		<line fill="none" stroke="#000000" stroke-width="0.5" stroke-linecap="round" stroke-linejoin="round" stroke-miterlimit="10" x1="176.613" y1="822.945" x2="176.613" y2="807.86"/>
	
		<line fill="none" stroke="#000000" stroke-width="0.5" stroke-linecap="round" stroke-linejoin="round" stroke-miterlimit="10" x1="261.82" y1="822.945" x2="261.82" y2="807.86"/>
	
		<line fill="none" stroke="#000000" stroke-width="0.5" stroke-linecap="round" stroke-linejoin="round" stroke-miterlimit="10" x1="302.905" y1="822.945" x2="302.905" y2="807.86"/>
	
		<line fill="none" stroke="#000000" stroke-width="0.5" stroke-linecap="round" stroke-linejoin="round" stroke-miterlimit="10" x1="388.113" y1="822.945" x2="388.113" y2="807.86"/>
	
		<line fill="none" stroke="#000000" stroke-width="0.5" stroke-linecap="round" stroke-linejoin="round" stroke-miterlimit="10" x1="464.739" y1="861.83" x2="464.739" y2="846.75"/>
	
		<line fill="none" stroke="#000000" stroke-width="0.5" stroke-linecap="round" stroke-linejoin="round" stroke-miterlimit="10" x1="516.515" y1="861.83" x2="516.515" y2="846.75"/>
	
		<line fill="none" stroke="#000000" stroke-width="0.5" stroke-linecap="round" stroke-linejoin="round" stroke-miterlimit="10" x1="664.189" y1="861.83" x2="664.189" y2="846.75"/>
	
		<line fill="none" stroke="#000000" stroke-width="0.5" stroke-linecap="round" stroke-linejoin="round" stroke-miterlimit="10" x1="715.968" y1="861.83" x2="715.968" y2="846.75"/>
	
		<line fill="none" stroke="#000000" stroke-width="0.5" stroke-linecap="round" stroke-linejoin="round" stroke-miterlimit="10" x1="464.739" y1="912.545" x2="464.739" y2="897.462"/>
	
		<line fill="none" stroke="#000000" stroke-width="0.5" stroke-linecap="round" stroke-linejoin="round" stroke-miterlimit="10" x1="715.968" y1="912.545" x2="715.968" y2="897.462"/>
	
		<line fill="none" stroke="#000000" stroke-width="0.5" stroke-linecap="round" stroke-linejoin="round" stroke-miterlimit="10" x1="1089.668" y1="912.545" x2="1089.668" y2="897.462"/>
	
		<line fill="none" stroke="#000000" stroke-width="0.5" stroke-linecap="round" stroke-linejoin="round" stroke-miterlimit="10" x1="93.356" y1="912.545" x2="93.356" y2="897.462"/>
	
		<line fill="none" stroke="#000000" stroke-width="0.5" stroke-linecap="round" stroke-linejoin="round" stroke-miterlimit="10" x1="93.356" y1="815.402" x2="467.058" y2="815.402"/>
	
		<line fill="none" stroke="#000000" stroke-width="0.5" stroke-linecap="round" stroke-linejoin="round" stroke-miterlimit="10" x1="464.739" y1="854.29" x2="715.968" y2="854.29"/>
	<g>
		<path fill="#D2F7FF" stroke="#000000" stroke-miterlimit="10" d="M893.902,85.071h-0.034l-1.91,1.031l-0.288-1.133l2.401-1.285
			h1.268v10.989h-1.437V85.071z"/>
		<path fill="#D2F7FF" stroke="#000000" stroke-miterlimit="10" d="M898.348,92.967c0.422,0.271,1.403,0.693,2.435,0.693
			c1.91,0,2.502-1.218,2.485-2.13c-0.018-1.539-1.403-2.198-2.841-2.198h-0.828v-1.116h0.828c1.082,0,2.451-0.558,2.451-1.859
			c0-0.879-0.558-1.657-1.927-1.657c-0.879,0-1.725,0.389-2.198,0.727l-0.389-1.082c0.575-0.422,1.69-0.845,2.874-0.845
			c2.164,0,3.145,1.285,3.145,2.621c0,1.133-0.676,2.096-2.028,2.586v0.034c1.353,0.271,2.451,1.285,2.451,2.823
			c0,1.758-1.369,3.297-4.007,3.297c-1.234,0-2.316-0.389-2.857-0.744L898.348,92.967z"/>
		<path fill="#D2F7FF" stroke="#000000" stroke-miterlimit="10" d="M912.614,89.062c0,3.736-1.387,5.799-3.821,5.799
			c-2.146,0-3.601-2.012-3.635-5.647c0-3.686,1.59-5.714,3.821-5.714C911.296,83.499,912.614,85.562,912.614,89.062z M906.646,89.23
			c0,2.857,0.879,4.48,2.231,4.48c1.521,0,2.249-1.775,2.249-4.582c0-2.705-0.693-4.48-2.232-4.48
			C907.593,84.648,906.646,86.238,906.646,89.23z"/>
	</g>
	<g>
		<path fill="#D2F7FF" stroke="#000000" stroke-miterlimit="10" d="M273.395,85.071h-0.034l-1.91,1.031l-0.288-1.133l2.401-1.285
			h1.268v10.989h-1.437V85.071z"/>
		<path fill="#D2F7FF" stroke="#000000" stroke-miterlimit="10" d="M277.839,92.967c0.423,0.271,1.403,0.693,2.435,0.693
			c1.911,0,2.502-1.218,2.485-2.13c-0.017-1.539-1.403-2.198-2.84-2.198h-0.829v-1.116h0.829c1.082,0,2.452-0.558,2.452-1.859
			c0-0.879-0.558-1.657-1.928-1.657c-0.879,0-1.724,0.389-2.198,0.727l-0.389-1.082c0.575-0.422,1.69-0.845,2.874-0.845
			c2.164,0,3.145,1.285,3.145,2.621c0,1.133-0.676,2.096-2.029,2.586v0.034c1.353,0.271,2.452,1.285,2.452,2.823
			c0,1.758-1.37,3.297-4.007,3.297c-1.234,0-2.316-0.389-2.857-0.744L277.839,92.967z"/>
		<path fill="#D2F7FF" stroke="#000000" stroke-miterlimit="10" d="M292.106,89.062c0,3.736-1.386,5.799-3.821,5.799
			c-2.147,0-3.601-2.012-3.635-5.647c0-3.686,1.589-5.714,3.821-5.714C290.788,83.499,292.106,85.562,292.106,89.062z
			 M286.139,89.23c0,2.857,0.879,4.48,2.231,4.48c1.521,0,2.249-1.775,2.249-4.582c0-2.705-0.693-4.48-2.231-4.48
			C287.085,84.648,286.139,86.238,286.139,89.23z"/>
	</g>
	<g>
		<path fill="#D2F7FF" stroke="#000000" stroke-miterlimit="10" d="M580.747,92.967c0.423,0.271,1.403,0.693,2.435,0.693
			c1.911,0,2.502-1.218,2.485-2.13c-0.017-1.539-1.403-2.198-2.84-2.198h-0.828v-1.116h0.828c1.082,0,2.452-0.558,2.452-1.859
			c0-0.879-0.558-1.657-1.927-1.657c-0.879,0-1.725,0.389-2.198,0.727l-0.389-1.082c0.575-0.422,1.69-0.845,2.874-0.845
			c2.164,0,3.145,1.285,3.145,2.621c0,1.133-0.676,2.096-2.029,2.586v0.034c1.353,0.271,2.452,1.285,2.452,2.823
			c0,1.758-1.37,3.297-4.007,3.297c-1.234,0-2.316-0.389-2.857-0.744L580.747,92.967z"/>
		<path fill="#D2F7FF" stroke="#000000" stroke-miterlimit="10" d="M595.014,89.062c0,3.736-1.386,5.799-3.821,5.799
			c-2.147,0-3.601-2.012-3.635-5.647c0-3.686,1.589-5.714,3.821-5.714C593.695,83.499,595.014,85.562,595.014,89.062z
			 M589.046,89.23c0,2.857,0.879,4.48,2.232,4.48c1.521,0,2.249-1.775,2.249-4.582c0-2.705-0.693-4.48-2.231-4.48
			C589.993,84.648,589.046,86.238,589.046,89.23z"/>
		<path fill="#D2F7FF" stroke="#000000" stroke-miterlimit="10" d="M602.333,89.062c0,3.736-1.386,5.799-3.821,5.799
			c-2.147,0-3.601-2.012-3.635-5.647c0-3.686,1.589-5.714,3.821-5.714C601.015,83.499,602.333,85.562,602.333,89.062z
			 M596.365,89.23c0,2.857,0.879,4.48,2.231,4.48c1.521,0,2.249-1.775,2.249-4.582c0-2.705-0.693-4.48-2.231-4.48
			C597.312,84.648,596.365,86.238,596.365,89.23z"/>
	</g>
	<g>
		<path fill="#D2F7FF" stroke="#000000" stroke-miterlimit="10" d="M484.426,877.69c0.423,0.271,1.403,0.693,2.435,0.693
			c1.911,0,2.502-1.217,2.485-2.13c-0.017-1.539-1.403-2.198-2.84-2.198h-0.828v-1.115h0.828c1.082,0,2.452-0.559,2.452-1.86
			c0-0.879-0.558-1.656-1.927-1.656c-0.879,0-1.725,0.389-2.198,0.727l-0.389-1.082c0.575-0.423,1.69-0.846,2.874-0.846
			c2.164,0,3.145,1.285,3.145,2.621c0,1.133-0.676,2.097-2.029,2.587v0.033c1.353,0.271,2.452,1.285,2.452,2.823
			c0,1.759-1.37,3.297-4.007,3.297c-1.234,0-2.316-0.389-2.857-0.743L484.426,877.69z"/>
		<path fill="#D2F7FF" stroke="#000000" stroke-miterlimit="10" d="M497.663,869.457c-0.304-0.017-0.693,0-1.116,0.068
			c-2.333,0.389-3.567,2.096-3.821,3.905h0.051c0.524-0.693,1.438-1.269,2.654-1.269c1.944,0,3.314,1.403,3.314,3.551
			c0,2.012-1.37,3.871-3.652,3.871c-2.35,0-3.889-1.825-3.889-4.683c0-2.164,0.778-3.872,1.86-4.954
			c0.913-0.896,2.13-1.454,3.517-1.623c0.439-0.067,0.812-0.084,1.082-0.084V869.457z M497.24,875.797
			c0-1.572-0.896-2.519-2.265-2.519c-0.896,0-1.725,0.558-2.13,1.353c-0.102,0.169-0.169,0.389-0.169,0.659
			c0.034,1.81,0.862,3.145,2.417,3.145C496.378,878.435,497.24,877.369,497.24,875.797z"/>
	</g>
	<g>
		<path fill="#D2F7FF" stroke="#000000" stroke-miterlimit="10" d="M683.876,877.69c0.422,0.271,1.403,0.693,2.435,0.693
			c1.91,0,2.502-1.217,2.485-2.13c-0.018-1.539-1.403-2.198-2.841-2.198h-0.828v-1.115h0.828c1.082,0,2.451-0.559,2.451-1.86
			c0-0.879-0.558-1.656-1.927-1.656c-0.88,0-1.725,0.389-2.198,0.727l-0.389-1.082c0.575-0.423,1.69-0.846,2.874-0.846
			c2.164,0,3.145,1.285,3.145,2.621c0,1.133-0.676,2.097-2.028,2.587v0.033c1.353,0.271,2.451,1.285,2.451,2.823
			c0,1.759-1.369,3.297-4.007,3.297c-1.234,0-2.316-0.389-2.857-0.743L683.876,877.69z"/>
		<path fill="#D2F7FF" stroke="#000000" stroke-miterlimit="10" d="M697.112,869.457c-0.305-0.017-0.693,0-1.116,0.068
			c-2.333,0.389-3.567,2.096-3.82,3.905h0.051c0.523-0.693,1.437-1.269,2.654-1.269c1.944,0,3.313,1.403,3.313,3.551
			c0,2.012-1.369,3.871-3.651,3.871c-2.351,0-3.889-1.825-3.889-4.683c0-2.164,0.777-3.872,1.859-4.954
			c0.913-0.896,2.13-1.454,3.517-1.623c0.439-0.067,0.812-0.084,1.082-0.084V869.457z M696.689,875.797
			c0-1.572-0.896-2.519-2.266-2.519c-0.896,0-1.725,0.558-2.13,1.353c-0.102,0.169-0.169,0.389-0.169,0.659
			c0.033,1.81,0.862,3.145,2.418,3.145C695.827,878.435,696.689,877.369,696.689,875.797z"/>
	</g>
	<g>
		<path fill="#D2F7FF" stroke="#000000" stroke-miterlimit="10" d="M837.233,830.17c-0.305-0.017-0.693,0-1.116,0.068
			c-2.333,0.389-3.567,2.096-3.82,3.905h0.051c0.523-0.693,1.437-1.269,2.654-1.269c1.944,0,3.313,1.403,3.313,3.551
			c0,2.012-1.369,3.871-3.651,3.871c-2.351,0-3.889-1.825-3.889-4.683c0-2.164,0.777-3.872,1.859-4.954
			c0.913-0.896,2.13-1.454,3.517-1.623c0.439-0.067,0.812-0.084,1.082-0.084V830.17z M836.811,836.51
			c0-1.572-0.896-2.519-2.266-2.519c-0.896,0-1.725,0.558-2.13,1.353c-0.102,0.169-0.169,0.389-0.169,0.659
			c0.033,1.81,0.862,3.145,2.418,3.145C835.948,839.147,836.811,838.082,836.811,836.51z"/>
		<path fill="#D2F7FF" stroke="#000000" stroke-miterlimit="10" d="M845.584,834.498c0,3.736-1.387,5.799-3.821,5.799
			c-2.146,0-3.601-2.012-3.635-5.646c0-3.686,1.59-5.715,3.821-5.715C844.266,828.936,845.584,830.999,845.584,834.498z
			 M839.616,834.667c0,2.857,0.879,4.48,2.231,4.48c1.521,0,2.249-1.775,2.249-4.581c0-2.705-0.693-4.48-2.232-4.48
			C840.562,830.086,839.616,831.675,839.616,834.667z"/>
	</g>
	<g>
		<path fill="#D2F7FF" stroke="#000000" stroke-miterlimit="10" d="M962.848,830.17c-0.305-0.017-0.693,0-1.116,0.068
			c-2.333,0.389-3.567,2.096-3.82,3.905h0.051c0.523-0.693,1.437-1.269,2.654-1.269c1.944,0,3.313,1.403,3.313,3.551
			c0,2.012-1.369,3.871-3.652,3.871c-2.35,0-3.888-1.825-3.888-4.683c0-2.164,0.777-3.872,1.859-4.954
			c0.913-0.896,2.13-1.454,3.517-1.623c0.439-0.067,0.812-0.084,1.082-0.084V830.17z M962.425,836.51
			c0-1.572-0.896-2.519-2.266-2.519c-0.896,0-1.725,0.558-2.13,1.353c-0.102,0.169-0.169,0.389-0.169,0.659
			c0.033,1.81,0.862,3.145,2.417,3.145C961.562,839.147,962.425,838.082,962.425,836.51z"/>
		<path fill="#D2F7FF" stroke="#000000" stroke-miterlimit="10" d="M971.198,834.498c0,3.736-1.387,5.799-3.821,5.799
			c-2.146,0-3.601-2.012-3.635-5.646c0-3.686,1.59-5.715,3.821-5.715C969.88,828.936,971.198,830.999,971.198,834.498z
			 M965.23,834.667c0,2.857,0.879,4.48,2.231,4.48c1.521,0,2.249-1.775,2.249-4.581c0-2.705-0.693-4.48-2.232-4.48
			C966.177,830.086,965.23,831.675,965.23,834.667z"/>
	</g>
	<g>
		<path fill="#D2F7FF" stroke="#000000" stroke-miterlimit="10" d="M894.464,838.403c0.422,0.271,1.403,0.693,2.435,0.693
			c1.91,0,2.502-1.217,2.485-2.13c-0.018-1.539-1.403-2.198-2.841-2.198h-0.828v-1.115h0.828c1.082,0,2.451-0.559,2.451-1.86
			c0-0.879-0.558-1.656-1.927-1.656c-0.88,0-1.725,0.389-2.198,0.727l-0.389-1.082c0.575-0.423,1.69-0.846,2.874-0.846
			c2.164,0,3.145,1.285,3.145,2.621c0,1.133-0.676,2.097-2.028,2.587v0.033c1.353,0.271,2.451,1.285,2.451,2.823
			c0,1.759-1.369,3.297-4.007,3.297c-1.234,0-2.316-0.389-2.857-0.743L894.464,838.403z"/>
		<path fill="#D2F7FF" stroke="#000000" stroke-miterlimit="10" d="M908.731,834.498c0,3.736-1.387,5.799-3.821,5.799
			c-2.146,0-3.601-2.012-3.635-5.646c0-3.686,1.59-5.715,3.821-5.715C907.413,828.936,908.731,830.999,908.731,834.498z
			 M902.764,834.667c0,2.857,0.879,4.48,2.231,4.48c1.521,0,2.249-1.775,2.249-4.581c0-2.705-0.693-4.48-2.232-4.48
			C903.71,830.086,902.764,831.675,902.764,834.667z"/>
	</g>
	<g>
		<path fill="#D2F7FF" stroke="#000000" stroke-miterlimit="10" d="M1047.757,830.17c-0.305-0.017-0.693,0-1.116,0.068
			c-2.333,0.389-3.567,2.096-3.82,3.905h0.051c0.523-0.693,1.437-1.269,2.654-1.269c1.944,0,3.313,1.403,3.313,3.551
			c0,2.012-1.369,3.871-3.651,3.871c-2.351,0-3.889-1.825-3.889-4.683c0-2.164,0.777-3.872,1.859-4.954
			c0.913-0.896,2.13-1.454,3.517-1.623c0.439-0.067,0.812-0.084,1.082-0.084V830.17z M1047.334,836.51
			c0-1.572-0.896-2.519-2.266-2.519c-0.896,0-1.725,0.558-2.13,1.353c-0.102,0.169-0.169,0.389-0.169,0.659
			c0.033,1.81,0.862,3.145,2.418,3.145C1046.472,839.147,1047.334,838.082,1047.334,836.51z"/>
		<path fill="#D2F7FF" stroke="#000000" stroke-miterlimit="10" d="M1056.107,834.498c0,3.736-1.387,5.799-3.821,5.799
			c-2.146,0-3.601-2.012-3.635-5.646c0-3.686,1.59-5.715,3.821-5.715C1054.789,828.936,1056.107,830.999,1056.107,834.498z
			 M1050.14,834.667c0,2.857,0.879,4.48,2.231,4.48c1.521,0,2.249-1.775,2.249-4.581c0-2.705-0.693-4.48-2.232-4.48
			C1051.086,830.086,1050.14,831.675,1050.14,834.667z"/>
	</g>
	<g>
		<path fill="#D2F7FF" stroke="#000000" stroke-miterlimit="10" d="M756.883,830.17c-0.305-0.017-0.693,0-1.116,0.068
			c-2.333,0.389-3.567,2.096-3.82,3.905h0.051c0.523-0.693,1.437-1.269,2.654-1.269c1.944,0,3.313,1.403,3.313,3.551
			c0,2.012-1.369,3.871-3.652,3.871c-2.35,0-3.888-1.825-3.888-4.683c0-2.164,0.777-3.872,1.859-4.954
			c0.913-0.896,2.13-1.454,3.517-1.623c0.439-0.067,0.812-0.084,1.082-0.084V830.17z M756.46,836.51
			c0-1.572-0.896-2.519-2.266-2.519c-0.896,0-1.725,0.558-2.13,1.353c-0.102,0.169-0.169,0.389-0.169,0.659
			c0.033,1.81,0.862,3.145,2.417,3.145C755.598,839.147,756.46,838.082,756.46,836.51z"/>
		<path fill="#D2F7FF" stroke="#000000" stroke-miterlimit="10" d="M765.233,834.498c0,3.736-1.387,5.799-3.821,5.799
			c-2.146,0-3.601-2.012-3.635-5.646c0-3.686,1.59-5.715,3.821-5.715C763.915,828.936,765.233,830.999,765.233,834.498z
			 M759.266,834.667c0,2.857,0.879,4.48,2.231,4.48c1.521,0,2.249-1.775,2.249-4.581c0-2.705-0.693-4.48-2.232-4.48
			C760.212,830.086,759.266,831.675,759.266,834.667z"/>
	</g>
	<g>
		<path fill="#D2F7FF" stroke="#000000" stroke-miterlimit="10" d="M217.265,830.17c-0.304-0.017-0.693,0-1.116,0.068
			c-2.333,0.389-3.567,2.096-3.821,3.905h0.05c0.524-0.693,1.437-1.269,2.655-1.269c1.944,0,3.313,1.403,3.313,3.551
			c0,2.012-1.37,3.871-3.652,3.871c-2.35,0-3.889-1.825-3.889-4.683c0-2.164,0.778-3.872,1.86-4.954
			c0.913-0.896,2.13-1.454,3.517-1.623c0.439-0.067,0.812-0.084,1.082-0.084V830.17z M216.842,836.51
			c0-1.572-0.896-2.519-2.265-2.519c-0.896,0-1.725,0.558-2.13,1.353c-0.102,0.169-0.169,0.389-0.169,0.659
			c0.034,1.81,0.862,3.145,2.417,3.145C215.979,839.147,216.842,838.082,216.842,836.51z"/>
		<path fill="#D2F7FF" stroke="#000000" stroke-miterlimit="10" d="M225.615,834.498c0,3.736-1.386,5.799-3.821,5.799
			c-2.147,0-3.601-2.012-3.635-5.646c0-3.686,1.589-5.715,3.821-5.715C224.296,828.936,225.615,830.999,225.615,834.498z
			 M219.646,834.667c0,2.857,0.879,4.48,2.232,4.48c1.521,0,2.249-1.775,2.249-4.581c0-2.705-0.693-4.48-2.231-4.48
			C220.594,830.086,219.646,831.675,219.646,834.667z"/>
	</g>
	<g>
		<path fill="#D2F7FF" stroke="#000000" stroke-miterlimit="10" d="M342.879,830.17c-0.304-0.017-0.693,0-1.116,0.068
			c-2.333,0.389-3.567,2.096-3.821,3.905h0.05c0.524-0.693,1.437-1.269,2.655-1.269c1.944,0,3.313,1.403,3.313,3.551
			c0,2.012-1.37,3.871-3.652,3.871c-2.35,0-3.889-1.825-3.889-4.683c0-2.164,0.778-3.872,1.86-4.954
			c0.913-0.896,2.13-1.454,3.517-1.623c0.439-0.067,0.812-0.084,1.082-0.084V830.17z M342.456,836.51
			c0-1.572-0.896-2.519-2.265-2.519c-0.896,0-1.725,0.558-2.13,1.353c-0.102,0.169-0.169,0.389-0.169,0.659
			c0.034,1.81,0.862,3.145,2.417,3.145C341.594,839.147,342.456,838.082,342.456,836.51z"/>
		<path fill="#D2F7FF" stroke="#000000" stroke-miterlimit="10" d="M351.229,834.498c0,3.736-1.386,5.799-3.821,5.799
			c-2.147,0-3.601-2.012-3.635-5.646c0-3.686,1.589-5.715,3.821-5.715C349.91,828.936,351.229,830.999,351.229,834.498z
			 M345.261,834.667c0,2.857,0.879,4.48,2.232,4.48c1.521,0,2.249-1.775,2.249-4.581c0-2.705-0.693-4.48-2.231-4.48
			C346.208,830.086,345.261,831.675,345.261,834.667z"/>
	</g>
	<g>
		<path fill="#D2F7FF" stroke="#000000" stroke-miterlimit="10" d="M274.496,838.403c0.423,0.271,1.403,0.693,2.435,0.693
			c1.911,0,2.502-1.217,2.485-2.13c-0.017-1.539-1.403-2.198-2.84-2.198h-0.828v-1.115h0.828c1.082,0,2.452-0.559,2.452-1.86
			c0-0.879-0.558-1.656-1.927-1.656c-0.879,0-1.725,0.389-2.198,0.727l-0.389-1.082c0.575-0.423,1.69-0.846,2.874-0.846
			c2.164,0,3.145,1.285,3.145,2.621c0,1.133-0.676,2.097-2.029,2.587v0.033c1.353,0.271,2.452,1.285,2.452,2.823
			c0,1.759-1.37,3.297-4.007,3.297c-1.234,0-2.316-0.389-2.857-0.743L274.496,838.403z"/>
		<path fill="#D2F7FF" stroke="#000000" stroke-miterlimit="10" d="M288.763,834.498c0,3.736-1.386,5.799-3.821,5.799
			c-2.147,0-3.601-2.012-3.635-5.646c0-3.686,1.589-5.715,3.821-5.715C287.444,828.936,288.763,830.999,288.763,834.498z
			 M282.795,834.667c0,2.857,0.879,4.48,2.232,4.48c1.521,0,2.249-1.775,2.249-4.581c0-2.705-0.693-4.48-2.231-4.48
			C283.742,830.086,282.795,831.675,282.795,834.667z"/>
	</g>
	<g>
		<path fill="#D2F7FF" stroke="#000000" stroke-miterlimit="10" d="M427.79,830.17c-0.304-0.017-0.693,0-1.116,0.068
			c-2.333,0.389-3.567,2.096-3.821,3.905h0.05c0.524-0.693,1.437-1.269,2.655-1.269c1.944,0,3.313,1.403,3.313,3.551
			c0,2.012-1.37,3.871-3.652,3.871c-2.35,0-3.889-1.825-3.889-4.683c0-2.164,0.778-3.872,1.86-4.954
			c0.913-0.896,2.13-1.454,3.517-1.623c0.439-0.067,0.812-0.084,1.082-0.084V830.17z M427.367,836.51
			c0-1.572-0.896-2.519-2.265-2.519c-0.896,0-1.725,0.558-2.13,1.353c-0.102,0.169-0.169,0.389-0.169,0.659
			c0.034,1.81,0.862,3.145,2.417,3.145C426.505,839.147,427.367,838.082,427.367,836.51z"/>
		<path fill="#D2F7FF" stroke="#000000" stroke-miterlimit="10" d="M436.14,834.498c0,3.736-1.386,5.799-3.821,5.799
			c-2.147,0-3.601-2.012-3.635-5.646c0-3.686,1.589-5.715,3.821-5.715C434.821,828.936,436.14,830.999,436.14,834.498z
			 M430.172,834.667c0,2.857,0.879,4.48,2.232,4.48c1.521,0,2.249-1.775,2.249-4.581c0-2.705-0.693-4.48-2.231-4.48
			C431.119,830.086,430.172,831.675,430.172,834.667z"/>
	</g>
	<g>
		<path fill="#D2F7FF" stroke="#000000" stroke-miterlimit="10" d="M136.916,830.17c-0.304-0.017-0.693,0-1.116,0.068
			c-2.333,0.389-3.567,2.096-3.821,3.905h0.05c0.524-0.693,1.437-1.269,2.655-1.269c1.944,0,3.313,1.403,3.313,3.551
			c0,2.012-1.37,3.871-3.652,3.871c-2.35,0-3.889-1.825-3.889-4.683c0-2.164,0.778-3.872,1.86-4.954
			c0.913-0.896,2.13-1.454,3.517-1.623c0.439-0.067,0.812-0.084,1.082-0.084V830.17z M136.493,836.51
			c0-1.572-0.896-2.519-2.265-2.519c-0.896,0-1.725,0.558-2.13,1.353c-0.102,0.169-0.169,0.389-0.169,0.659
			c0.034,1.81,0.862,3.145,2.417,3.145C135.631,839.147,136.493,838.082,136.493,836.51z"/>
		<path fill="#D2F7FF" stroke="#000000" stroke-miterlimit="10" d="M145.266,834.498c0,3.736-1.386,5.799-3.821,5.799
			c-2.147,0-3.601-2.012-3.635-5.646c0-3.686,1.589-5.715,3.821-5.715C143.947,828.936,145.266,830.999,145.266,834.498z
			 M139.298,834.667c0,2.857,0.879,4.48,2.232,4.48c1.521,0,2.249-1.775,2.249-4.581c0-2.705-0.693-4.48-2.231-4.48
			C140.245,830.086,139.298,831.675,139.298,834.667z"/>
	</g>
	<g>
		<path fill="#D2F7FF" stroke="#000000" stroke-miterlimit="10" d="M583.366,869.795h-0.034l-1.91,1.032l-0.288-1.133l2.401-1.285
			h1.268v10.989h-1.437V869.795z"/>
		<path fill="#D2F7FF" stroke="#000000" stroke-miterlimit="10" d="M594.759,873.785c0,3.736-1.386,5.799-3.821,5.799
			c-2.147,0-3.601-2.012-3.635-5.646c0-3.686,1.589-5.715,3.821-5.715C593.44,868.223,594.759,870.286,594.759,873.785z
			 M588.791,873.954c0,2.857,0.879,4.48,2.232,4.48c1.521,0,2.249-1.775,2.249-4.581c0-2.705-0.693-4.48-2.231-4.48
			C589.738,869.373,588.791,870.962,588.791,873.954z"/>
		<path fill="#D2F7FF" stroke="#000000" stroke-miterlimit="10" d="M599.373,879.398v-2.992h-5.106v-0.98l4.903-7.017h1.606v6.83
			h1.538v1.167h-1.538v2.992H599.373z M599.373,875.239v-3.669c0-0.574,0.017-1.149,0.051-1.725h-0.051
			c-0.338,0.643-0.608,1.116-0.913,1.623l-2.688,3.736v0.034H599.373z"/>
	</g>
	<g>
		<path fill="#D2F7FF" stroke="#000000" stroke-miterlimit="10" d="M583.366,917.391h-0.034l-1.91,1.031l-0.288-1.133l2.401-1.285
			h1.268v10.989h-1.437V917.391z"/>
		<path fill="#D2F7FF" stroke="#000000" stroke-miterlimit="10" d="M593.728,917.052c-0.304-0.017-0.693,0-1.116,0.067
			c-2.333,0.39-3.567,2.097-3.821,3.906h0.051c0.524-0.693,1.438-1.269,2.654-1.269c1.944,0,3.314,1.403,3.314,3.551
			c0,2.012-1.37,3.871-3.652,3.871c-2.35,0-3.889-1.825-3.889-4.683c0-2.164,0.778-3.872,1.86-4.954
			c0.913-0.896,2.13-1.454,3.517-1.623c0.439-0.067,0.812-0.084,1.082-0.084V917.052z M593.305,923.392
			c0-1.572-0.896-2.519-2.265-2.519c-0.896,0-1.725,0.558-2.13,1.353c-0.102,0.169-0.169,0.389-0.169,0.659
			c0.034,1.809,0.862,3.145,2.417,3.145C592.443,926.029,593.305,924.965,593.305,923.392z"/>
		<path fill="#D2F7FF" stroke="#000000" stroke-miterlimit="10" d="M594.639,924.203c0-1.386,0.829-2.366,2.181-2.941l-0.017-0.051
			c-1.217-0.574-1.741-1.521-1.741-2.469c0-1.741,1.471-2.925,3.398-2.925c2.13,0,3.195,1.336,3.195,2.705
			c0,0.931-0.456,1.928-1.809,2.57v0.051c1.369,0.541,2.215,1.505,2.215,2.84c0,1.911-1.64,3.195-3.737,3.195
			C596.025,927.179,594.639,925.81,594.639,924.203z M600.557,924.136c0-1.335-0.93-1.978-2.418-2.4
			c-1.285,0.372-1.978,1.217-1.978,2.266c-0.05,1.115,0.795,2.096,2.198,2.096C599.694,926.097,600.557,925.269,600.557,924.136z
			 M596.465,918.642c0,1.099,0.828,1.69,2.096,2.028c0.947-0.321,1.674-0.997,1.674-1.995c0-0.879-0.524-1.792-1.86-1.792
			C597.142,916.883,596.465,917.694,596.465,918.642z"/>
	</g>
	<g>
		<path fill="#D2F7FF" stroke="#000000" stroke-miterlimit="10" d="M892.604,926.993v-0.913l1.167-1.133
			c2.806-2.671,4.074-4.091,4.091-5.748c0-1.116-0.541-2.147-2.181-2.147c-0.997,0-1.826,0.508-2.333,0.93l-0.474-1.048
			c0.761-0.643,1.843-1.116,3.111-1.116c2.366,0,3.364,1.623,3.364,3.196c0,2.028-1.471,3.668-3.787,5.9l-0.879,0.812v0.033h4.937
			v1.234H892.604z"/>
		<path fill="#D2F7FF" stroke="#000000" stroke-miterlimit="10" d="M907.058,916.004v0.98l-4.784,10.009h-1.539l4.768-9.722v-0.033
			h-5.376v-1.234H907.058z"/>
		<path fill="#D2F7FF" stroke="#000000" stroke-miterlimit="10" d="M914.545,921.38c0,3.736-1.387,5.799-3.821,5.799
			c-2.146,0-3.601-2.012-3.635-5.646c0-3.686,1.59-5.715,3.821-5.715C913.227,915.817,914.545,917.881,914.545,921.38z
			 M908.577,921.549c0,2.857,0.879,4.48,2.231,4.48c1.521,0,2.249-1.775,2.249-4.582c0-2.705-0.693-4.479-2.232-4.479
			C909.523,916.968,908.577,918.557,908.577,921.549z"/>
	</g>
	<g>
		<path fill="#D2F7FF" stroke="#000000" stroke-miterlimit="10" d="M269.992,926.993v-0.913l1.167-1.133
			c2.807-2.671,4.075-4.091,4.091-5.748c0-1.116-0.541-2.147-2.181-2.147c-0.998,0-1.826,0.508-2.333,0.93l-0.474-1.048
			c0.761-0.643,1.843-1.116,3.111-1.116c2.367,0,3.365,1.623,3.365,3.196c0,2.028-1.471,3.668-3.787,5.9l-0.879,0.812v0.033h4.937
			v1.234H269.992z"/>
		<path fill="#D2F7FF" stroke="#000000" stroke-miterlimit="10" d="M284.446,916.004v0.98l-4.785,10.009h-1.539l4.768-9.722v-0.033
			h-5.376v-1.234H284.446z"/>
		<path fill="#D2F7FF" stroke="#000000" stroke-miterlimit="10" d="M291.934,921.38c0,3.736-1.386,5.799-3.821,5.799
			c-2.147,0-3.601-2.012-3.635-5.646c0-3.686,1.589-5.715,3.821-5.715C290.615,915.817,291.934,917.881,291.934,921.38z
			 M285.966,921.549c0,2.857,0.879,4.48,2.231,4.48c1.521,0,2.249-1.775,2.249-4.582c0-2.705-0.693-4.479-2.231-4.479
			C286.912,916.968,285.966,918.557,285.966,921.549z"/>
	</g>
	<g>
		<path fill="#D2F7FF" stroke="#000000" stroke-miterlimit="10" d="M41.941,731.911c0.034-0.321,0-0.693-0.051-1.2
			c-0.118-0.862-0.473-1.674-1.065-2.3c-0.659-0.727-1.623-1.251-2.925-1.454v0.051c0.744,0.609,1.184,1.488,1.184,2.587
			c0,1.979-1.488,3.246-3.365,3.246c-2.08,0-3.905-1.505-3.905-3.753c0-2.249,1.826-3.635,4.632-3.635
			c2.418,0,4.108,0.812,5.157,1.894c0.828,0.845,1.335,2.012,1.471,3.195c0.084,0.541,0.102,1.014,0.084,1.369H41.941z
			 M35.618,731.37c1.369,0,2.333-0.828,2.333-2.113c0-0.997-0.49-1.775-1.15-2.164c-0.135-0.085-0.304-0.136-0.541-0.136
			c-1.876,0-3.313,0.693-3.313,2.249C32.947,730.474,34.062,731.37,35.618,731.37z"/>
		<path fill="#D2F7FF" stroke="#000000" stroke-miterlimit="10" d="M37.376,718.15c3.737,0,5.799,1.387,5.799,3.821
			c0,2.146-2.012,3.601-5.647,3.635c-3.686,0-5.714-1.59-5.714-3.821C31.814,719.469,33.876,718.15,37.376,718.15z M37.545,724.118
			c2.857,0,4.48-0.879,4.48-2.231c0-1.521-1.775-2.249-4.582-2.249c-2.705,0-4.48,0.693-4.48,2.232
			C32.963,723.172,34.553,724.118,37.545,724.118z"/>
	</g>
	<g>
		<path fill="#D2F7FF" stroke="#000000" stroke-miterlimit="10" d="M1129.047,734.371h0.98l10.009,4.785v1.538l-9.722-4.768h-0.033
			v5.376h-1.234V734.371z"/>
		<path fill="#D2F7FF" stroke="#000000" stroke-miterlimit="10" d="M1130.095,727.914c-0.017,0.305,0,0.693,0.067,1.116
			c0.39,2.333,2.097,3.567,3.906,3.82V732.8c-0.693-0.523-1.269-1.437-1.269-2.654c0-1.944,1.403-3.313,3.551-3.313
			c2.012,0,3.871,1.369,3.871,3.652c0,2.35-1.825,3.888-4.683,3.888c-2.164,0-3.872-0.777-4.954-1.859
			c-0.896-0.913-1.454-2.13-1.623-3.517c-0.067-0.439-0.084-0.812-0.084-1.082H1130.095z M1136.435,728.337
			c-1.572,0-2.519,0.896-2.519,2.266c0,0.896,0.558,1.725,1.353,2.13c0.169,0.102,0.389,0.169,0.659,0.169
			c1.809-0.033,3.145-0.862,3.145-2.417C1139.072,729.199,1138.008,728.337,1136.435,728.337z"/>
	</g>
	<g>
		<path fill="#D2F7FF" stroke="#000000" stroke-miterlimit="10" d="M1137.246,628.402c-1.386,0-2.366-0.828-2.941-2.181
			l-0.051,0.017c-0.574,1.218-1.521,1.742-2.469,1.742c-1.741,0-2.925-1.472-2.925-3.398c0-2.131,1.336-3.195,2.705-3.195
			c0.931,0,1.928,0.456,2.57,1.809h0.051c0.541-1.369,1.505-2.215,2.84-2.215c1.911,0,3.195,1.641,3.195,3.736
			C1140.222,627.017,1138.853,628.402,1137.246,628.402z M1131.685,626.577c1.099,0,1.69-0.829,2.028-2.097
			c-0.321-0.947-0.997-1.674-1.995-1.674c-0.879,0-1.792,0.524-1.792,1.859C1129.926,625.9,1130.737,626.577,1131.685,626.577z
			 M1137.179,622.485c-1.335,0-1.978,0.93-2.4,2.418c0.372,1.284,1.217,1.978,2.266,1.978c1.115,0.051,2.096-0.794,2.096-2.197
			C1139.14,623.348,1138.312,622.485,1137.179,622.485z"/>
		<path fill="#D2F7FF" stroke="#000000" stroke-miterlimit="10" d="M1140.036,616.35h-2.992v5.105h-0.98l-7.017-4.902v-1.606h6.83
			v-1.538h1.167v1.538h2.992V616.35z M1135.877,616.35h-3.669c-0.574,0-1.149-0.017-1.725-0.051v0.051
			c0.643,0.338,1.116,0.608,1.623,0.913l3.737,2.688h0.033V616.35z"/>
	</g>
	<g>
		<path fill="#D2F7FF" stroke="#000000" stroke-miterlimit="10" d="M1137.246,307.496c-1.386,0-2.366-0.829-2.941-2.181
			l-0.051,0.017c-0.574,1.217-1.521,1.741-2.469,1.741c-1.741,0-2.925-1.471-2.925-3.398c0-2.13,1.336-3.196,2.705-3.196
			c0.931,0,1.928,0.457,2.57,1.809h0.051c0.541-1.369,1.505-2.214,2.84-2.214c1.911,0,3.195,1.64,3.195,3.736
			C1140.222,306.11,1138.853,307.496,1137.246,307.496z M1131.685,305.67c1.099,0,1.69-0.828,2.028-2.096
			c-0.321-0.947-0.997-1.674-1.995-1.674c-0.879,0-1.792,0.524-1.792,1.86C1129.926,304.994,1130.737,305.67,1131.685,305.67z
			 M1137.179,301.579c-1.335,0-1.978,0.93-2.4,2.417c0.372,1.285,1.217,1.979,2.266,1.979c1.115,0.051,2.096-0.795,2.096-2.198
			C1139.14,302.441,1138.312,301.579,1137.179,301.579z"/>
		<path fill="#D2F7FF" stroke="#000000" stroke-miterlimit="10" d="M1140.036,295.443h-2.992v5.106h-0.98l-7.017-4.903v-1.606h6.83
			v-1.539h1.167v1.539h2.992V295.443z M1135.877,295.443h-3.669c-0.574,0-1.149-0.017-1.725-0.051v0.051
			c0.643,0.338,1.116,0.608,1.623,0.913l3.737,2.688h0.033V295.443z"/>
	</g>
	<g>
		<path fill="#D2F7FF" stroke="#000000" stroke-miterlimit="10" d="M1129.047,190.5h0.98l10.009,4.785v1.539l-9.722-4.768h-0.033
			v5.376h-1.234V190.5z"/>
		<path fill="#D2F7FF" stroke="#000000" stroke-miterlimit="10" d="M1134.423,183.013c3.736,0,5.799,1.386,5.799,3.821
			c0,2.147-2.012,3.601-5.646,3.635c-3.686,0-5.715-1.589-5.715-3.821C1128.86,184.332,1130.924,183.013,1134.423,183.013z
			 M1134.592,188.98c2.857,0,4.48-0.879,4.48-2.231c0-1.521-1.775-2.249-4.582-2.249c-2.705,0-4.479,0.693-4.479,2.231
			C1130.011,188.034,1131.6,188.98,1134.592,188.98z"/>
	</g>
	<g>
		<path fill="#D2F7FF" stroke="#000000" stroke-miterlimit="10" d="M1130.434,468.575v0.034l1.031,1.91l-1.133,0.288l-1.285-2.401
			v-1.268h10.989v1.438H1130.434z"/>
		<path fill="#D2F7FF" stroke="#000000" stroke-miterlimit="10" d="M1140.036,459.887h-2.992v5.106h-0.98l-7.017-4.903v-1.606h6.83
			v-1.539h1.167v1.539h2.992V459.887z M1135.877,459.887h-3.669c-0.574,0-1.149-0.017-1.725-0.051v0.051
			c0.643,0.338,1.116,0.608,1.623,0.913l3.737,2.688h0.033V459.887z"/>
		<path fill="#D2F7FF" stroke="#000000" stroke-miterlimit="10" d="M1140.036,457.167h-0.913L1137.99,456
			c-2.671-2.807-4.091-4.075-5.748-4.092c-1.116,0-2.147,0.541-2.147,2.181c0,0.998,0.508,1.826,0.93,2.333l-1.048,0.474
			c-0.643-0.761-1.116-1.843-1.116-3.111c0-2.367,1.623-3.364,3.196-3.364c2.028,0,3.668,1.471,5.9,3.787l0.812,0.879h0.033v-4.937
			h1.234V457.167z"/>
	</g>
	<g>
		<path fill="#D2F7FF" stroke="#000000" stroke-miterlimit="10" d="M1187.575,467.206h-2.992v5.106h-0.98l-7.017-4.903v-1.606h6.83
			v-1.539h1.167v1.539h2.992V467.206z M1183.416,467.206h-3.669c-0.574,0-1.149-0.017-1.725-0.051v0.051
			c0.643,0.338,1.116,0.608,1.623,0.913l3.737,2.688h0.033V467.206z"/>
		<path fill="#D2F7FF" stroke="#000000" stroke-miterlimit="10" d="M1177.837,457.925v4.193l2.823,0.423
			c-0.033-0.253-0.067-0.49-0.067-0.896c0-0.845,0.186-1.691,0.592-2.367c0.49-0.862,1.437-1.572,2.823-1.572
			c2.147,0,3.753,1.708,3.753,4.091c0,1.201-0.338,2.215-0.676,2.739l-1.133-0.372c0.271-0.457,0.608-1.353,0.608-2.35
			c0-1.403-0.913-2.604-2.384-2.604c-1.42,0.017-2.435,0.963-2.435,3.162c0,0.625,0.067,1.116,0.118,1.521l-5.274-0.71v-5.258
			H1177.837z"/>
		<path fill="#D2F7FF" stroke="#000000" stroke-miterlimit="10" d="M1177.634,450.894c-0.017,0.304,0,0.693,0.067,1.116
			c0.39,2.333,2.097,3.567,3.906,3.821v-0.051c-0.693-0.524-1.269-1.438-1.269-2.654c0-1.944,1.403-3.314,3.551-3.314
			c2.012,0,3.871,1.37,3.871,3.652c0,2.35-1.825,3.889-4.683,3.889c-2.164,0-3.872-0.778-4.954-1.86
			c-0.896-0.913-1.454-2.13-1.623-3.517c-0.067-0.439-0.084-0.812-0.084-1.082H1177.634z M1183.974,451.317
			c-1.572,0-2.519,0.896-2.519,2.265c0,0.896,0.558,1.725,1.353,2.13c0.169,0.102,0.389,0.169,0.659,0.169
			c1.809-0.034,3.145-0.862,3.145-2.417C1186.611,452.179,1185.547,451.317,1183.974,451.317z"/>
	</g>
	<g>
		<path fill="#D2F7FF" stroke="#000000" stroke-miterlimit="10" d="M40.2,610.541c-1.386,0-2.367-0.828-2.942-2.181l-0.051,0.017
			c-0.575,1.218-1.521,1.742-2.468,1.742c-1.741,0-2.925-1.472-2.925-3.398c0-2.131,1.335-3.195,2.705-3.195
			c0.93,0,1.927,0.456,2.57,1.809h0.051c0.541-1.369,1.504-2.215,2.84-2.215c1.91,0,3.195,1.641,3.195,3.736
			C43.175,609.155,41.806,610.541,40.2,610.541z M34.637,608.716c1.099,0,1.691-0.829,2.029-2.097
			c-0.321-0.947-0.998-1.674-1.995-1.674c-0.879,0-1.792,0.524-1.792,1.859C32.879,608.039,33.69,608.716,34.637,608.716z
			 M40.132,604.624c-1.335,0-1.978,0.93-2.4,2.418c0.372,1.284,1.217,1.978,2.265,1.978c1.116,0.051,2.097-0.794,2.097-2.197
			C42.093,605.486,41.265,604.624,40.132,604.624z"/>
		<path fill="#D2F7FF" stroke="#000000" stroke-miterlimit="10" d="M42.989,598.488h-2.993v5.105h-0.98L32,598.691v-1.606h6.83
			v-1.539h1.167v1.539h2.993V598.488z M38.83,598.488h-3.668c-0.575,0-1.15-0.017-1.725-0.051v0.051
			c0.643,0.338,1.116,0.608,1.623,0.913l3.736,2.688h0.034V598.488z"/>
	</g>
	<g>
		<path fill="#D2F7FF" stroke="#000000" stroke-miterlimit="10" d="M33.386,463.246v0.034l1.031,1.91l-1.133,0.288L32,463.077
			v-1.268h10.989v1.437H33.386z"/>
		<path fill="#D2F7FF" stroke="#000000" stroke-miterlimit="10" d="M42.989,459.157h-0.913l-1.133-1.167
			c-2.671-2.807-4.091-4.075-5.748-4.092c-1.116,0-2.147,0.541-2.147,2.181c0,0.998,0.507,1.826,0.93,2.333l-1.048,0.474
			c-0.643-0.761-1.116-1.843-1.116-3.111c0-2.367,1.623-3.364,3.195-3.364c2.029,0,3.669,1.471,5.9,3.787l0.812,0.879h0.034v-4.937
			h1.234V459.157z"/>
		<path fill="#D2F7FF" stroke="#000000" stroke-miterlimit="10" d="M37.376,444.534c3.737,0,5.799,1.386,5.799,3.821
			c0,2.147-2.012,3.601-5.647,3.635c-3.686,0-5.714-1.589-5.714-3.821C31.814,445.853,33.876,444.534,37.376,444.534z
			 M37.545,450.502c2.857,0,4.48-0.879,4.48-2.231c0-1.521-1.775-2.249-4.582-2.249c-2.705,0-4.48,0.693-4.48,2.231
			C32.963,449.556,34.553,450.502,37.545,450.502z"/>
	</g>
	<g>
		<path fill="#D2F7FF" stroke="#000000" stroke-miterlimit="10" d="M33.048,331.012c-0.017,0.304,0,0.693,0.068,1.116
			c0.389,2.333,2.096,3.567,3.905,3.821v-0.05c-0.693-0.524-1.268-1.437-1.268-2.655c0-1.944,1.403-3.313,3.551-3.313
			c2.012,0,3.872,1.37,3.872,3.652c0,2.35-1.826,3.889-4.683,3.889c-2.164,0-3.872-0.778-4.954-1.86
			c-0.896-0.913-1.454-2.13-1.623-3.517c-0.068-0.439-0.084-0.812-0.084-1.082H33.048z M39.388,331.435
			c-1.572,0-2.519,0.896-2.519,2.265c0,0.896,0.558,1.725,1.353,2.13c0.169,0.102,0.389,0.169,0.659,0.169
			c1.809-0.034,3.145-0.862,3.145-2.417C42.025,332.297,40.96,331.435,39.388,331.435z"/>
		<path fill="#D2F7FF" stroke="#000000" stroke-miterlimit="10" d="M37.376,322.662c3.737,0,5.799,1.386,5.799,3.821
			c0,2.147-2.012,3.601-5.647,3.635c-3.686,0-5.714-1.589-5.714-3.821C31.814,323.98,33.876,322.662,37.376,322.662z M37.545,328.63
			c2.857,0,4.48-0.879,4.48-2.232c0-1.521-1.775-2.249-4.582-2.249c-2.705,0-4.48,0.693-4.48,2.231
			C32.963,327.683,34.553,328.63,37.545,328.63z"/>
	</g>
	<g>
		<path fill="#D2F7FF" stroke="#000000" stroke-miterlimit="10" d="M33.386,224.186v0.034l1.031,1.91l-1.133,0.288L32,224.017
			v-1.268h10.989v1.437H33.386z"/>
		<path fill="#D2F7FF" stroke="#000000" stroke-miterlimit="10" d="M37.376,212.792c3.737,0,5.799,1.386,5.799,3.821
			c0,2.147-2.012,3.601-5.647,3.635c-3.686,0-5.714-1.589-5.714-3.821C31.814,214.111,33.876,212.792,37.376,212.792z
			 M37.545,218.761c2.857,0,4.48-0.879,4.48-2.232c0-1.521-1.775-2.249-4.582-2.249c-2.705,0-4.48,0.693-4.48,2.231
			C32.963,217.813,34.553,218.761,37.545,218.761z"/>
		<path fill="#D2F7FF" stroke="#000000" stroke-miterlimit="10" d="M42.989,212.777h-0.913l-1.133-1.167
			c-2.671-2.807-4.091-4.075-5.748-4.091c-1.116,0-2.147,0.541-2.147,2.181c0,0.998,0.507,1.826,0.93,2.333l-1.048,0.474
			c-0.643-0.761-1.116-1.843-1.116-3.111c0-2.367,1.623-3.365,3.195-3.365c2.029,0,3.669,1.471,5.9,3.787l0.812,0.879h0.034v-4.937
			h1.234V212.777z"/>
	</g>
	<g>
		<path fill="#D2F7FF" stroke="#000000" stroke-miterlimit="10" d="M587.526,30.247v0.98l-4.785,10.009h-1.539l4.768-9.721v-0.034
			h-5.376v-1.234H587.526z"/>
		<path fill="#D2F7FF" stroke="#000000" stroke-miterlimit="10" d="M595.014,35.623c0,3.737-1.386,5.799-3.821,5.799
			c-2.147,0-3.601-2.012-3.635-5.647c0-3.686,1.589-5.714,3.821-5.714C593.695,30.061,595.014,32.124,595.014,35.623z
			 M589.046,35.792c0,2.857,0.879,4.48,2.232,4.48c1.521,0,2.249-1.775,2.249-4.582c0-2.705-0.693-4.48-2.231-4.48
			C589.993,31.21,589.046,32.8,589.046,35.792z"/>
		<path fill="#D2F7FF" stroke="#000000" stroke-miterlimit="10" d="M602.333,35.623c0,3.737-1.386,5.799-3.821,5.799
			c-2.147,0-3.601-2.012-3.635-5.647c0-3.686,1.589-5.714,3.821-5.714C601.015,30.061,602.333,32.124,602.333,35.623z
			 M596.365,35.792c0,2.857,0.879,4.48,2.231,4.48c1.521,0,2.249-1.775,2.249-4.582c0-2.705-0.693-4.48-2.231-4.48
			C597.312,31.21,596.365,32.8,596.365,35.792z"/>
	</g>
	<g>
		<path fill="#D2F7FF" stroke="#000000" stroke-miterlimit="10" d="M1042.335,83.685v0.98l-4.784,10.009h-1.539l4.768-9.721v-0.034
			h-5.376v-1.234H1042.335z"/>
		<path fill="#D2F7FF" stroke="#000000" stroke-miterlimit="10" d="M1049.823,89.062c0,3.736-1.387,5.799-3.821,5.799
			c-2.146,0-3.601-2.012-3.635-5.647c0-3.686,1.59-5.714,3.821-5.714C1048.505,83.499,1049.823,85.562,1049.823,89.062z
			 M1043.855,89.23c0,2.857,0.879,4.48,2.231,4.48c1.521,0,2.249-1.775,2.249-4.582c0-2.705-0.693-4.48-2.232-4.48
			C1044.802,84.648,1043.855,86.238,1043.855,89.23z"/>
	</g>
	<g>
		<path fill="#D2F7FF" stroke="#000000" stroke-miterlimit="10" d="M140.145,83.685v0.98l-4.785,10.009h-1.539l4.768-9.721v-0.034
			h-5.376v-1.234H140.145z"/>
		<path fill="#D2F7FF" stroke="#000000" stroke-miterlimit="10" d="M147.632,89.062c0,3.736-1.386,5.799-3.821,5.799
			c-2.147,0-3.601-2.012-3.635-5.647c0-3.686,1.589-5.714,3.821-5.714C146.313,83.499,147.632,85.562,147.632,89.062z
			 M141.664,89.23c0,2.857,0.879,4.48,2.232,4.48c1.521,0,2.249-1.775,2.249-4.582c0-2.705-0.693-4.48-2.231-4.48
			C142.611,84.648,141.664,86.238,141.664,89.23z"/>
	</g>
	<g>
		<g>
			
				<line fill="none" stroke="#000000" stroke-width="0.5" stroke-miterlimit="10" x1="91.199" y1="53.505" x2="1089.668" y2="53.505"/>
			<g>
				<path d="M91.648,53.505l0.548-0.901l-0.031-0.02l-1.469,0.583c-0.512,0.113-1.023,0.225-1.535,0.338
					c0.512,0.113,1.023,0.225,1.535,0.338l1.469,0.583l0.031-0.015L91.648,53.505z"/>
			</g>
			<g>
				<polygon points="1091.433,53.505 1088.946,54.521 1089.536,53.505 1088.946,52.489 				"/>
			</g>
		</g>
	</g>
	<g>
		<g>
			
				<line fill="none" stroke="#000000" stroke-width="0.5" stroke-miterlimit="10" x1="464.739" y1="905.005" x2="715.968" y2="905.005"/>
			<g>
				<path d="M465.187,905.005l0.548-0.901l-0.031-0.02l-1.469,0.583c-0.512,0.113-1.023,0.225-1.535,0.338
					c0.512,0.113,1.023,0.225,1.535,0.338l1.469,0.583l0.031-0.015L465.187,905.005z"/>
			</g>
			<g>
				<polygon points="717.733,905.005 715.246,906.021 715.836,905.005 715.246,903.989 				"/>
			</g>
		</g>
	</g>
	<g>
		<g>
			
				<line fill="none" stroke="#000000" stroke-width="0.5" stroke-miterlimit="10" x1="715.968" y1="905.005" x2="1089.668" y2="905.005"/>
			<g>
				<path d="M716.417,905.005l0.548-0.901l-0.031-0.02l-1.469,0.583c-0.512,0.113-1.023,0.225-1.535,0.338
					c0.512,0.113,1.023,0.225,1.535,0.338l1.469,0.583l0.031-0.015L716.417,905.005z"/>
			</g>
			<g>
				<polygon points="1091.433,905.005 1088.946,906.021 1089.536,905.005 1088.946,903.989 				"/>
			</g>
		</g>
	</g>
	<g>
		<g>
			
				<line fill="none" stroke="#000000" stroke-width="0.5" stroke-miterlimit="10" x1="1164.175" y1="788.477" x2="1164.175" y2="141.705"/>
			<g>
				<path d="M1164.175,788.028l-0.901-0.548l-0.02,0.031l0.583,1.469c0.113,0.512,0.225,1.023,0.338,1.535
					c0.113-0.512,0.225-1.023,0.338-1.535l0.583-1.469l-0.015-0.031L1164.175,788.028z"/>
			</g>
			<g>
				<polygon points="1164.175,139.94 1165.191,142.428 1164.175,141.837 1163.159,142.428 				"/>
			</g>
		</g>
	</g>
	<g>
		<g>
			
				<line fill="none" stroke="#000000" stroke-width="0.5" stroke-miterlimit="10" x1="93.356" y1="905.005" x2="467.058" y2="905.005"/>
			<g>
				<path d="M93.805,905.005l0.548-0.901l-0.031-0.02l-1.469,0.583c-0.512,0.113-1.023,0.225-1.535,0.338
					c0.512,0.113,1.023,0.225,1.535,0.338l1.469,0.583l0.031-0.015L93.805,905.005z"/>
			</g>
			<g>
				<polygon points="468.823,905.005 466.336,906.021 466.926,905.005 466.336,903.989 				"/>
			</g>
		</g>
	</g>
</g>
<g>
</g>
<g>
</g>
<g>
</g>
<g>
</g>
<g>
</g>
<g>
</g>
<g>
</g>
<g>
</g>
<g>
</g>
<g>
</g>
</svg>
