<?xml version="1.0" encoding="utf-8"?>
<!-- Generator: Adobe Illustrator 17.0.0, SVG Export Plug-In . SVG Version: 6.00 Build 0)  -->
<!DOCTYPE svg PUBLIC "-//W3C//DTD SVG 1.1//EN" "http://www.w3.org/Graphics/SVG/1.1/DTD/svg11.dtd">
<svg version="1.1" id="Layer_1" xmlns="http://www.w3.org/2000/svg" xmlns:xlink="http://www.w3.org/1999/xlink" x="0px" y="0px"
	 width="400px" height="100px" viewBox="0 0 400 100" enable-background="new 0 0 400 100" xml:space="preserve">
<g>
	<g>
		<path fill="#010101" d="M273.468,61.878c0.676-1.009,2.044-1.28,3.053-0.604c1.01,0.676,1.28,2.044,0.603,3.053
			c-0.682,1.017-1.364,2.113-2.023,3.253l-0.068,0.11c-2.089,3.642-3.806,7.57-4.484,10.906c-0.549,2.705-0.419,4.883,0.843,5.794
			l0.001-0.001l0.271,0.169l0.049,0.03c1.365,0.713,3.267,0.455,5.404-0.457c2.941-1.254,6.169-3.69,9.159-6.656
			c0.862-0.857,2.259-0.853,3.115,0.009c0.856,0.862,0.853,2.258-0.009,3.114c-3.363,3.336-7.068,6.107-10.539,7.587
			c-3.367,1.438-6.589,1.703-9.268,0.245c-0.081-0.038-0.162-0.08-0.239-0.129l-0.27-0.169l0.002-0.004l-0.062-0.04
			c-3.077-2.065-3.678-5.9-2.768-10.373c0.775-3.814,2.682-8.206,4.986-12.221l0.066-0.125
			C271.973,64.186,272.707,63.01,273.468,61.878L273.468,61.878z"/>
		<path fill-rule="evenodd" clip-rule="evenodd" fill="#010101" d="M279.921,48.651c1.936,0,3.507,1.572,3.507,3.508
			c0,1.937-1.571,3.508-3.507,3.508c-1.938,0-3.507-1.57-3.507-3.508C276.413,50.223,277.983,48.651,279.921,48.651L279.921,48.651z
			"/>
	</g>
	<path fill="#010101" d="M100.227,63.954c0.605-1.052,1.95-1.415,3.002-0.81c1.053,0.605,1.415,1.95,0.811,3.002
		c-0.97,1.679-2.252,5.943-3.448,10.388c5.525-7.62,12.486-15.71,19.295-12.905c5.263,2.168,4.136,7.319,1.978,12.552
		c-0.471,1.148-0.922,2.14-1.357,3.111c-0.941,2.089-1.819,4.039-2.014,5.214c3.151-0.086,6.61-1.922,9.92-4.421
		c3.6-2.716,6.999-6.205,9.719-9.184c0.819-0.9,2.214-0.966,3.114-0.147c0.9,0.819,0.965,2.214,0.147,3.114
		c-2.86,3.132-6.452,6.815-10.323,9.735c-4.079,3.078-8.494,5.323-12.806,5.323c-3.071,0-4.23-1.508-4.23-3.99
		c0-2.012,1.178-4.626,2.454-7.457c0.459-1.022,0.94-2.085,1.304-2.973c1.282-3.112,2.175-6.084,0.422-6.806
		c-4.739-1.952-11.759,8.078-16.759,15.225c-1.609,2.302-3.036,4.34-4.191,5.699l-0.002-0.001c-0.53,0.624-1.389,0.928-2.232,0.709
		c-1.177-0.304-1.884-1.508-1.579-2.684c0.16-0.615,0.465-1.83,0.825-3.266C95.852,77.103,98.331,67.24,100.227,63.954
		L100.227,63.954z"/>
	<path fill="#010101" d="M326.646,63.954c0.605-1.052,1.95-1.415,3.002-0.81c1.053,0.605,1.415,1.95,0.811,3.002
		c-0.97,1.679-2.252,5.943-3.448,10.388c5.525-7.62,12.486-15.71,19.295-12.905c5.263,2.168,4.136,7.319,1.978,12.552
		c-0.471,1.148-0.922,2.14-1.357,3.111c-0.941,2.089-1.819,4.039-2.014,5.214c3.151-0.086,6.61-1.922,9.92-4.421
		c3.6-2.716,6.999-6.205,9.719-9.184c0.819-0.9,2.214-0.966,3.114-0.147c0.9,0.819,0.965,2.214,0.147,3.114
		c-2.86,3.132-6.452,6.815-10.323,9.735c-4.079,3.078-8.494,5.323-12.806,5.323c-3.071,0-4.23-1.508-4.23-3.99
		c0-2.012,1.178-4.626,2.454-7.457c0.459-1.022,0.94-2.085,1.304-2.973c1.282-3.112,2.175-6.084,0.422-6.806
		c-4.739-1.952-11.759,8.078-16.759,15.225c-1.609,2.302-3.036,4.34-4.191,5.699l-0.002-0.001c-0.53,0.624-1.389,0.928-2.232,0.709
		c-1.177-0.304-1.884-1.508-1.579-2.684c0.16-0.615,0.465-1.83,0.825-3.266C322.27,77.103,324.75,67.24,326.646,63.954
		L326.646,63.954z"/>
	<path fill="#010101" d="M187.687,63.194c1.019-0.657,2.379-0.364,3.037,0.655c0.658,1.019,0.365,2.379-0.655,3.037
		c-2.211,1.429-4.762,4.741-6.827,8.316c-1.401,2.427-2.548,4.933-3.187,7.029c-0.437,1.43-0.665,2.531-0.581,3.038
		c1.074,0.029,4.713-2.274,8.94-5.42c5.125-3.817,10.659-8.942,13.748-13.201c0.714-0.985,2.095-1.206,3.079-0.492
		c0.986,0.714,1.207,2.094,0.493,3.079c-3.343,4.607-9.252,10.096-14.698,14.151c-5.848,4.354-11.543,7.039-13.953,5.649
		c-0.51-0.293-0.919-0.686-1.231-1.17l0.004-0.003l-0.004-0.006c-0.995-1.54-0.88-4.046-0.008-6.902
		c0.744-2.433,2.031-5.268,3.585-7.961C181.79,68.906,184.849,65.029,187.687,63.194L187.687,63.194z"/>
	<path fill="#010101" d="M68.013,75.528c0.539,0.651,1.441,1.059,2.518,1.259c1.404,0.259,3.053,0.167,4.678-0.198
		c1.644-0.369,3.232-1.013,4.488-1.843c1.19-0.788,2.034-1.699,2.2-2.602c0.112-0.606,0.052-1.078-0.14-1.418
		c-0.148-0.263-0.4-0.498-0.727-0.694c-0.42-0.252-0.947-0.436-1.544-0.546c-2.05-0.379-4.722,0.078-7.065,1.397
		C70.185,72.144,68.714,73.8,68.013,75.528L68.013,75.528z M69.738,81.117c-0.482-0.089-0.949-0.205-1.399-0.352
		c0.358,0.605,0.838,1.173,1.44,1.682c1.812,1.529,4.696,2.543,8.686,2.556c2.163,0.006,5.508-0.486,9.111-1.843
		c2.69-1.013,5.507-2.511,8.043-4.641c0.933-0.781,2.324-0.657,3.106,0.275c0.781,0.933,0.657,2.324-0.276,3.106
		c-2.946,2.473-6.207,4.21-9.321,5.382c-4.146,1.562-8.08,2.129-10.663,2.121c-5.131-0.016-8.985-1.441-11.533-3.593
		c-1.767-1.491-2.919-3.327-3.455-5.298c-0.535-1.977-0.448-4.085,0.259-6.116c0.982-2.814,3.164-5.465,6.53-7.36
		c3.235-1.822,7.029-2.435,10.014-1.881c1.113,0.207,2.138,0.574,3.009,1.097c0.965,0.579,1.755,1.354,2.298,2.317
		c0.691,1.225,0.951,2.689,0.641,4.368c-0.403,2.188-1.962,4.066-4.099,5.482c-1.696,1.121-3.8,1.981-5.954,2.464
		C74.001,81.373,71.736,81.486,69.738,81.117L69.738,81.117z"/>
	<path fill="#010101" d="M221.004,73.313c0,0.14-0.013,0.276-0.039,0.409c0.022,0.124,0.033,0.25,0.033,0.378h0.005
		c0,3.316,0.863,6.249,2.432,8.246c0.657,0.834,1.436,1.501,2.319,1.95c0.876,0.443,1.886,0.689,3.017,0.689
		c2.497,0,5.558-1.18,9.094-3.962c0.957-0.751,2.345-0.585,3.096,0.372c0.752,0.957,0.585,2.346-0.372,3.097
		c-4.383,3.449-8.387,4.911-11.819,4.911c-1.832,0-3.511-0.417-5-1.172c-1.484-0.753-2.76-1.832-3.805-3.16
		c-1.01-1.285-1.809-2.811-2.377-4.507c-2.124,2.447-4.919,4.464-7.825,5.936c-2.305,1.167-4.712,2.006-6.919,2.448
		c-2.352,0.471-4.53,0.495-6.21,0c-1.475-0.433-2.626-1.254-3.31-2.487l-0.085-0.152c-0.155-0.307-0.296-0.646-0.417-1.007
		l-0.041-0.113c-1.199-3.688,0.36-8.231,3.065-12.223c2.559-3.778,6.213-7.176,9.433-8.806c0.539-0.272,1.082-0.505,1.622-0.686
		l0.115-0.041c1.544-0.502,3.095-0.775,4.562-0.775c1.927,0,3.744,0.46,5.283,1.466c1.567,1.026,2.794,2.581,3.498,4.742
		C220.773,70.142,221.004,71.623,221.004,73.313L221.004,73.313z M216.617,73.685c-0.021-0.121-0.031-0.245-0.031-0.372
		c0-1.232-0.15-2.255-0.418-3.083c-0.369-1.135-0.971-1.923-1.719-2.413c-0.777-0.507-1.768-0.74-2.869-0.74
		c-1.017,0-2.106,0.194-3.199,0.55l-0.092,0.028c-0.315,0.108-0.66,0.258-1.025,0.442c-2.604,1.319-5.614,4.149-7.775,7.338
		c-2.014,2.973-3.244,6.15-2.513,8.394l0.022,0.075c0.044,0.121,0.104,0.26,0.177,0.406l0.025,0.049
		c0.098,0.14,0.337,0.264,0.678,0.363c0.996,0.293,2.442,0.248,4.107-0.085c1.81-0.363,3.826-1.072,5.796-2.07
		C211.744,80.559,215.415,77.428,216.617,73.685L216.617,73.685z"/>
	<g>
		<path fill="#010101" d="M261.386,32.839c0.7-0.996,2.076-1.235,3.072-0.535c0.995,0.7,1.235,2.076,0.534,3.072
			c-0.847,1.205-1.873,2.62-3.029,4.214c-4.207,5.804-10.185,14.049-14.769,21.992c-5.827,10.095-9.645,19.768-4.653,22.65
			c6.38,3.683,18.189-6.097,23.46-10.466c0.46-0.381,0.873-0.722,1.468-1.201c0.949-0.761,2.336-0.611,3.097,0.337
			c0.761,0.948,0.61,2.336-0.337,3.097l-1.416,1.166c-5.998,4.972-19.429,16.095-28.465,10.88
			c-8.009-4.622-3.961-16.54,3.032-28.653c4.766-8.257,10.777-16.55,15.01-22.388C259.552,35.403,260.579,33.985,261.386,32.839
			L261.386,32.839z"/>
		<path fill="#010101" d="M241.519,49.84c-1.215,0-2.2-0.985-2.2-2.2c0-1.215,0.985-2.2,2.2-2.2l30.534,0.023
			c1.214,0,2.2,0.986,2.2,2.2c0,1.215-0.986,2.2-2.2,2.2L241.519,49.84L241.519,49.84z"/>
	</g>
	<path fill="#010101" d="M16.847,39.424c1.115,0.486,1.624,1.785,1.139,2.899c-0.486,1.114-1.785,1.624-2.899,1.138
		c-0.631-0.274-1.219-0.622-1.757-1.033c-2.534-1.934-4.011-5.278-4.339-9.205c-0.306-3.65,0.382-7.893,2.145-11.951
		c0.861-1.986,1.976-3.925,3.347-5.72c4.448-5.824,10.519-9.943,15.293-11.123c1.949-0.481,3.76-0.507,5.273-0.009
		c1.766,0.581,3.092,1.793,3.776,3.71c0.869,2.434,0.557,6.086-1.519,11.12l-5.628,13.642c4.856-6.874,10.245-12.963,16.222-17.5
		c6.644-5.044,13.881-7.432,20.135-7.446c3.779-0.008,7.231,0.845,10.02,2.495c2.9,1.716,5.088,4.274,6.214,7.602
		c1.228,3.632,1.164,8.149-0.67,13.442c-3.023,8.731-12.841,15.841-24.384,20.71c-10.582,4.462-22.721,7.098-32.329,7.375
		l35.997,25.203c0.995,0.695,1.239,2.068,0.544,3.063c-0.695,0.996-2.068,1.238-3.063,0.543L20.828,60.699
		c-4.308,8.974-7.969,17.836-11.044,25.282l-1.417,3.422l-4.072-1.673l12.961-31.424c0.038-0.115,0.084-0.225,0.139-0.331
		l15.838-38.397c1.617-3.922,1.958-6.497,1.433-7.964c-0.185-0.522-0.538-0.849-0.998-1.001c-0.71-0.234-1.692-0.189-2.841,0.094
		c-3.912,0.967-8.999,4.487-12.843,9.52c-1.162,1.523-2.098,3.145-2.811,4.789c-1.46,3.361-2.031,6.855-1.781,9.844
		c0.226,2.714,1.119,4.926,2.613,6.067C16.265,39.125,16.548,39.294,16.847,39.424L16.847,39.424z M50.557,18.894
		C39.748,27.102,30.831,40.932,23.57,55.159c9.382,0.367,22.559-2.223,33.936-7.018c10.51-4.432,19.374-10.688,21.935-18.088
		c1.489-4.297,1.582-7.847,0.652-10.594c-0.77-2.278-2.28-4.035-4.283-5.221c-2.114-1.251-4.793-1.897-7.775-1.891
		C62.674,12.36,56.398,14.46,50.557,18.894L50.557,18.894z M17.395,55.976c0.285-0.556,0.797-0.966,1.399-1.125L17.395,55.976
		L17.395,55.976z"/>
	<path fill="#010101" d="M380.28,58.451c-1.01,0.676-2.377,0.406-3.053-0.604c-0.676-1.009-0.406-2.377,0.604-3.053l0.618-0.413
		l0.011-0.006l-0.002-0.002c1.859-1.23,5.993-3.97,7.331-6.29c0.298-0.515,0.301-1.008-0.305-1.357
		c-1.224-0.706-3.361-0.202-5.564,1.052c-1.141,0.649-2.276,1.504-3.306,2.51c-1.021,0.997-1.937,2.141-2.651,3.378l-0.066,0.107
		c-1.593,2.828-2.097,6.152-0.314,9.288c0.621,1.093,1.041,2.279,1.286,3.525c6.253-2.437,13.618-4.682,21.391-6.647
		c1.181-0.294,2.379,0.423,2.674,1.604c0.294,1.181-0.423,2.379-1.604,2.674c-8.227,2.08-15.954,4.464-22.281,7.035
		c-0.42,4.231-2.257,8.605-4.618,11.938l-0.003,0.006l0.003,0.003c-1.09,1.538-2.308,2.883-3.559,3.912
		c-1.377,1.132-2.824,1.9-4.239,2.172c-2.467,0.472-4.685-0.382-6.235-3.067l-0.073-0.138c-0.352-0.632-0.609-1.266-0.766-1.897
		c-0.63-2.496,0.099-4.896,1.938-7.183c1.568-1.948,4.001-3.829,7.103-5.62l-0.002-0.004c1.81-1.046,3.865-2.07,6.121-3.067
		c-0.13-1.108-0.439-2.148-0.965-3.072c-2.676-4.705-1.98-9.571,0.325-13.641l0.072-0.136c0.917-1.589,2.087-3.056,3.392-4.328
		c1.294-1.264,2.736-2.347,4.203-3.181c3.498-1.99,7.254-2.577,9.93-1.034c3.444,1.986,3.499,4.635,1.926,7.361
		c-1.867,3.238-6.589,6.368-8.711,7.773l-0.001-0.002L380.28,58.451L380.28,58.451z M366.845,80.645
		c1.495-2.113,2.758-4.697,3.428-7.285c-1.241,0.6-2.402,1.209-3.466,1.823l-0.002-0.004l-0.006,0.004
		c-2.629,1.516-4.645,3.053-5.867,4.572c-0.95,1.182-1.357,2.312-1.095,3.354c0.068,0.268,0.174,0.536,0.317,0.803l0.056,0.093
		c0.455,0.786,1.016,1.056,1.594,0.946c0.678-0.13,1.458-0.57,2.273-1.24c0.94-0.773,1.886-1.828,2.765-3.068L366.845,80.645
		L366.845,80.645z"/>
	<path fill="#010101" d="M156.741,60.107c1.205,0.167,2.048,1.28,1.882,2.485c-0.166,1.205-1.28,2.047-2.485,1.881
		c-3.187-0.446-6.776,1.356-9.652,4.109l-0.004,0.004l0.004,0.004c-1.727,1.652-3.177,3.638-4.127,5.692
		c-0.897,1.942-1.334,3.913-1.101,5.657c0.22,1.652,1.097,3.151,2.839,4.253c3.312,2.096,7.902-0.198,11.584-3.698
		c0.614-0.584,1.199-1.2,1.751-1.833c-0.18-0.142-0.354-0.288-0.514-0.437c-1.769-1.632-2.519-3.659-2.577-5.672
		c-0.054-1.911,0.539-3.799,1.471-5.278c1.481-2.353,3.894-3.788,6.253-3.157c2.93,0.785,4.209,2.87,4.237,5.634
		c0.024,2.065-0.785,4.532-2.157,6.993c2.643,0.416,6.389,0.263,11.567-0.803c1.191-0.242,2.355,0.526,2.596,1.717
		c0.242,1.191-0.526,2.354-1.717,2.596c-6.777,1.395-11.652,1.309-15.073,0.371c-0.857,1.073-1.8,2.107-2.803,3.061
		c-4.998,4.751-11.578,7.645-16.966,4.234c-2.967-1.877-4.468-4.493-4.857-7.411c-0.349-2.611,0.234-5.412,1.464-8.071
		c1.179-2.547,2.968-5.004,5.093-7.036l0.004,0.004C147.226,61.795,152.13,59.462,156.741,60.107L156.741,60.107z M160.027,75.089
		l0.222-0.383c1.048-1.853,1.668-3.604,1.653-4.923c-0.008-0.701-0.303-1.226-0.977-1.406c-0.334-0.089-0.893,0.456-1.386,1.241
		c-0.505,0.8-0.825,1.81-0.798,2.811c0.027,0.902,0.365,1.813,1.16,2.548L160.027,75.089L160.027,75.089z"/>
	<path fill="#010101" d="M306.771,60.107c1.205,0.167,2.048,1.28,1.882,2.485c-0.166,1.205-1.28,2.047-2.485,1.881
		c-3.187-0.446-6.776,1.356-9.652,4.109l-0.004,0.004l0.004,0.004c-1.727,1.652-3.177,3.638-4.127,5.692
		c-0.897,1.942-1.334,3.913-1.101,5.657c0.22,1.652,1.097,3.151,2.839,4.253c3.312,2.096,7.902-0.198,11.584-3.698
		c0.614-0.584,1.199-1.2,1.751-1.833c-0.18-0.142-0.354-0.288-0.514-0.437c-1.769-1.632-2.519-3.659-2.577-5.672
		c-0.054-1.911,0.539-3.799,1.471-5.278c1.481-2.353,3.894-3.788,6.253-3.157c2.93,0.785,4.209,2.87,4.237,5.634
		c0.024,2.065-0.785,4.532-2.157,6.993c2.643,0.416,6.389,0.263,11.567-0.803c1.191-0.242,2.355,0.526,2.596,1.717
		c0.242,1.191-0.526,2.354-1.717,2.596c-6.777,1.395-11.652,1.309-15.073,0.371c-0.857,1.073-1.8,2.107-2.803,3.061
		c-4.998,4.751-11.578,7.645-16.966,4.234c-2.967-1.877-4.468-4.493-4.857-7.411c-0.349-2.611,0.234-5.412,1.464-8.071
		c1.179-2.547,2.968-5.004,5.093-7.036l0.004,0.004C297.257,61.795,302.16,59.462,306.771,60.107L306.771,60.107z M310.058,75.089
		l0.222-0.383c1.048-1.853,1.668-3.604,1.653-4.923c-0.008-0.701-0.303-1.226-0.977-1.406c-0.334-0.089-0.893,0.456-1.386,1.241
		c-0.505,0.8-0.825,1.81-0.798,2.811c0.027,0.902,0.365,1.813,1.161,2.548L310.058,75.089L310.058,75.089z"/>
</g>
</svg>
