<?xml version="1.0" encoding="utf-8"?>
<!-- Generator: Adobe Illustrator 17.0.0, SVG Export Plug-In . SVG Version: 6.00 Build 0)  -->
<!DOCTYPE svg PUBLIC "-//W3C//DTD SVG 1.1//EN" "http://www.w3.org/Graphics/SVG/1.1/DTD/svg11.dtd">
<svg version="1.1" id="Layer_1" xmlns="http://www.w3.org/2000/svg" xmlns:xlink="http://www.w3.org/1999/xlink" x="0px" y="0px"
	 width="432px" height="288px" viewBox="0 0 432 288" enable-background="new 0 0 432 288" xml:space="preserve">
<g>
	<g>
		<g>
			<g>
				<rect x="31.651" y="-4.352" width="0.794" height="0.854"/>
				<rect x="40.859" y="-4.352" width="0.794" height="0.854"/>
				<rect x="409.162" y="-4.352" width="0.794" height="0.854"/>
				<rect x="418.369" y="-4.352" width="0.794" height="0.854"/>
				<rect x="31.651" y="5.551" width="0.794" height="0.854"/>
				<rect x="40.859" y="5.551" width="0.794" height="0.854"/>
				<rect x="409.162" y="5.551" width="0.794" height="0.854"/>
				<rect x="418.369" y="5.551" width="0.794" height="0.854"/>
				<rect x="31.452" y="15.24" width="1.192" height="1.281"/>
				<rect x="40.66" y="15.24" width="1.192" height="1.281"/>
				<rect x="408.999" y="15.279" width="1.119" height="1.204"/>
				<rect x="418.207" y="15.279" width="1.119" height="1.204"/>
				<rect x="31.236" y="24.909" width="1.625" height="1.747"/>
				<rect x="40.443" y="24.909" width="1.625" height="1.747"/>
				<rect x="206.595" y="25.356" width="0.794" height="0.854"/>
				<rect x="215.802" y="25.356" width="0.794" height="0.854"/>
				<rect x="408.782" y="24.948" width="1.553" height="1.67"/>
				<rect x="417.99" y="24.948" width="1.553" height="1.67"/>
				<rect x="30.983" y="34.54" width="2.13" height="2.291"/>
				<rect x="40.19" y="34.54" width="2.13" height="2.291"/>
				<rect x="206.487" y="35.142" width="1.011" height="1.087"/>
				<rect x="215.694" y="35.142" width="1.011" height="1.087"/>
				<rect x="408.548" y="34.598" width="2.022" height="2.175"/>
				<rect x="417.755" y="34.598" width="2.022" height="2.175"/>
				<rect x="30.712" y="44.151" width="2.672" height="2.874"/>
				<rect x="39.92" y="44.151" width="2.672" height="2.874"/>
				<rect x="206.216" y="44.753" width="1.553" height="1.67"/>
				<rect x="215.423" y="44.753" width="1.553" height="1.67"/>
				<rect x="408.259" y="44.19" width="2.6" height="2.796"/>
				<rect x="417.467" y="44.19" width="2.6" height="2.796"/>
				<rect x="30.405" y="53.724" width="3.286" height="3.534"/>
				<rect x="39.613" y="53.724" width="3.286" height="3.534"/>
				<rect x="160.557" y="55.064" width="0.794" height="0.854"/>
				<rect x="169.765" y="55.064" width="0.794" height="0.854"/>
				<rect x="205.927" y="54.345" width="2.13" height="2.291"/>
				<rect x="215.134" y="54.345" width="2.13" height="2.291"/>
				<rect x="335.501" y="55.064" width="0.794" height="0.854"/>
				<rect x="344.709" y="55.064" width="0.794" height="0.854"/>
				<rect x="407.97" y="53.782" width="3.178" height="3.417"/>
				<rect x="417.178" y="53.782" width="3.178" height="3.417"/>
				<rect x="30.116" y="63.316" width="3.864" height="4.155"/>
				<rect x="39.324" y="63.316" width="3.864" height="4.155"/>
				<rect x="68.481" y="64.966" width="0.794" height="0.854"/>
				<rect x="77.689" y="64.966" width="0.794" height="0.854"/>
				<rect x="105.312" y="64.966" width="0.794" height="0.854"/>
				<rect x="114.519" y="64.966" width="0.794" height="0.854"/>
				<rect x="160.232" y="64.617" width="1.444" height="1.553"/>
				<rect x="169.44" y="64.617" width="1.444" height="1.553"/>
				<rect x="205.584" y="63.879" width="2.816" height="3.029"/>
				<rect x="214.791" y="63.879" width="2.816" height="3.029"/>
				<rect x="261.84" y="64.966" width="0.794" height="0.854"/>
				<rect x="271.048" y="64.966" width="0.794" height="0.854"/>
				<rect x="335.176" y="64.617" width="1.444" height="1.553"/>
				<rect x="344.384" y="64.617" width="1.444" height="1.553"/>
				<rect x="407.681" y="63.374" width="3.755" height="4.039"/>
				<rect x="416.889" y="63.374" width="3.755" height="4.039"/>
				<rect x="13.236" y="74.869" width="0.794" height="0.854"/>
				<rect x="22.443" y="74.869" width="0.794" height="0.854"/>
				<rect x="29.809" y="72.888" width="4.477" height="4.815"/>
				<rect x="39.017" y="72.888" width="4.477" height="4.815"/>
				<rect x="68.247" y="74.616" width="1.264" height="1.359"/>
				<rect x="77.454" y="74.616" width="1.264" height="1.359"/>
				<rect x="105.257" y="74.811" width="0.903" height="0.971"/>
				<rect x="114.465" y="74.811" width="0.903" height="0.971"/>
				<rect x="159.853" y="74.112" width="2.203" height="2.369"/>
				<rect x="169.06" y="74.112" width="2.203" height="2.369"/>
				<rect x="205.223" y="73.393" width="3.539" height="3.806"/>
				<rect x="214.43" y="73.393" width="3.539" height="3.806"/>
				<rect x="261.606" y="74.616" width="1.264" height="1.359"/>
				<rect x="270.813" y="74.616" width="1.264" height="1.359"/>
				<rect x="334.797" y="74.112" width="2.203" height="2.369"/>
				<rect x="344.004" y="74.112" width="2.203" height="2.369"/>
				<rect x="407.338" y="72.908" width="4.441" height="4.777"/>
				<rect x="416.546" y="72.908" width="4.441" height="4.777"/>
				<rect x="13.073" y="84.597" width="1.119" height="1.204"/>
				<rect x="22.281" y="84.597" width="1.119" height="1.204"/>
				<rect x="29.484" y="82.441" width="5.127" height="5.514"/>
				<rect x="38.692" y="82.441" width="5.127" height="5.514"/>
				<rect x="67.795" y="84.034" width="2.166" height="2.33"/>
				<rect x="77.003" y="84.034" width="2.166" height="2.33"/>
				<rect x="104.806" y="84.228" width="1.805" height="1.942"/>
				<rect x="114.014" y="84.228" width="1.805" height="1.942"/>
				<rect x="159.383" y="83.509" width="3.141" height="3.378"/>
				<rect x="168.591" y="83.509" width="3.141" height="3.378"/>
				<rect x="188.18" y="84.771" width="0.794" height="0.854"/>
				<rect x="197.387" y="84.771" width="0.794" height="0.854"/>
				<rect x="204.826" y="82.869" width="4.333" height="4.66"/>
				<rect x="214.033" y="82.869" width="4.333" height="4.66"/>
				<rect x="225.01" y="84.771" width="0.794" height="0.854"/>
				<rect x="234.218" y="84.771" width="0.794" height="0.854"/>
				<rect x="261.154" y="84.034" width="2.166" height="2.33"/>
				<rect x="270.362" y="84.034" width="2.166" height="2.33"/>
				<rect x="298.671" y="84.771" width="0.794" height="0.854"/>
				<rect x="307.878" y="84.771" width="0.794" height="0.854"/>
				<rect x="334.327" y="83.509" width="3.141" height="3.378"/>
				<rect x="343.535" y="83.509" width="3.141" height="3.378"/>
				<rect x="372.331" y="84.771" width="0.794" height="0.854"/>
				<rect x="381.539" y="84.771" width="0.794" height="0.854"/>
				<rect x="407.049" y="82.5" width="5.019" height="5.398"/>
				<rect x="416.257" y="82.5" width="5.019" height="5.398"/>
				<rect x="12.55" y="93.936" width="2.166" height="2.33"/>
				<rect x="21.757" y="93.936" width="2.166" height="2.33"/>
				<rect x="29.178" y="92.014" width="5.741" height="6.174"/>
				<rect x="38.385" y="92.014" width="5.741" height="6.174"/>
				<rect x="50.066" y="94.674" width="0.794" height="0.854"/>
				<rect x="59.274" y="94.674" width="0.794" height="0.854"/>
				<rect x="67.235" y="93.334" width="3.286" height="3.534"/>
				<rect x="76.443" y="93.334" width="3.286" height="3.534"/>
				<rect x="104.282" y="93.567" width="2.852" height="3.068"/>
				<rect x="113.49" y="93.567" width="2.853" height="3.068"/>
				<rect x="123.727" y="94.674" width="0.794" height="0.854"/>
				<rect x="132.934" y="94.674" width="0.794" height="0.854"/>
				<rect x="158.914" y="92.907" width="4.08" height="4.388"/>
				<rect x="168.122" y="92.907" width="4.08" height="4.388"/>
				<rect x="188.089" y="94.577" width="0.975" height="1.048"/>
				<rect x="197.297" y="94.577" width="0.975" height="1.048"/>
				<rect x="204.446" y="92.363" width="5.091" height="5.476"/>
				<rect x="213.654" y="92.363" width="5.091" height="5.476"/>
				<rect x="224.595" y="94.227" width="1.625" height="1.747"/>
				<rect x="233.802" y="94.227" width="1.625" height="1.747"/>
				<rect x="260.595" y="93.334" width="3.286" height="3.534"/>
				<rect x="269.802" y="93.334" width="3.286" height="3.534"/>
				<rect x="298.526" y="94.518" width="1.083" height="1.165"/>
				<rect x="307.734" y="94.518" width="1.083" height="1.165"/>
				<rect x="333.858" y="92.907" width="4.08" height="4.388"/>
				<rect x="343.066" y="92.907" width="4.08" height="4.388"/>
				<rect x="371.844" y="94.149" width="1.769" height="1.903"/>
				<rect x="381.051" y="94.149" width="1.769" height="1.903"/>
				<rect x="406.724" y="92.052" width="5.669" height="6.097"/>
				<rect x="415.932" y="92.052" width="5.669" height="6.097"/>
				<rect x="427.577" y="94.674" width="0.794" height="0.854"/>
				<rect x="4.028" y="104.577" width="0.794" height="0.854"/>
				<rect x="11.882" y="103.12" width="3.502" height="3.767"/>
				<rect x="21.089" y="103.12" width="3.502" height="3.767"/>
				<rect x="28.889" y="101.606" width="6.319" height="6.796"/>
				<rect x="38.096" y="101.606" width="6.319" height="6.796"/>
				<rect x="49.831" y="104.324" width="1.264" height="1.359"/>
				<rect x="59.039" y="104.324" width="1.264" height="1.359"/>
				<rect x="66.658" y="102.615" width="4.441" height="4.777"/>
				<rect x="75.865" y="102.615" width="4.441" height="4.777"/>
				<rect x="103.669" y="102.81" width="4.08" height="4.388"/>
				<rect x="112.876" y="102.81" width="4.08" height="4.388"/>
				<rect x="123.492" y="104.324" width="1.264" height="1.359"/>
				<rect x="132.7" y="104.324" width="1.264" height="1.359"/>
				<rect x="142.142" y="104.577" width="0.794" height="0.854"/>
				<rect x="151.349" y="104.577" width="0.794" height="0.854"/>
				<rect x="158.409" y="102.266" width="5.091" height="5.476"/>
				<rect x="167.616" y="102.266" width="5.091" height="5.476"/>
				<rect x="187.421" y="103.761" width="2.311" height="2.485"/>
				<rect x="196.629" y="103.761" width="2.311" height="2.485"/>
				<rect x="204.067" y="101.858" width="5.85" height="6.291"/>
				<rect x="213.275" y="101.858" width="5.849" height="6.291"/>
				<rect x="223.927" y="103.412" width="2.961" height="3.184"/>
				<rect x="233.134" y="103.412" width="2.961" height="3.184"/>
				<rect x="243.425" y="104.577" width="0.794" height="0.854"/>
				<rect x="252.633" y="104.577" width="0.794" height="0.854"/>
				<rect x="260.017" y="102.615" width="4.441" height="4.777"/>
				<rect x="269.224" y="102.615" width="4.441" height="4.777"/>
				<rect x="297.84" y="103.683" width="2.455" height="2.641"/>
				<rect x="307.048" y="103.683" width="2.455" height="2.641"/>
				<rect x="317.086" y="104.577" width="0.794" height="0.854"/>
				<rect x="326.293" y="104.577" width="0.794" height="0.854"/>
				<rect x="333.353" y="102.266" width="5.091" height="5.476"/>
				<rect x="342.56" y="102.266" width="5.091" height="5.476"/>
				<rect x="353.916" y="104.577" width="0.794" height="0.854"/>
				<rect x="363.124" y="104.577" width="0.794" height="0.854"/>
				<rect x="371.158" y="103.314" width="3.141" height="3.378"/>
				<rect x="380.365" y="103.314" width="3.141" height="3.378"/>
				<rect x="390.746" y="104.577" width="0.794" height="0.854"/>
				<rect x="399.954" y="104.577" width="0.794" height="0.854"/>
				<rect x="406.435" y="101.645" width="6.247" height="6.718"/>
				<rect x="415.643" y="101.645" width="6.247" height="6.718"/>
				<rect x="427.198" y="104.169" width="1.553" height="1.67"/>
				<rect x="3.848" y="114.285" width="1.155" height="1.243"/>
				<rect x="11.141" y="112.227" width="4.983" height="5.359"/>
				<rect x="20.349" y="112.227" width="4.983" height="5.359"/>
				<rect x="28.618" y="111.217" width="6.86" height="7.378"/>
				<rect x="37.825" y="111.217" width="6.861" height="7.378"/>
				<rect x="48.929" y="113.256" width="3.069" height="3.301"/>
				<rect x="58.136" y="113.256" width="3.069" height="3.301"/>
				<rect x="66.062" y="111.877" width="5.633" height="6.058"/>
				<rect x="75.27" y="111.877" width="5.633" height="6.058"/>
				<rect x="86.896" y="114.479" width="0.794" height="0.854"/>
				<rect x="96.104" y="114.479" width="0.794" height="0.854"/>
				<rect x="103.037" y="112.032" width="5.344" height="5.747"/>
				<rect x="112.244" y="112.032" width="5.344" height="5.747"/>
				<rect x="122.589" y="113.256" width="3.069" height="3.301"/>
				<rect x="131.797" y="113.256" width="3.069" height="3.301"/>
				<rect x="141.275" y="113.547" width="2.528" height="2.718"/>
				<rect x="150.483" y="113.547" width="2.528" height="2.718"/>
				<rect x="157.939" y="111.663" width="6.03" height="6.485"/>
				<rect x="167.147" y="111.663" width="6.03" height="6.485"/>
				<rect x="178.972" y="114.479" width="0.794" height="0.854"/>
				<rect x="186.537" y="112.712" width="4.08" height="4.388"/>
				<rect x="195.744" y="112.712" width="4.08" height="4.388"/>
				<rect x="203.706" y="111.372" width="6.572" height="7.068"/>
				<rect x="212.914" y="111.372" width="6.572" height="7.068"/>
				<rect x="223.132" y="112.46" width="4.55" height="4.893"/>
				<rect x="232.34" y="112.46" width="4.55" height="4.893"/>
				<rect x="242.847" y="113.858" width="1.95" height="2.097"/>
				<rect x="252.055" y="113.858" width="1.95" height="2.097"/>
				<rect x="259.421" y="111.877" width="5.633" height="6.058"/>
				<rect x="268.629" y="111.877" width="5.633" height="6.058"/>
				<rect x="280.255" y="114.479" width="0.794" height="0.854"/>
				<rect x="289.463" y="114.479" width="0.794" height="0.854"/>
				<rect x="296.992" y="112.673" width="4.152" height="4.466"/>
				<rect x="306.199" y="112.673" width="4.152" height="4.466"/>
				<rect x="316.635" y="113.993" width="1.697" height="1.825"/>
				<rect x="325.842" y="113.993" width="1.697" height="1.825"/>
				<rect x="332.883" y="111.663" width="6.03" height="6.485"/>
				<rect x="342.091" y="111.663" width="6.03" height="6.485"/>
				<rect x="353.266" y="113.78" width="2.094" height="2.252"/>
				<rect x="362.474" y="113.78" width="2.094" height="2.252"/>
				<rect x="370.4" y="112.401" width="4.658" height="5.01"/>
				<rect x="379.607" y="112.401" width="4.658" height="5.01"/>
				<rect x="390.169" y="113.858" width="1.95" height="2.097"/>
				<rect x="399.376" y="113.858" width="1.95" height="2.097"/>
				<rect x="406.128" y="111.217" width="6.861" height="7.378"/>
				<rect x="415.336" y="111.217" width="6.861" height="7.378"/>
				<rect x="426.277" y="113.081" width="3.394" height="3.65"/>
				<rect x="2.494" y="122.731" width="3.863" height="4.155"/>
				<rect x="10.455" y="121.392" width="6.355" height="6.835"/>
				<rect x="19.663" y="121.392" width="6.355" height="6.835"/>
				<rect x="28.383" y="120.867" width="7.33" height="7.883"/>
				<rect x="37.591" y="120.867" width="7.33" height="7.883"/>
				<rect x="47.809" y="121.955" width="5.308" height="5.708"/>
				<rect x="57.017" y="121.955" width="5.308" height="5.708"/>
				<rect x="65.556" y="121.236" width="6.644" height="7.145"/>
				<rect x="74.764" y="121.236" width="6.644" height="7.145"/>
				<rect x="85.885" y="123.294" width="2.817" height="3.029"/>
				<rect x="95.093" y="123.294" width="2.816" height="3.029"/>
				<rect x="102.405" y="121.256" width="6.608" height="7.107"/>
				<rect x="111.612" y="121.256" width="6.608" height="7.107"/>
				<rect x="121.47" y="121.955" width="5.308" height="5.708"/>
				<rect x="130.677" y="121.955" width="5.308" height="5.708"/>
				<rect x="140.084" y="122.168" width="4.911" height="5.281"/>
				<rect x="149.291" y="122.168" width="4.911" height="5.281"/>
				<rect x="157.488" y="121.081" width="6.933" height="7.456"/>
				<rect x="166.695" y="121.081" width="6.933" height="7.456"/>
				<rect x="178.087" y="123.43" width="2.564" height="2.757"/>
				<rect x="185.652" y="121.663" width="5.849" height="6.291"/>
				<rect x="194.86" y="121.663" width="5.85" height="6.291"/>
				<rect x="203.381" y="120.926" width="7.222" height="7.767"/>
				<rect x="212.589" y="120.926" width="7.222" height="7.767"/>
				<rect x="222.338" y="121.508" width="6.138" height="6.602"/>
				<rect x="231.546" y="121.508" width="6.138" height="6.602"/>
				<rect x="241.584" y="122.401" width="4.477" height="4.815"/>
				<rect x="250.791" y="122.401" width="4.477" height="4.815"/>
				<rect x="258.879" y="121.197" width="6.716" height="7.223"/>
				<rect x="268.087" y="121.197" width="6.716" height="7.223"/>
				<rect x="279.66" y="123.741" width="1.986" height="2.136"/>
				<rect x="288.867" y="123.741" width="1.986" height="2.136"/>
				<rect x="296.125" y="121.644" width="5.886" height="6.33"/>
				<rect x="305.333" y="121.644" width="5.886" height="6.33"/>
				<rect x="315.316" y="122.479" width="4.333" height="4.66"/>
				<rect x="324.524" y="122.479" width="4.333" height="4.66"/>
				<rect x="332.432" y="121.081" width="6.933" height="7.456"/>
				<rect x="341.639" y="121.081" width="6.933" height="7.456"/>
				<rect x="351.984" y="122.304" width="4.658" height="5.01"/>
				<rect x="361.192" y="122.304" width="4.658" height="5.01"/>
				<rect x="369.623" y="121.469" width="6.211" height="6.679"/>
				<rect x="378.831" y="121.469" width="6.211" height="6.679"/>
				<rect x="388.905" y="122.401" width="4.477" height="4.815"/>
				<rect x="398.113" y="122.401" width="4.477" height="4.815"/>
				<rect x="405.894" y="120.867" width="7.33" height="7.883"/>
				<rect x="415.101" y="120.867" width="7.33" height="7.883"/>
				<rect x="425.248" y="121.877" width="5.452" height="5.864"/>
				<rect x="0.959" y="130.983" width="6.933" height="7.456"/>
				<rect x="9.86" y="130.653" width="7.547" height="8.116"/>
				<rect x="19.067" y="130.653" width="7.547" height="8.116"/>
				<rect x="28.13" y="130.498" width="7.835" height="8.427"/>
				<rect x="37.338" y="130.498" width="7.835" height="8.427"/>
				<rect x="46.816" y="130.789" width="7.294" height="7.844"/>
				<rect x="56.024" y="130.789" width="7.294" height="7.844"/>
				<rect x="65.051" y="130.595" width="7.655" height="8.233"/>
				<rect x="74.258" y="130.595" width="7.655" height="8.233"/>
				<rect x="83.755" y="130.906" width="7.077" height="7.611"/>
				<rect x="92.963" y="130.906" width="7.077" height="7.611"/>
				<rect x="101.881" y="130.595" width="7.655" height="8.233"/>
				<rect x="111.089" y="130.595" width="7.655" height="8.233"/>
				<rect x="120.477" y="130.789" width="7.294" height="7.844"/>
				<rect x="129.685" y="130.789" width="7.294" height="7.844"/>
				<rect x="138.928" y="130.828" width="7.222" height="7.767"/>
				<rect x="148.136" y="130.828" width="7.222" height="7.767"/>
				<rect x="157.091" y="130.556" width="7.727" height="8.31"/>
				<rect x="166.298" y="130.556" width="7.727" height="8.31"/>
				<rect x="176.084" y="131.177" width="6.572" height="7.068"/>
				<rect x="184.858" y="130.711" width="7.438" height="8"/>
				<rect x="194.065" y="130.711" width="7.438" height="8"/>
				<rect x="203.11" y="130.537" width="7.763" height="8.349"/>
				<rect x="212.318" y="130.537" width="7.763" height="8.349"/>
				<rect x="221.652" y="130.673" width="7.511" height="8.077"/>
				<rect x="230.86" y="130.673" width="7.511" height="8.077"/>
				<rect x="240.284" y="130.906" width="7.077" height="7.611"/>
				<rect x="249.491" y="130.906" width="7.077" height="7.611"/>
				<rect x="258.41" y="130.595" width="7.655" height="8.233"/>
				<rect x="267.618" y="130.595" width="7.655" height="8.233"/>
				<rect x="277.475" y="131.294" width="6.355" height="6.835"/>
				<rect x="286.683" y="131.294" width="6.355" height="6.835"/>
				<rect x="295.331" y="130.692" width="7.474" height="8.039"/>
				<rect x="304.538" y="130.692" width="7.474" height="8.039"/>
				<rect x="313.944" y="130.906" width="7.077" height="7.611"/>
				<rect x="323.152" y="130.906" width="7.077" height="7.611"/>
				<rect x="332.035" y="130.556" width="7.727" height="8.31"/>
				<rect x="341.242" y="130.556" width="7.727" height="8.31"/>
				<rect x="350.757" y="130.886" width="7.113" height="7.65"/>
				<rect x="359.964" y="130.886" width="7.113" height="7.65"/>
				<rect x="368.973" y="130.673" width="7.51" height="8.077"/>
				<rect x="378.181" y="130.673" width="7.511" height="8.077"/>
				<rect x="387.605" y="130.906" width="7.077" height="7.611"/>
				<rect x="396.813" y="130.906" width="7.077" height="7.611"/>
				<rect x="405.641" y="130.498" width="7.835" height="8.427"/>
				<rect x="414.849" y="130.498" width="7.835" height="8.427"/>
				<rect x="424.309" y="130.77" width="7.33" height="7.883"/>
			</g>
			<g>
				<rect x="0.399" y="140.048" width="8.052" height="8.66"/>
				<rect x="9.607" y="140.048" width="8.052" height="8.66"/>
				<rect x="18.814" y="140.048" width="8.052" height="8.66"/>
				<rect x="28.022" y="140.048" width="8.052" height="8.66"/>
				<rect x="37.23" y="140.048" width="8.052" height="8.66"/>
				<rect x="46.437" y="140.048" width="8.052" height="8.66"/>
				<rect x="55.645" y="140.048" width="8.052" height="8.66"/>
				<rect x="64.852" y="140.048" width="8.052" height="8.66"/>
				<rect x="74.06" y="140.048" width="8.052" height="8.66"/>
				<rect x="83.268" y="140.048" width="8.052" height="8.66"/>
				<rect x="92.475" y="140.048" width="8.052" height="8.66"/>
				<rect x="101.683" y="140.048" width="8.052" height="8.66"/>
				<rect x="110.89" y="140.048" width="8.052" height="8.66"/>
				<rect x="120.098" y="140.048" width="8.052" height="8.66"/>
				<rect x="129.305" y="140.048" width="8.052" height="8.66"/>
				<rect x="138.513" y="140.048" width="8.052" height="8.66"/>
				<rect x="147.721" y="140.048" width="8.052" height="8.66"/>
				<rect x="156.928" y="140.048" width="8.052" height="8.66"/>
				<rect x="166.136" y="140.048" width="8.052" height="8.66"/>
				<rect x="175.343" y="140.048" width="8.052" height="8.66"/>
				<rect x="184.551" y="140.048" width="8.052" height="8.66"/>
				<rect x="193.758" y="140.048" width="8.052" height="8.66"/>
				<rect x="202.966" y="140.048" width="8.052" height="8.66"/>
				<rect x="212.174" y="140.048" width="8.052" height="8.66"/>
				<rect x="221.381" y="140.048" width="8.052" height="8.66"/>
				<rect x="230.589" y="140.048" width="8.052" height="8.66"/>
				<rect x="239.796" y="140.048" width="8.052" height="8.66"/>
				<rect x="249.004" y="140.048" width="8.052" height="8.66"/>
				<rect x="258.212" y="140.048" width="8.052" height="8.66"/>
				<rect x="267.419" y="140.048" width="8.052" height="8.66"/>
				<rect x="276.627" y="140.048" width="8.052" height="8.66"/>
				<rect x="285.834" y="140.048" width="8.052" height="8.66"/>
				<rect x="295.042" y="140.048" width="8.052" height="8.66"/>
				<rect x="304.249" y="140.048" width="8.052" height="8.66"/>
				<rect x="313.457" y="140.048" width="8.052" height="8.66"/>
				<rect x="322.665" y="140.048" width="8.052" height="8.66"/>
				<rect x="331.872" y="140.048" width="8.052" height="8.66"/>
				<rect x="341.08" y="140.048" width="8.052" height="8.66"/>
				<rect x="350.287" y="140.048" width="8.052" height="8.66"/>
				<rect x="359.495" y="140.048" width="8.052" height="8.66"/>
				<rect x="368.702" y="140.048" width="8.052" height="8.66"/>
				<rect x="377.91" y="140.048" width="8.052" height="8.66"/>
				<rect x="387.118" y="140.048" width="8.052" height="8.66"/>
				<rect x="396.325" y="140.048" width="8.052" height="8.66"/>
				<rect x="405.533" y="140.048" width="8.052" height="8.66"/>
				<rect x="414.74" y="140.048" width="8.052" height="8.66"/>
				<rect x="423.948" y="140.048" width="8.052" height="8.66"/>
				<rect x="0.399" y="149.951" width="8.052" height="8.66"/>
				<rect x="9.607" y="149.951" width="8.052" height="8.66"/>
				<rect x="18.814" y="149.951" width="8.052" height="8.66"/>
				<rect x="28.022" y="149.951" width="8.052" height="8.66"/>
				<rect x="37.23" y="149.951" width="8.052" height="8.66"/>
				<rect x="46.437" y="149.951" width="8.052" height="8.66"/>
				<rect x="55.645" y="149.951" width="8.052" height="8.66"/>
				<rect x="64.852" y="149.951" width="8.052" height="8.66"/>
				<rect x="74.06" y="149.951" width="8.052" height="8.66"/>
				<rect x="83.268" y="149.951" width="8.052" height="8.66"/>
				<rect x="92.475" y="149.951" width="8.052" height="8.66"/>
				<rect x="101.683" y="149.951" width="8.052" height="8.66"/>
				<rect x="110.89" y="149.951" width="8.052" height="8.66"/>
				<rect x="120.098" y="149.951" width="8.052" height="8.66"/>
				<rect x="129.305" y="149.951" width="8.052" height="8.66"/>
				<rect x="138.513" y="149.951" width="8.052" height="8.66"/>
				<rect x="147.721" y="149.951" width="8.052" height="8.66"/>
				<rect x="156.928" y="149.951" width="8.052" height="8.66"/>
				<rect x="166.136" y="149.951" width="8.052" height="8.66"/>
				<rect x="175.343" y="149.951" width="8.052" height="8.66"/>
				<rect x="184.551" y="149.951" width="8.052" height="8.66"/>
				<rect x="193.758" y="149.951" width="8.052" height="8.66"/>
				<rect x="202.966" y="149.951" width="8.052" height="8.66"/>
				<rect x="212.174" y="149.951" width="8.052" height="8.66"/>
				<rect x="221.381" y="149.951" width="8.052" height="8.66"/>
				<rect x="230.589" y="149.951" width="8.052" height="8.66"/>
				<rect x="239.796" y="149.951" width="8.052" height="8.66"/>
				<rect x="249.004" y="149.951" width="8.052" height="8.66"/>
				<rect x="258.212" y="149.951" width="8.052" height="8.66"/>
				<rect x="267.419" y="149.951" width="8.052" height="8.66"/>
				<rect x="276.627" y="149.951" width="8.052" height="8.66"/>
				<rect x="285.834" y="149.951" width="8.052" height="8.66"/>
				<rect x="295.042" y="149.951" width="8.052" height="8.66"/>
				<rect x="304.249" y="149.951" width="8.052" height="8.66"/>
				<rect x="313.457" y="149.951" width="8.052" height="8.66"/>
				<rect x="322.665" y="149.951" width="8.052" height="8.66"/>
				<rect x="331.872" y="149.951" width="8.052" height="8.66"/>
				<rect x="341.08" y="149.951" width="8.052" height="8.66"/>
				<rect x="350.287" y="149.951" width="8.052" height="8.66"/>
				<rect x="359.495" y="149.951" width="8.052" height="8.66"/>
				<rect x="368.702" y="149.951" width="8.052" height="8.66"/>
				<rect x="377.91" y="149.951" width="8.052" height="8.66"/>
				<rect x="387.118" y="149.951" width="8.052" height="8.66"/>
				<rect x="396.325" y="149.951" width="8.052" height="8.66"/>
				<rect x="405.533" y="149.951" width="8.052" height="8.66"/>
				<rect x="414.74" y="149.951" width="8.052" height="8.66"/>
				<rect x="423.948" y="149.951" width="8.052" height="8.66"/>
				<rect x="2.241" y="161.834" width="4.369" height="4.699"/>
				<rect x="9.986" y="160.261" width="7.294" height="7.844"/>
				<rect x="19.194" y="160.261" width="7.294" height="7.844"/>
				<rect x="29.051" y="160.96" width="5.994" height="6.446"/>
				<rect x="38.259" y="160.96" width="5.994" height="6.446"/>
				<rect x="47.34" y="160.824" width="6.247" height="6.718"/>
				<rect x="56.548" y="160.824" width="6.247" height="6.718"/>
				<rect x="65.34" y="160.378" width="7.077" height="7.611"/>
				<rect x="74.547" y="160.378" width="7.077" height="7.611"/>
				<rect x="84.892" y="161.601" width="4.802" height="5.165"/>
				<rect x="94.1" y="161.601" width="4.802" height="5.165"/>
				<rect x="102.116" y="160.319" width="7.185" height="7.728"/>
				<rect x="111.324" y="160.319" width="7.186" height="7.728"/>
				<rect x="121.001" y="160.824" width="6.247" height="6.718"/>
				<rect x="130.208" y="160.824" width="6.247" height="6.718"/>
				<rect x="138.748" y="160.106" width="7.583" height="8.155"/>
				<rect x="147.955" y="160.106" width="7.583" height="8.155"/>
				<rect x="157.488" y="160.455" width="6.933" height="7.456"/>
				<rect x="166.695" y="160.455" width="6.933" height="7.456"/>
				<rect x="176.697" y="161.31" width="5.344" height="5.747"/>
				<rect x="185.381" y="160.747" width="6.391" height="6.874"/>
				<rect x="194.589" y="160.747" width="6.391" height="6.874"/>
				<rect x="204.067" y="161.038" width="5.85" height="6.291"/>
				<rect x="213.275" y="161.038" width="5.849" height="6.291"/>
				<rect x="221.814" y="160.319" width="7.186" height="7.728"/>
				<rect x="231.022" y="160.319" width="7.186" height="7.728"/>
				<rect x="240.085" y="160.164" width="7.474" height="8.039"/>
				<rect x="249.293" y="160.164" width="7.474" height="8.039"/>
				<rect x="258.573" y="160.242" width="7.33" height="7.883"/>
				<rect x="267.78" y="160.242" width="7.33" height="7.883"/>
				<rect x="277.186" y="160.455" width="6.933" height="7.456"/>
				<rect x="286.394" y="160.455" width="6.933" height="7.456"/>
				<rect x="295.999" y="160.883" width="6.138" height="6.602"/>
				<rect x="305.206" y="160.883" width="6.138" height="6.602"/>
				<rect x="314.161" y="160.611" width="6.644" height="7.145"/>
				<rect x="323.369" y="160.611" width="6.644" height="7.145"/>
				<rect x="332.305" y="160.319" width="7.186" height="7.728"/>
				<rect x="341.513" y="160.319" width="7.186" height="7.728"/>
				<rect x="350.594" y="160.184" width="7.438" height="8"/>
				<rect x="359.802" y="160.184" width="7.438" height="8"/>
				<rect x="369.352" y="160.552" width="6.752" height="7.262"/>
				<rect x="378.56" y="160.552" width="6.752" height="7.262"/>
				<rect x="388.219" y="161.038" width="5.849" height="6.291"/>
				<rect x="397.426" y="161.038" width="5.85" height="6.291"/>
				<rect x="406.11" y="160.475" width="6.897" height="7.417"/>
				<rect x="415.462" y="160.63" width="6.608" height="7.107"/>
				<rect x="424.67" y="160.63" width="6.608" height="7.107"/>
				<rect x="3.992" y="173.62" width="0.867" height="0.932"/>
				<rect x="10.401" y="170.61" width="6.463" height="6.951"/>
				<rect x="19.609" y="170.61" width="6.463" height="6.951"/>
				<rect x="30.243" y="172.144" width="3.611" height="3.883"/>
				<rect x="39.45" y="172.144" width="3.611" height="3.883"/>
				<rect x="48.423" y="171.892" width="4.08" height="4.388"/>
				<rect x="57.631" y="171.892" width="4.08" height="4.388"/>
				<rect x="65.9" y="170.882" width="5.958" height="6.408"/>
				<rect x="75.107" y="170.882" width="5.958" height="6.408"/>
				<rect x="86.806" y="173.562" width="0.975" height="1.048"/>
				<rect x="96.014" y="173.562" width="0.975" height="1.048"/>
				<rect x="102.658" y="170.804" width="6.102" height="6.563"/>
				<rect x="111.865" y="170.804" width="6.102" height="6.563"/>
				<rect x="122.084" y="171.892" width="4.08" height="4.388"/>
				<rect x="131.291" y="171.892" width="4.08" height="4.388"/>
				<rect x="139" y="170.28" width="7.077" height="7.611"/>
				<rect x="148.208" y="170.28" width="7.077" height="7.611"/>
				<rect x="158.138" y="171.057" width="5.633" height="6.058"/>
				<rect x="167.345" y="171.057" width="5.633" height="6.058"/>
				<rect x="178.232" y="172.863" width="2.275" height="2.447"/>
				<rect x="186.392" y="171.736" width="4.369" height="4.699"/>
				<rect x="195.6" y="171.736" width="4.369" height="4.699"/>
				<rect x="205.403" y="172.377" width="3.177" height="3.417"/>
				<rect x="214.611" y="172.377" width="3.178" height="3.417"/>
				<rect x="222.356" y="170.804" width="6.102" height="6.563"/>
				<rect x="231.564" y="170.804" width="6.102" height="6.563"/>
				<rect x="240.392" y="170.397" width="6.861" height="7.378"/>
				<rect x="249.6" y="170.397" width="6.861" height="7.378"/>
				<rect x="258.988" y="170.591" width="6.5" height="6.99"/>
				<rect x="268.195" y="170.591" width="6.499" height="6.99"/>
				<rect x="277.836" y="171.057" width="5.633" height="6.058"/>
				<rect x="287.044" y="171.057" width="5.633" height="6.058"/>
				<rect x="297.1" y="171.969" width="3.936" height="4.233"/>
				<rect x="306.307" y="171.969" width="3.936" height="4.233"/>
				<rect x="314.973" y="171.387" width="5.019" height="5.398"/>
				<rect x="324.181" y="171.387" width="5.019" height="5.398"/>
				<rect x="332.847" y="170.804" width="6.102" height="6.563"/>
				<rect x="342.055" y="170.804" width="6.102" height="6.563"/>
				<rect x="350.955" y="170.474" width="6.716" height="7.223"/>
				<rect x="360.163" y="170.474" width="6.716" height="7.223"/>
				<rect x="370.165" y="171.329" width="5.127" height="5.514"/>
				<rect x="379.372" y="171.329" width="5.127" height="5.514"/>
				<rect x="389.555" y="172.377" width="3.178" height="3.417"/>
				<rect x="398.762" y="172.377" width="3.177" height="3.417"/>
				<rect x="406.796" y="171.115" width="5.525" height="5.942"/>
				<rect x="416.329" y="171.464" width="4.875" height="5.243"/>
				<rect x="425.537" y="171.464" width="4.875" height="5.243"/>
				<rect x="10.871" y="181.018" width="5.525" height="5.942"/>
				<rect x="20.078" y="181.018" width="5.525" height="5.942"/>
				<rect x="31.326" y="183.212" width="1.444" height="1.553"/>
				<rect x="40.533" y="183.212" width="1.444" height="1.553"/>
				<rect x="49.452" y="182.901" width="2.022" height="2.175"/>
				<rect x="58.66" y="182.901" width="2.022" height="2.175"/>
				<rect x="66.531" y="181.464" width="4.694" height="5.048"/>
				<rect x="75.739" y="181.464" width="4.694" height="5.048"/>
				<rect x="103.217" y="181.309" width="4.983" height="5.359"/>
				<rect x="112.425" y="181.309" width="4.983" height="5.359"/>
				<rect x="123.113" y="182.901" width="2.022" height="2.175"/>
				<rect x="132.32" y="182.901" width="2.022" height="2.175"/>
				<rect x="139.253" y="180.455" width="6.572" height="7.068"/>
				<rect x="148.461" y="180.455" width="6.572" height="7.068"/>
				<rect x="158.842" y="181.717" width="4.225" height="4.543"/>
				<rect x="168.049" y="181.717" width="4.225" height="4.543"/>
				<rect x="187.349" y="182.668" width="2.455" height="2.641"/>
				<rect x="196.557" y="182.668" width="2.455" height="2.641"/>
				<rect x="206.487" y="183.445" width="1.011" height="1.087"/>
				<rect x="215.694" y="183.445" width="1.011" height="1.087"/>
				<rect x="222.952" y="181.348" width="4.911" height="5.281"/>
				<rect x="232.16" y="181.348" width="4.911" height="5.281"/>
				<rect x="240.753" y="180.688" width="6.138" height="6.602"/>
				<rect x="249.961" y="180.688" width="6.138" height="6.602"/>
				<rect x="259.403" y="180.94" width="5.669" height="6.097"/>
				<rect x="268.611" y="180.94" width="5.669" height="6.097"/>
				<rect x="278.54" y="181.717" width="4.225" height="4.543"/>
				<rect x="287.748" y="181.717" width="4.225" height="4.543"/>
				<rect x="298.165" y="183.018" width="1.805" height="1.942"/>
				<rect x="307.373" y="183.018" width="1.805" height="1.942"/>
				<rect x="315.84" y="182.222" width="3.286" height="3.534"/>
				<rect x="325.048" y="182.222" width="3.286" height="3.534"/>
				<rect x="333.407" y="181.309" width="4.983" height="5.359"/>
				<rect x="342.614" y="181.309" width="4.983" height="5.359"/>
				<rect x="351.334" y="180.785" width="5.958" height="6.407"/>
				<rect x="360.542" y="180.785" width="5.958" height="6.407"/>
				<rect x="371.013" y="182.144" width="3.43" height="3.689"/>
				<rect x="380.221" y="182.144" width="3.43" height="3.689"/>
				<rect x="390.638" y="183.445" width="1.011" height="1.087"/>
				<rect x="399.846" y="183.445" width="1.011" height="1.087"/>
				<rect x="407.537" y="181.814" width="4.044" height="4.349"/>
				<rect x="417.232" y="182.338" width="3.069" height="3.301"/>
				<rect x="426.439" y="182.338" width="3.069" height="3.301"/>
				<rect x="11.358" y="191.444" width="4.55" height="4.893"/>
				<rect x="20.566" y="191.444" width="4.55" height="4.893"/>
				<rect x="67.163" y="192.046" width="3.43" height="3.689"/>
				<rect x="76.371" y="192.046" width="3.43" height="3.689"/>
				<rect x="103.831" y="191.872" width="3.755" height="4.039"/>
				<rect x="113.039" y="191.872" width="3.755" height="4.039"/>
				<rect x="139.542" y="190.668" width="5.994" height="6.446"/>
				<rect x="148.75" y="190.668" width="5.994" height="6.446"/>
				<rect x="159.546" y="192.376" width="2.816" height="3.029"/>
				<rect x="168.754" y="192.376" width="2.816" height="3.029"/>
				<rect x="188.126" y="193.406" width="0.903" height="0.971"/>
				<rect x="197.333" y="193.406" width="0.903" height="0.971"/>
				<rect x="223.53" y="191.872" width="3.755" height="4.039"/>
				<rect x="232.737" y="191.872" width="3.755" height="4.039"/>
				<rect x="241.15" y="191.017" width="5.344" height="5.747"/>
				<rect x="250.358" y="191.017" width="5.344" height="5.747"/>
				<rect x="259.891" y="191.367" width="4.694" height="5.048"/>
				<rect x="269.098" y="191.367" width="4.694" height="5.048"/>
				<rect x="279.245" y="192.376" width="2.816" height="3.029"/>
				<rect x="288.452" y="192.376" width="2.817" height="3.029"/>
				<rect x="316.598" y="192.94" width="1.769" height="1.903"/>
				<rect x="325.806" y="192.94" width="1.769" height="1.903"/>
				<rect x="334.021" y="191.872" width="3.755" height="4.039"/>
				<rect x="343.228" y="191.872" width="3.755" height="4.039"/>
				<rect x="351.75" y="191.134" width="5.127" height="5.514"/>
				<rect x="360.957" y="191.134" width="5.127" height="5.514"/>
				<rect x="371.79" y="192.881" width="1.878" height="2.019"/>
				<rect x="380.997" y="192.881" width="1.878" height="2.019"/>
				<rect x="408.259" y="192.493" width="2.6" height="2.796"/>
				<rect x="417.99" y="193.056" width="1.553" height="1.67"/>
				<rect x="427.198" y="193.056" width="1.553" height="1.67"/>
				<rect x="11.864" y="201.891" width="3.539" height="3.806"/>
				<rect x="21.071" y="201.891" width="3.539" height="3.806"/>
				<rect x="67.741" y="202.571" width="2.275" height="2.447"/>
				<rect x="76.949" y="202.571" width="2.275" height="2.447"/>
				<rect x="104.373" y="202.357" width="2.672" height="2.874"/>
				<rect x="113.58" y="202.357" width="2.672" height="2.874"/>
				<rect x="139.867" y="200.92" width="5.344" height="5.747"/>
				<rect x="149.075" y="200.92" width="5.344" height="5.747"/>
				<rect x="160.16" y="202.939" width="1.589" height="1.709"/>
				<rect x="169.367" y="202.939" width="1.589" height="1.709"/>
				<rect x="224.107" y="202.396" width="2.6" height="2.796"/>
				<rect x="233.315" y="202.396" width="2.6" height="2.796"/>
				<rect x="241.493" y="201.289" width="4.658" height="5.01"/>
				<rect x="250.701" y="201.289" width="4.658" height="5.01"/>
				<rect x="260.36" y="201.774" width="3.755" height="4.039"/>
				<rect x="269.568" y="201.774" width="3.755" height="4.039"/>
				<rect x="279.858" y="202.939" width="1.589" height="1.709"/>
				<rect x="289.066" y="202.939" width="1.589" height="1.709"/>
				<rect x="334.562" y="202.357" width="2.672" height="2.874"/>
				<rect x="343.77" y="202.357" width="2.672" height="2.874"/>
				<rect x="352.183" y="201.503" width="4.261" height="4.582"/>
				<rect x="361.391" y="201.503" width="4.261" height="4.582"/>
				<rect x="408.855" y="203.037" width="1.408" height="1.515"/>
				<rect x="418.062" y="203.037" width="1.408" height="1.515"/>
				<rect x="12.333" y="212.298" width="2.6" height="2.796"/>
				<rect x="21.541" y="212.298" width="2.6" height="2.796"/>
				<rect x="68.247" y="213.017" width="1.264" height="1.359"/>
				<rect x="77.454" y="213.017" width="1.264" height="1.359"/>
				<rect x="104.878" y="212.803" width="1.661" height="1.786"/>
				<rect x="114.086" y="212.803" width="1.661" height="1.786"/>
				<rect x="140.156" y="211.133" width="4.766" height="5.126"/>
				<rect x="149.363" y="211.133" width="4.766" height="5.126"/>
				<rect x="224.595" y="212.822" width="1.625" height="1.747"/>
				<rect x="233.802" y="212.822" width="1.625" height="1.747"/>
				<rect x="241.909" y="211.638" width="3.827" height="4.116"/>
				<rect x="251.116" y="211.638" width="3.827" height="4.116"/>
				<rect x="260.811" y="212.162" width="2.853" height="3.068"/>
				<rect x="270.019" y="212.162" width="2.852" height="3.068"/>
				<rect x="335.068" y="212.803" width="1.661" height="1.786"/>
				<rect x="344.275" y="212.803" width="1.661" height="1.786"/>
				<rect x="352.598" y="211.852" width="3.43" height="3.689"/>
				<rect x="361.806" y="211.852" width="3.43" height="3.689"/>
				<rect x="12.73" y="222.628" width="1.805" height="1.942"/>
				<rect x="21.938" y="222.628" width="1.805" height="1.942"/>
				<rect x="105.275" y="223.132" width="0.867" height="0.932"/>
				<rect x="114.483" y="223.132" width="0.867" height="0.932"/>
				<rect x="140.463" y="221.366" width="4.152" height="4.466"/>
				<rect x="149.67" y="221.366" width="4.152" height="4.466"/>
				<rect x="224.992" y="223.152" width="0.831" height="0.893"/>
				<rect x="234.2" y="223.152" width="0.831" height="0.893"/>
				<rect x="242.288" y="221.948" width="3.069" height="3.301"/>
				<rect x="251.495" y="221.948" width="3.069" height="3.301"/>
				<rect x="261.227" y="222.512" width="2.022" height="2.175"/>
				<rect x="270.434" y="222.512" width="2.022" height="2.175"/>
				<rect x="335.465" y="223.132" width="0.867" height="0.932"/>
				<rect x="344.672" y="223.132" width="0.867" height="0.932"/>
				<rect x="353.013" y="222.2" width="2.6" height="2.796"/>
				<rect x="362.221" y="222.2" width="2.6" height="2.796"/>
				<rect x="13.091" y="232.919" width="1.083" height="1.165"/>
				<rect x="22.299" y="232.919" width="1.083" height="1.165"/>
				<rect x="140.788" y="231.618" width="3.503" height="3.767"/>
				<rect x="149.995" y="231.618" width="3.503" height="3.767"/>
				<rect x="242.613" y="232.2" width="2.419" height="2.602"/>
				<rect x="251.82" y="232.2" width="2.419" height="2.602"/>
				<rect x="261.588" y="232.802" width="1.3" height="1.398"/>
				<rect x="270.795" y="232.802" width="1.3" height="1.398"/>
				<rect x="353.374" y="232.492" width="1.878" height="2.019"/>
				<rect x="362.582" y="232.492" width="1.878" height="2.019"/>
				<rect x="141.077" y="241.831" width="2.925" height="3.145"/>
				<rect x="150.284" y="241.831" width="2.925" height="3.145"/>
				<rect x="242.938" y="242.452" width="1.769" height="1.903"/>
				<rect x="252.145" y="242.452" width="1.769" height="1.903"/>
				<rect x="353.681" y="242.724" width="1.264" height="1.359"/>
				<rect x="362.889" y="242.724" width="1.264" height="1.359"/>
				<rect x="141.329" y="252.006" width="2.419" height="2.602"/>
				<rect x="150.537" y="252.006" width="2.419" height="2.602"/>
				<rect x="243.227" y="252.666" width="1.192" height="1.281"/>
				<rect x="252.434" y="252.666" width="1.192" height="1.281"/>
				<rect x="141.618" y="262.219" width="1.842" height="1.98"/>
				<rect x="150.826" y="262.219" width="1.842" height="1.98"/>
				<rect x="141.853" y="272.374" width="1.372" height="1.476"/>
				<rect x="151.061" y="272.374" width="1.372" height="1.476"/>
				<rect x="142.052" y="282.49" width="0.975" height="1.048"/>
				<rect x="151.259" y="282.49" width="0.975" height="1.048"/>
			</g>
		</g>
	</g>
</g>
</svg>
