<?xml version="1.0" encoding="utf-8"?>
<!-- Generator: Adobe Illustrator 17.0.0, SVG Export Plug-In . SVG Version: 6.00 Build 0)  -->
<!DOCTYPE svg PUBLIC "-//W3C//DTD SVG 1.1//EN" "http://www.w3.org/Graphics/SVG/1.1/DTD/svg11.dtd">
<svg version="1.1" id="Layer_1" xmlns="http://www.w3.org/2000/svg" xmlns:xlink="http://www.w3.org/1999/xlink" x="0px" y="0px"
	 width="1000px" height="100px" viewBox="0 0 1000 100" enable-background="new 0 0 1000 100" xml:space="preserve">
<path d="M155.539,90.038l-21.077-77.034c-0.511-1.878-2.231-3.186-4.177-3.186s-3.666,1.308-4.177,3.186l-21.077,77.034
	c-0.136,0.498-0.036,1.014,0.276,1.421c0.312,0.407,0.788,0.643,1.299,0.643c0.733,0,1.38-0.493,1.575-1.199l20.312-73.997
	c0.222-0.819,0.941-1.367,1.788-1.367s1.566,0.548,1.788,1.367l11.201,41.036l0.819,2.878l8.291,30.083
	c0.195,0.706,0.842,1.199,1.575,1.199c0.516,0,0.987-0.231,1.299-0.643C155.575,91.051,155.675,90.535,155.539,90.038z"/>
<path d="M322.501,92.786c-0.775,0-1.408-0.629-1.408-1.408V13.692c0-0.775,0.633-1.408,1.408-1.408h0.567
	c0.775,0,1.408,0.633,1.408,1.408v72.979c0,1.82,1.479,3.299,3.299,3.299h34.842c0.775,0,1.408,0.633,1.408,1.408
	c0,0.775-0.633,1.408-1.408,1.408C362.617,92.786,322.501,92.786,322.501,92.786z"/>
<path d="M575.937,91.119L550.592,49.44h7.164c2.856,0,5.579-0.491,8.098-1.466c2.515-0.974,4.747-2.32,6.633-4.003
	c1.873-1.674,3.374-3.653,4.459-5.889c1.076-2.218,1.621-4.415,1.621-6.535c0-2.896-0.545-5.49-1.621-7.709
	c-1.085-2.236-2.586-4.215-4.459-5.889c-1.882-1.678-4.113-3.024-6.633-4.003c-2.519-0.974-5.242-1.466-8.098-1.466h-25.225
	c-0.788,0-1.43,0.642-1.43,1.43l0,0c0,0.793,0.638,1.435,1.435,1.43c4.937-0.027,25.225-0.049,25.225-0.049
	c2.391,0,4.658,0.421,6.744,1.244c2.068,0.819,3.91,1.948,5.49,3.352c1.576,1.412,2.847,3.073,3.777,4.933
	c0.939,1.891,1.417,4.149,1.417,6.717c0,1.789-0.478,3.653-1.417,5.544c-0.93,1.864-2.201,3.525-3.777,4.933
	c-1.572,1.404-3.418,2.533-5.486,3.352c-2.077,0.824-4.344,1.244-6.744,1.244h-8.555c-1.142,0-2.108,0.899-2.143,2.041
	c-0.027,0.863,0.261,1.714,0.806,2.387L572.35,91.65c1.293,1.293,2.506,1.333,2.639,1.333h0.058c0.456,0,0.846-0.244,1.04-0.655
	C576.278,91.929,576.224,91.473,575.937,91.119z"/>
<path d="M850.126,90.019c-1.137,0-2.065-0.923-2.065-2.065V14.354c0-1.137,0.928-2.065,2.065-2.065h23.12
	c3.433,0,6.729,0.59,9.794,1.757c3.061,1.167,5.771,2.792,8.054,4.831c2.274,2.031,4.087,4.442,5.387,7.157
	c1.291,2.706,1.949,5.806,1.949,9.213v31.82c0,3.403-0.654,6.502-1.949,9.213c-1.3,2.719-3.112,5.126-5.387,7.157
	c-2.283,2.039-4.993,3.664-8.054,4.831c-3.061,1.167-6.357,1.757-9.794,1.757h-23.12V90.019z M854.914,15.012
	c-1.975,0-3.587,1.612-3.587,3.587v65.119c0,1.975,1.607,3.587,3.587,3.587h18.332c2.988,0,5.84-0.517,8.478-1.539
	c2.633-1.017,4.976-2.433,6.96-4.202c1.988-1.774,3.583-3.878,4.733-6.25c1.159-2.39,1.748-5.16,1.748-8.242v-31.82
	c0-3.078-0.586-5.853-1.744-8.242c-1.154-2.373-2.745-4.476-4.733-6.25c-1.984-1.77-4.326-3.185-6.96-4.202
	c-2.642-1.022-5.494-1.539-8.478-1.539L854.914,15.012L854.914,15.012z"/>
<path d="M690.234,90.216c-0.902,0-1.633-0.731-1.633-1.633V23.469c0-1.466-1.197-2.338-2.351-2.338c-0.787,0-1.492,0.38-1.932,1.052
	l-20.76,31.409c-0.577,0.876-1.548,1.394-2.595,1.394c-1.047,0-2.018-0.522-2.595-1.394l-20.76-31.409
	c-0.44-0.667-1.146-1.052-1.932-1.052c-1.159,0-2.351,0.876-2.351,2.338v65.115c0,0.902-0.731,1.633-1.633,1.633
	s-1.633-0.731-1.633-1.633v-74.46c0-0.902,0.731-1.633,1.633-1.633h2.321c0.551,0,1.06,0.274,1.364,0.735l25.595,38.763
	l25.595-38.763c0.304-0.462,0.812-0.735,1.364-0.735h2.321c0.902,0,1.633,0.731,1.633,1.633v74.46
	C691.868,89.485,691.137,90.216,690.234,90.216z"/>
<path d="M448.694,91.575c-3.437,0-6.733-0.59-9.794-1.757c-3.061-1.163-5.771-2.787-8.054-4.827
	c-2.274-2.026-4.083-4.472-5.382-7.263c-1.295-2.779-1.949-5.84-1.949-9.102V35.665c0-3.262,0.658-6.323,1.949-9.106
	c1.295-2.787,3.108-5.233,5.382-7.263c2.283-2.035,4.993-3.664,8.054-4.827c3.069-1.167,6.366-1.761,9.794-1.761
	c3.429,0,6.725,0.59,9.794,1.761c3.061,1.167,5.767,2.787,8.054,4.827c2.27,2.031,4.083,4.472,5.382,7.263
	c1.295,2.783,1.954,5.844,1.954,9.106v32.961c0,3.258-0.658,6.323-1.954,9.102c-1.3,2.792-3.108,5.233-5.382,7.263
	c-2.287,2.039-4.993,3.664-8.054,4.827C455.428,90.985,452.132,91.575,448.694,91.575z M448.694,15.43
	c-2.98,0-5.827,0.5-8.465,1.479c-2.642,0.983-4.989,2.381-6.973,4.151c-1.997,1.783-3.591,3.946-4.741,6.434
	c-1.154,2.492-1.74,5.241-1.74,8.166v32.961c0,2.924,0.586,5.673,1.74,8.17c1.15,2.488,2.745,4.651,4.741,6.434
	c1.988,1.774,4.335,3.172,6.973,4.151c2.633,0.979,5.481,1.479,8.465,1.479c2.984,0,5.836-0.5,8.465-1.479
	c2.638-0.979,4.985-2.377,6.973-4.151c1.992-1.778,3.587-3.942,4.741-6.434c1.154-2.501,1.74-5.246,1.74-8.17V35.66
	c0-2.92-0.586-5.669-1.74-8.166c-1.15-2.492-2.749-4.656-4.741-6.434c-1.984-1.774-4.331-3.168-6.973-4.151
	C454.521,15.931,451.674,15.43,448.694,15.43z"/>
<path d="M23.872,90.413c-0.748,0-1.359-0.607-1.359-1.359V18.591c0-1.757-1.428-3.185-3.185-3.185H0.324
	c-0.748,0-1.359-0.607-1.359-1.359c0-0.748,0.607-1.359,1.359-1.359H47.97c0.748,0,1.359,0.611,1.359,1.359
	c0,0.748-0.607,1.359-1.359,1.359H28.967c-1.757,0-3.185,1.432-3.185,3.185v70.463c0,0.748-0.607,1.359-1.359,1.359H23.872z"/>
<path d="M790.964,88.661l-19.909-72.767c-0.483-1.774-2.108-3.01-3.946-3.01s-3.463,1.236-3.946,3.01l-19.909,72.767
	c-0.128,0.47-0.034,0.958,0.261,1.342c0.295,0.385,0.744,0.607,1.227,0.607c0.693,0,1.304-0.466,1.488-1.133l19.187-69.898
	c0.209-0.774,0.889-1.291,1.689-1.291s1.479,0.517,1.689,1.291l10.581,38.763l0.774,2.719l7.832,28.417
	c0.184,0.667,0.795,1.133,1.488,1.133c0.487,0,0.932-0.218,1.227-0.607C790.994,89.618,791.093,89.127,790.964,88.661z"/>
<g>
	<path d="M215.805,14.44c0,0.752,0.607,1.359,1.359,1.359h38.361c0.748,0,1.359-0.607,1.359-1.359c0-0.748-0.611-1.359-1.359-1.359
		h-38.361C216.416,13.081,215.805,13.688,215.805,14.44L215.805,14.44z"/>
	<path d="M257.039,50.621c0-0.748-0.611-1.359-1.359-1.359h-38.515c-0.752,0-1.359,0.607-1.359,1.359l0,0
		c0,0.752,0.607,1.359,1.359,1.359h38.515C256.427,51.976,257.039,51.369,257.039,50.621z"/>
	<path d="M255.53,88.088h-38.365c-0.752,0-1.359,0.607-1.359,1.359l0,0c0,0.752,0.607,1.359,1.359,1.359h38.361
		c0.748,0,1.359-0.607,1.359-1.359S256.278,88.088,255.53,88.088z"/>
</g>
<g>
	<path d="M958.766,14.834c0,0.752,0.607,1.359,1.359,1.359h38.361c0.748,0,1.359-0.607,1.359-1.359c0-0.748-0.611-1.359-1.359-1.359
		h-38.361C959.378,13.475,958.766,14.082,958.766,14.834L958.766,14.834z"/>
	<path d="M1000,51.015c0-0.748-0.611-1.359-1.359-1.359h-38.515c-0.752,0-1.359,0.607-1.359,1.359l0,0
		c0,0.752,0.607,1.359,1.359,1.359h38.515C999.389,52.37,1000,51.763,1000,51.015z"/>
	<path d="M998.491,88.482h-38.365c-0.752,0-1.359,0.607-1.359,1.359l0,0c0,0.752,0.607,1.359,1.359,1.359h38.361
		c0.748,0,1.359-0.607,1.359-1.359S999.239,88.482,998.491,88.482z"/>
</g>
</svg>
