<?xml version="1.0" encoding="utf-8"?>
<!-- Generator: Adobe Illustrator 17.0.0, SVG Export Plug-In . SVG Version: 6.00 Build 0)  -->
<!DOCTYPE svg PUBLIC "-//W3C//DTD SVG 1.1//EN" "http://www.w3.org/Graphics/SVG/1.1/DTD/svg11.dtd">
<svg version="1.1" xmlns="http://www.w3.org/2000/svg" xmlns:xlink="http://www.w3.org/1999/xlink" x="0px" y="0px" width="750px"
	 height="400px" viewBox="0 0 750 400" enable-background="new 0 0 750 400" xml:space="preserve">
<g id="BACKGROUND">
</g>
<g id="EDITABLE_TEXT">
	<g>
		<path fill="#141629" d="M45.918,260.99c-0.983,0-1.781-0.782-1.781-1.746v-90.585c0-2.258-1.874-4.097-4.175-4.097h-24.91
			c-0.983,0-1.781-0.782-1.781-1.747c0-0.964,0.797-1.748,1.781-1.748h62.45c0.983,0,1.781,0.784,1.781,1.748
			c0,0.964-0.798,1.747-1.781,1.747h-24.91c-2.302,0-4.175,1.839-4.175,4.097v90.585c0,0.964-0.797,1.746-1.781,1.746H45.918z"/>
		<path fill="#141629" d="M566.896,261.356c-4.387,0-8.593-0.755-12.501-2.244c-3.908-1.485-7.367-3.56-10.281-6.161
			c-2.901-2.589-5.212-5.707-6.867-9.269c-1.653-3.546-2.49-7.455-2.49-11.619v-42.067c0-4.162,0.838-8.071,2.49-11.619
			c1.656-3.56,3.966-6.679,6.867-9.269c2.914-2.599,6.373-4.674,10.281-6.161c3.917-1.491,8.123-2.246,12.501-2.246
			s8.585,0.755,12.502,2.246c3.904,1.487,7.363,3.56,10.28,6.161c2.899,2.591,5.21,5.709,6.867,9.269
			c1.654,3.552,2.491,7.461,2.491,11.619v42.067c0,4.16-0.838,8.069-2.491,11.619c-1.658,3.562-3.969,6.681-6.867,9.269
			c-2.917,2.603-6.376,4.676-10.28,6.161C575.49,260.601,571.284,261.356,566.896,261.356z M566.896,164.172
			c-3.804,0-7.439,0.636-10.804,1.886c-3.371,1.254-6.366,3.038-8.899,5.3c-2.548,2.274-4.583,5.037-6.049,8.214
			c-1.473,3.183-2.22,6.691-2.22,10.423v42.067c0,3.733,0.747,7.241,2.22,10.425c1.467,3.175,3.502,5.938,6.049,8.212
			c2.538,2.266,5.532,4.048,8.899,5.3c3.358,1.25,6.994,1.886,10.804,1.886c3.811,0,7.446-0.636,10.805-1.886
			c3.368-1.252,6.363-3.036,8.898-5.3c2.544-2.27,4.58-5.033,6.05-8.212c1.473-3.191,2.22-6.697,2.22-10.425v-42.067
			c0-3.729-0.747-7.235-2.22-10.423c-1.47-3.181-3.506-5.944-6.05-8.214c-2.532-2.262-5.526-4.044-8.898-5.3
			C574.336,164.808,570.701,164.172,566.896,164.172z"/>
		<path fill="#141629" d="M209.444,258.145l-25.411-92.871c-0.619-2.264-2.69-3.843-5.036-3.843c-2.346,0-4.418,1.579-5.037,3.843
			l-25.41,92.871c-0.164,0.598-0.042,1.224,0.334,1.716c0.376,0.494,0.947,0.775,1.567,0.775c0.884,0,1.667-0.594,1.901-1.445
			l24.487-89.211c0.27-0.985,1.137-1.648,2.157-1.648c1.02,0,1.887,0.662,2.157,1.648l13.503,49.472l0.986,3.47l9.998,36.269
			c0.235,0.851,1.017,1.445,1.901,1.445c0.62,0,1.191-0.281,1.567-0.775C209.486,259.369,209.607,258.743,209.444,258.145z"/>
		<path fill="#141629" d="M718.22,258.339l-31.234-51.36h8.828c3.522,0,6.877-0.606,9.978-1.804c3.101-1.2,5.85-2.86,8.174-4.933
			c2.308-2.061,4.158-4.501,5.495-7.255c1.325-2.733,1.995-5.442,1.995-8.051c0-3.57-0.67-6.767-1.995-9.498
			c-1.337-2.753-3.187-5.194-5.497-7.257c-2.318-2.069-5.067-3.729-8.172-4.931c-3.105-1.2-6.462-1.806-9.978-1.806h-31.086
			c-0.974,0-1.764,0.79-1.764,1.764l0,0c0,0.978,0.787,1.769,1.766,1.764c6.085-0.033,31.085-0.057,31.085-0.057
			c2.946,0,5.742,0.516,8.308,1.533c2.547,1.011,4.82,2.4,6.765,4.13c1.945,1.74,3.51,3.785,4.654,6.081
			c1.158,2.33,1.746,5.115,1.746,8.278c0,2.201-0.588,4.499-1.746,6.831c-1.146,2.298-2.711,4.343-4.654,6.079
			c-1.939,1.73-4.214,3.119-6.763,4.128c-2.559,1.017-5.354,1.535-8.31,1.535l-10.542,0c-1.406,0-2.598,1.107-2.639,2.513
			c-0.031,1.064,0.324,2.113,0.993,2.942l30.164,50.046c1.593,1.595,3.086,1.642,3.253,1.642l0.072-0.002
			c0.562,0,1.04-0.301,1.282-0.807C718.639,259.336,718.573,258.774,718.22,258.339z"/>
		<g>
			<path fill="#141629" d="M280.321,163.17c0,0.958,0.777,1.735,1.735,1.735h48.962c0.957,0,1.736-0.777,1.736-1.734
				c0-0.957-0.779-1.736-1.736-1.736h-48.962C281.097,161.435,280.321,162.212,280.321,163.17L280.321,163.17z"/>
			<path fill="#141629" d="M332.947,209.346c0-0.957-0.779-1.736-1.736-1.736h-49.155c-0.958,0-1.735,0.777-1.735,1.735l0,0
				c0,0.958,0.777,1.735,1.735,1.735h49.155C332.168,211.08,332.947,210.303,332.947,209.346z"/>
			<path fill="#141629" d="M331.017,257.17h-48.962c-0.958,0-1.735,0.777-1.735,1.735l0,0c0,0.958,0.777,1.735,1.735,1.735h48.962
				c0.957,0,1.736-0.777,1.736-1.734C332.753,257.949,331.974,257.17,331.017,257.17z"/>
		</g>
		<path fill="#141629" d="M405.544,261.928c-0.965,0-1.749-0.781-1.749-1.744v-96.305c0-0.963,0.784-1.746,1.749-1.746h0.703
			c0.965,0,1.749,0.783,1.749,1.746v90.469c0,2.255,1.838,4.09,4.097,4.09h43.268c0.965,0,1.749,0.783,1.749,1.746
			s-0.784,1.744-1.749,1.744H405.544z"/>
	</g>
</g>
<g id="TEXT">
	<g>
	</g>
	<g>
	</g>
	<g>
	</g>
	<g>
	</g>
	<g>
	</g>
	<g>
	</g>
	<g>
	</g>
	<g>
	</g>
	<g>
	</g>
	<g>
	</g>
	<g>
	</g>
	<g>
	</g>
	<g>
	</g>
	<g>
	</g>
	<g>
	</g>
	<g>
	</g>
</g>
</svg>
