<?xml version="1.0" encoding="utf-8"?>
<!-- Generator: Adobe Illustrator 17.0.0, SVG Export Plug-In . SVG Version: 6.00 Build 0)  -->
<!DOCTYPE svg PUBLIC "-//W3C//DTD SVG 1.1//EN" "http://www.w3.org/Graphics/SVG/1.1/DTD/svg11.dtd">
<svg version="1.1" id="Layer_1" xmlns="http://www.w3.org/2000/svg" xmlns:xlink="http://www.w3.org/1999/xlink" x="0px" y="0px"
	 width="200px" height="200px" viewBox="0 0 200 200" enable-background="new 0 0 200 200" xml:space="preserve">
<g>
	<path fill="#15172A" d="M133.132,19.611c-3.241,0-5.869,2.333-5.869,5.21v147.05c0,2.875,2.628,5.214,5.866,5.214
		c3.239,0,5.873-2.339,5.873-5.214V24.822C139.002,21.944,136.374,19.611,133.132,19.611L133.132,19.611z"/>
	<path fill="#15172A" d="M72.015,19.611c-3.241,0-5.869,2.333-5.869,5.21v147.05c0,2.875,2.628,5.214,5.866,5.214
		c3.239,0,5.873-2.339,5.873-5.214V24.822C77.885,21.944,75.257,19.611,72.015,19.611L72.015,19.611z"/>
	<g>
		<path fill="#15172A" d="M102.4,155.954c-2.672,0-4.84-1.027-4.84-2.294V34.683c0-2.966-5.092-5.381-11.349-5.381H18.504
			c-2.672,0-4.84-1.028-4.84-2.294c0-1.266,2.168-2.296,4.84-2.296H188.25c2.672,0,4.84,1.03,4.84,2.296
			c0,1.266-2.168,2.294-4.84,2.294h-67.707c-6.257,0-11.349,2.416-11.349,5.381V153.66c0,1.266-2.168,2.294-4.84,2.294H102.4z"/>
		<path fill="#15172A" d="M195.63,24.711c0-2.816-2.744-5.1-6.129-5.1H16.541c-3.382,0-6.132,2.283-6.132,5.097
			c0,2.814,2.751,5.103,6.132,5.103h172.961C192.886,29.811,195.63,27.528,195.63,24.711L195.63,24.711z"/>
	</g>
	<path fill="#15172A" d="M103.377,21.845c-3.241,0-5.869,2.022-5.869,4.517v127.479c0,2.492,2.628,4.52,5.866,4.52
		c3.239,0,5.873-2.027,5.873-4.52V26.362C109.247,23.867,106.619,21.845,103.377,21.845L103.377,21.845z"/>
</g>
<g>
</g>
<g>
</g>
<g>
</g>
<g>
</g>
<g>
</g>
<g>
</g>
</svg>
