<?xml version="1.0" encoding="utf-8"?>
<!-- Generator: Adobe Illustrator 17.0.0, SVG Export Plug-In . SVG Version: 6.00 Build 0)  -->
<!DOCTYPE svg PUBLIC "-//W3C//DTD SVG 1.1//EN" "http://www.w3.org/Graphics/SVG/1.1/DTD/svg11.dtd">
<svg version="1.1" id="Layer_1" xmlns="http://www.w3.org/2000/svg" xmlns:xlink="http://www.w3.org/1999/xlink" x="0px" y="0px"
	 width="200px" height="200px" viewBox="0 0 200 200" enable-background="new 0 0 200 200" xml:space="preserve">
<g>
	<path fill="#15172A" d="M133.056,19.786c-3.238,0-5.863,2.33-5.863,5.205v146.887c0,2.872,2.625,5.208,5.86,5.208
		c3.235,0,5.866-2.336,5.866-5.208V24.991C138.919,22.116,136.294,19.786,133.056,19.786L133.056,19.786z"/>
	<path fill="#15172A" d="M72.007,19.786c-3.238,0-5.863,2.33-5.863,5.205v146.887c0,2.872,2.625,5.208,5.86,5.208
		c3.235,0,5.866-2.336,5.866-5.208V24.991C77.87,22.116,75.245,19.786,72.007,19.786L72.007,19.786z"/>
	<g>
		<path fill="#15172A" d="M102.358,155.977c-2.669,0-4.834-1.026-4.834-2.291V34.841c0-2.962-5.087-5.375-11.337-5.375H18.555
			c-2.669,0-4.834-1.027-4.834-2.292c0-1.265,2.165-2.294,4.834-2.294h169.558c2.669,0,4.835,1.029,4.835,2.294
			c0,1.265-2.166,2.292-4.835,2.292h-67.632c-6.25,0-11.336,2.413-11.336,5.375v118.845c0,1.265-2.165,2.291-4.834,2.291H102.358z"
			/>
		<path fill="#15172A" d="M195.485,24.88c0-2.813-2.741-5.094-6.122-5.094H16.594c-3.378,0-6.125,2.28-6.125,5.091
			c0,2.811,2.748,5.097,6.125,5.097h172.769C192.744,29.974,195.485,27.693,195.485,24.88L195.485,24.88z"/>
	</g>
	<path fill="#15172A" d="M103.334,1.082c-3.238,0-5.863,2.33-5.863,5.205v146.887c0,2.872,2.625,5.208,5.86,5.208
		c3.235,0,5.866-2.336,5.866-5.208V6.287C109.197,3.412,106.572,1.082,103.334,1.082L103.334,1.082z"/>
</g>
<g>
</g>
<g>
</g>
<g>
</g>
<g>
</g>
<g>
</g>
<g>
</g>
</svg>
