<?xml version="1.0" encoding="utf-8"?>
<!-- Generator: Adobe Illustrator 17.0.0, SVG Export Plug-In . SVG Version: 6.00 Build 0)  -->
<!DOCTYPE svg PUBLIC "-//W3C//DTD SVG 1.1//EN" "http://www.w3.org/Graphics/SVG/1.1/DTD/svg11.dtd">
<svg version="1.1" id="Layer_1" xmlns="http://www.w3.org/2000/svg" xmlns:xlink="http://www.w3.org/1999/xlink" x="0px" y="0px"
	 width="200px" height="200px" viewBox="0 0 200 200" enable-background="new 0 0 200 200" xml:space="preserve">
<g>
	<path fill="#15172A" d="M133.104,36.031c-3.25,0-5.884,2.339-5.884,5.224v147.427c0,2.882,2.634,5.227,5.881,5.227
		c3.247,0,5.888-2.345,5.888-5.227V41.255C138.988,38.37,136.354,36.031,133.104,36.031L133.104,36.031z"/>
	<path fill="#15172A" d="M71.83,36.031c-3.25,0-5.884,2.339-5.884,5.224v147.427c0,2.882,2.634,5.227,5.881,5.227
		c3.247,0,5.888-2.345,5.888-5.227V41.255C77.714,38.37,75.08,36.031,71.83,36.031L71.83,36.031z"/>
	<g>
		<path fill="#15172A" d="M102.292,166.341c-2.679,0-4.852-1.11-4.852-2.479V35.282c0-3.205-5.105-5.816-11.378-5.816H18.181
			c-2.679,0-4.852-1.111-4.852-2.479c0-1.368,2.173-2.482,4.852-2.482h170.181c2.679,0,4.853,1.113,4.853,2.482
			c0,1.369-2.174,2.479-4.853,2.479h-67.881c-6.273,0-11.378,2.611-11.378,5.816v128.58c0,1.369-2.173,2.479-4.852,2.479H102.292z"
			/>
		<path fill="#15172A" d="M195.762,24.506c0-3.044-2.751-5.511-6.144-5.511H16.213c-3.39,0-6.148,2.467-6.148,5.508
			c0,3.041,2.758,5.514,6.148,5.514h173.405C193.011,30.017,195.762,27.55,195.762,24.506L195.762,24.506z"/>
	</g>
</g>
<g>
</g>
<g>
</g>
<g>
</g>
<g>
</g>
<g>
</g>
<g>
</g>
</svg>
